<svg width="66" height="42" viewBox="0 0 66 42" fill="none" xmlns="http://www.w3.org/2000/svg">
<path d="M65.9048 41.1875H51.1539C48.3104 41.1875 46.6713 40.2107 46.237 38.2572C46.0789 37.6781 46 37.0633 46 36.4121V18.8298C46 17.3103 46.4542 16.1343 47.3626 15.3024C48.3104 14.4341 49.7321 14 51.6278 14H65.9048V20.8918H61.8764V17.7444H50.7393V37.4974H61.8764V34.35H65.9048V41.1875Z" fill="black"/>
<path d="M20.4634 32C20.1546 32 20 31.7469 20 31.2405C20 30.9028 20.0618 30.5316 20.1854 30.1268C20.3089 29.6878 20.4324 29.3165 20.556 29.0127C20.7414 28.54 21.0966 27.9494 21.6217 27.2405C22.1468 26.5316 22.7026 25.8396 23.2897 25.1645C23.8764 24.4893 24.3243 23.9663 24.6332 23.595C25.0965 23.0884 25.5444 22.5654 25.9768 22.0255C26.44 21.4852 26.8725 20.9621 27.274 20.4557C28.5405 18.8017 29.8224 17.249 31.1197 15.7974C32.448 14.3121 33.8532 12.5401 35.3358 10.481C35.83 9.70458 36.247 8.87745 36.5869 7.99992C36.9266 7.08861 37.0965 6.19392 37.0965 5.3164C37.0965 4.26996 36.8031 3.40932 36.2162 2.73421C35.6294 2.0591 34.7026 1.72154 33.4363 1.72154C32.5714 1.72154 31.8454 1.89018 31.2586 2.22773C30.7028 2.56529 30.224 2.97042 29.8224 3.44282C29.1428 4.25306 28.7103 4.97884 28.5252 5.62016C28.3398 6.2277 28.1389 7.08861 27.9228 8.20235C27.8611 8.60747 27.6138 8.91125 27.1814 9.11393C26.78 9.31635 26.3475 9.48527 25.8842 9.62013C25.4209 9.72148 25.0348 9.83972 24.726 9.97458C24.6024 10.0421 24.4634 10.1266 24.3088 10.2277C24.1854 10.329 24.0463 10.3797 23.892 10.3797C23.7374 10.3797 23.6449 10.3121 23.6139 10.1773C23.5831 10.0084 23.5675 9.87324 23.5675 9.77216C23.5675 9.56946 23.5675 9.38393 23.5675 9.21501C23.5675 9.04637 23.5831 8.89434 23.6139 8.75949C24.0154 6.63282 24.7876 4.92817 25.9305 3.64552C27.1042 2.36287 28.4634 1.43439 30.0078 0.86063C31.5829 0.28687 33.1582 0 34.7335 0C35.7219 0 36.772 0.185525 37.8842 0.55686C38.996 0.894414 39.9382 1.48506 40.7103 2.32909C41.5135 3.17283 41.9149 4.3713 41.9149 5.92394C41.9149 7.3755 41.5597 8.7595 40.8494 10.0759C40.1697 11.3924 39.2586 12.6581 38.1158 13.8735C37.0038 15.0886 35.7992 16.2702 34.5018 17.4176C33.2046 18.5654 31.9537 19.696 30.7491 20.81C29.5443 21.924 28.5097 23.0381 27.6448 24.1518C26.78 25.2658 26.2239 26.3967 25.9768 27.5442C25.9768 28.1856 26.1775 28.692 26.5791 29.0634C26.9806 29.4009 27.4749 29.6371 28.0617 29.7722C28.6795 29.8734 29.2818 29.924 29.8688 29.924C30.5791 29.924 31.4131 29.8564 32.3706 29.7216C33.3591 29.5527 34.332 29.3503 35.2894 29.114C36.247 28.8438 37.0502 28.5569 37.6988 28.2531C39.1814 27.3756 40.3396 26.1265 41.1736 24.5063C42.0385 22.8523 42.8108 21.1307 43.4902 19.3419C43.5829 19.2405 43.6448 19.1898 43.6756 19.1898C43.7991 19.1898 43.8763 19.2575 43.9074 19.3923C43.969 19.4937 44 19.6118 44 19.7468V19.9495C43.7836 20.7256 43.5366 21.6879 43.2586 22.8353C43.0114 23.9832 42.718 25.1645 42.3783 26.3798C42.0386 27.5612 41.6371 28.6414 41.1736 29.6202C40.7412 30.5991 40.2316 31.2911 39.6446 31.6963C39.5211 31.8314 39.3668 31.9155 39.1814 31.9494C38.996 31.9832 38.8262 32 38.6718 32C38.1159 32 37.5752 31.9494 37.0502 31.8482C36.5251 31.7131 36 31.6118 35.4748 31.5442C34.7026 31.4769 33.9306 31.4094 33.1582 31.3418C32.4169 31.2742 31.6448 31.2405 30.8416 31.2405C29.1428 31.2405 27.444 31.2911 25.7451 31.3924C24.0463 31.46 22.3474 31.6455 20.6486 31.9494C20.6178 31.9494 20.5869 31.9662 20.556 32C20.556 32 20.5251 32 20.4634 32Z" fill="black"/>
<path d="M19.9048 41.1875H5.15396C2.31036 41.1875 0.671368 40.2107 0.236984 38.2572C0.0789598 37.6781 0 37.0633 0 36.4121V18.8298C0 17.3103 0.454176 16.1344 1.36253 15.3023C2.31036 14.4341 3.73216 14 5.62782 14H19.9048V20.8919H15.8765V17.7444H4.73927V37.4974H15.8765V34.35H19.9048V41.1875Z" fill="black"/>
</svg>
