<svg width="288" height="456" viewBox="0 0 288 456" fill="none" xmlns="http://www.w3.org/2000/svg">
<path d="M0 25C0 11.1929 11.1929 0 25 0H262.489C276.296 0 287.489 11.1929 287.489 25V431C287.489 444.807 276.296 456 262.489 456H25C11.1929 456 0 444.807 0 431V25Z" fill="#FFA800"/>
<path d="M265.077 5H21.7929C13.6144 5 6.98438 22.1647 6.98438 43.3385V411.662C6.98438 432.835 13.6144 450 21.7929 450H265.077C273.255 450 279.885 432.835 279.885 411.662V43.3385C279.885 22.1647 273.255 5 265.077 5Z" fill="white"/>
<path d="M266.647 70.0678C266.647 70.0678 266.641 69.8488 266.639 69.4308C266.637 69.0088 266.634 68.3918 266.63 67.5858C266.624 65.9648 266.618 63.5868 266.609 60.5348C266.599 54.4338 266.584 45.6398 266.566 34.8428L266.647 34.9388C252.838 34.9468 234.823 34.9568 215.18 34.9668H215.176L215.282 34.8418C215.279 47.3088 215.277 59.2198 215.274 70.0658L215.176 69.9498C230.249 69.9728 243.103 69.9928 252.195 70.0058C256.744 70.0188 260.351 70.0298 262.826 70.0368C264.061 70.0428 265.012 70.0478 265.661 70.0508C265.98 70.0538 266.225 70.0558 266.394 70.0578C266.56 70.0628 266.647 70.0678 266.647 70.0678C266.647 70.0678 266.568 70.0728 266.406 70.0748C266.24 70.0768 266 70.0788 265.684 70.0818C265.04 70.0848 264.096 70.0898 262.869 70.0958C260.399 70.1028 256.8 70.1138 252.26 70.1268C243.152 70.1408 230.275 70.1598 215.176 70.1828H215.078V70.0668C215.075 59.2208 215.073 47.3098 215.07 34.8428V34.7178H215.176H215.18C234.823 34.7288 252.837 34.7388 266.647 34.7458H266.728V34.8418C266.711 45.6628 266.695 54.4768 266.685 60.5928C266.677 63.6358 266.669 66.0058 266.665 67.6218C266.661 68.4208 266.658 69.0318 266.656 69.4488C266.653 69.8618 266.647 70.0678 266.647 70.0678Z" fill="#E0E0E0"/>
<path d="M266.651 39.1084C266.651 39.1774 255.138 39.2324 240.94 39.2324C226.737 39.2324 215.227 39.1764 215.227 39.1084C215.227 39.0394 226.737 38.9834 240.94 38.9834C255.139 38.9834 266.651 39.0394 266.651 39.1084Z" fill="#E0E0E0"/>
<path d="M235.524 44.917H219.625V63.723H235.524V44.917Z" fill="#F5F5F5"/>
<path d="M262.903 48.0186C262.903 48.0276 262.822 48.0356 262.669 48.0436C262.493 48.0496 262.271 48.0576 261.999 48.0666C261.388 48.0766 260.553 48.0896 259.533 48.1066C257.425 48.1166 254.561 48.1286 251.398 48.1436C248.232 48.1296 245.369 48.1166 243.26 48.1066C242.241 48.0906 241.406 48.0766 240.794 48.0666C240.522 48.0576 240.301 48.0496 240.124 48.0436C239.971 48.0356 239.891 48.0266 239.891 48.0186C239.891 48.0096 239.971 48.0016 240.124 47.9936C240.301 47.9876 240.522 47.9796 240.794 47.9706C241.406 47.9606 242.241 47.9476 243.26 47.9306C245.369 47.9206 248.232 47.9086 251.398 47.8936C254.562 47.9076 257.425 47.9206 259.533 47.9306C260.553 47.9466 261.388 47.9606 261.999 47.9706C262.271 47.9796 262.493 47.9876 262.669 47.9936C262.822 48.0016 262.903 48.0096 262.903 48.0186Z" fill="#E0E0E0"/>
<path d="M263.418 52.2187C263.418 52.2277 263.336 52.2357 263.178 52.2437C262.998 52.2497 262.772 52.2577 262.493 52.2667C261.869 52.2767 261.015 52.2897 259.972 52.3067C257.818 52.3157 254.89 52.3287 251.655 52.3427C248.418 52.3287 245.491 52.3157 243.337 52.3067C242.293 52.2907 241.439 52.2767 240.816 52.2667C240.537 52.2577 240.31 52.2497 240.13 52.2437C239.973 52.2357 239.891 52.2267 239.891 52.2187C239.891 52.2107 239.973 52.2017 240.13 52.1937C240.31 52.1877 240.537 52.1797 240.816 52.1707C241.439 52.1607 242.293 52.1477 243.337 52.1307C245.491 52.1217 248.418 52.1087 251.655 52.0947C254.889 52.1087 257.818 52.1217 259.972 52.1307C261.015 52.1467 261.869 52.1607 262.493 52.1707C262.772 52.1797 262.998 52.1877 263.178 52.1937C263.336 52.2017 263.418 52.2107 263.418 52.2187Z" fill="#E0E0E0"/>
<path d="M263.418 56.4199C263.418 56.4289 263.336 56.4369 263.178 56.4449C262.998 56.4509 262.772 56.4589 262.493 56.4679C261.869 56.4779 261.015 56.4909 259.972 56.5079C257.818 56.5169 254.89 56.5299 251.655 56.5439C248.418 56.5299 245.491 56.5169 243.337 56.5079C242.293 56.4919 241.439 56.4779 240.816 56.4679C240.537 56.4589 240.31 56.4509 240.13 56.4449C239.973 56.4369 239.891 56.4289 239.891 56.4199C239.891 56.4109 239.973 56.4029 240.13 56.3949C240.31 56.3889 240.537 56.3809 240.816 56.3719C241.439 56.3619 242.293 56.3489 243.337 56.3329C245.491 56.3239 248.418 56.3109 251.655 56.2969C254.889 56.3109 257.818 56.3239 259.972 56.3329C261.015 56.3489 261.869 56.3629 262.493 56.3719C262.772 56.3819 262.998 56.3889 263.178 56.3949C263.336 56.4029 263.418 56.4119 263.418 56.4199Z" fill="#E0E0E0"/>
<path d="M263.418 60.6201C263.418 60.6291 263.336 60.6371 263.178 60.6451C262.998 60.6511 262.772 60.6591 262.493 60.6681C261.869 60.6781 261.015 60.6911 259.972 60.7081C257.818 60.7171 254.89 60.7301 251.655 60.7441C248.418 60.7301 245.491 60.7171 243.337 60.7081C242.293 60.6921 241.439 60.6781 240.816 60.6681C240.537 60.6581 240.31 60.6511 240.13 60.6451C239.973 60.6371 239.891 60.6281 239.891 60.6201C239.891 60.6111 239.973 60.6031 240.13 60.5951C240.31 60.5891 240.537 60.5811 240.816 60.5721C241.439 60.5621 242.293 60.5491 243.337 60.5321C245.491 60.5231 248.418 60.5101 251.655 60.4961C254.889 60.5101 257.818 60.5231 259.972 60.5321C261.015 60.5481 261.869 60.5621 262.493 60.5721C262.772 60.5811 262.998 60.5891 263.178 60.5951C263.336 60.6031 263.418 60.6111 263.418 60.6201Z" fill="#E0E0E0"/>
<path d="M146.248 90.3253C146.248 90.3253 146.428 90.3273 146.784 90.3443C147.139 90.3843 147.677 90.3343 148.371 90.4903C149.759 90.6833 151.87 91.2163 154.245 92.8903C155.444 93.6903 156.664 94.8413 157.818 96.3143C158.968 97.7903 160.035 99.6343 160.8 101.844C161.575 104.046 161.994 106.618 161.972 109.363C161.975 112.098 161.978 115.01 161.981 118.094C161.993 142.774 162.011 178.477 162.033 222.592C162.039 266.712 162.047 319.245 162.055 377.575C162.055 384.867 162.055 392.248 162.055 399.716C162.055 401.583 162.055 403.455 162.055 405.333C162.037 407.214 161.935 409.151 161.455 410.983C161.004 412.815 160.363 414.602 159.455 416.202C158.551 417.801 157.452 419.247 156.193 420.483C153.647 422.9 150.458 424.442 147.151 424.634C143.868 424.748 140.608 424.663 137.311 424.686C130.726 424.682 124.077 424.679 117.369 424.675C103.953 424.667 90.2997 424.659 76.4442 424.651C69.5161 424.647 62.538 424.642 55.5126 424.638C51.9999 424.636 48.4762 424.633 44.9407 424.631C41.3925 424.845 37.7108 423.737 34.7434 421.3C31.7624 418.88 29.5627 415.221 28.5363 411.16C27.9843 409.136 27.882 406.975 27.8828 404.894C27.8828 402.809 27.8837 400.728 27.8837 398.649C27.8854 390.337 27.8871 382.08 27.8888 373.882C27.893 357.488 27.8964 341.334 27.8997 325.461C27.9099 293.715 27.9192 263.094 27.9276 233.924C27.9395 204.754 27.9513 177.035 27.9615 151.093C27.9682 138.122 27.9741 125.596 27.9801 113.555C27.9809 112.05 27.9817 110.552 27.9826 109.063C27.991 108.317 28.0367 107.562 28.0705 106.816C28.1813 106.079 28.2294 105.329 28.3909 104.609C28.9641 101.709 30.0987 98.9953 31.6847 96.7613C33.2825 94.5393 35.2861 92.7783 37.4918 91.6273C39.6949 90.4513 42.1162 90.0363 44.4521 90.0703C49.1145 90.0763 53.6654 90.0823 58.1013 90.0883C60.3188 90.0913 62.5084 90.0943 64.6676 90.0973C65.7472 90.0993 66.82 90.1003 67.8844 90.1023C68.9598 90.0393 70.0816 90.3883 70.9659 91.1213C71.8511 91.8533 72.5317 92.9083 72.8817 94.0963C73.2832 95.2863 73.1877 96.5703 73.1995 97.7543C73.1987 98.3573 73.1987 98.9583 73.1978 99.5573C73.1995 100.159 73.1809 100.754 73.2469 101.322C73.3711 102.469 73.7812 103.567 74.4161 104.423C75.0383 105.292 75.8922 105.912 76.8095 106.181C77.2727 106.318 77.7335 106.356 78.2204 106.345C78.7032 106.346 79.1842 106.347 79.6627 106.347C81.5784 106.35 83.462 106.353 85.3143 106.356C92.7218 106.369 99.6153 106.381 105.961 106.392C109.134 106.398 112.17 106.404 115.064 106.41C115.782 106.395 116.513 106.449 117.196 106.378C117.884 106.285 118.542 106.004 119.112 105.581C120.262 104.735 121.042 103.33 121.307 101.849C121.451 101.108 121.425 100.352 121.43 99.6003C121.43 98.8513 121.432 98.1123 121.433 97.3853C121.441 96.6623 121.403 95.9353 121.515 95.2253C121.617 94.5203 121.82 93.8473 122.105 93.2413C122.67 92.0223 123.586 91.1013 124.605 90.6283C125.633 90.1003 126.727 90.2603 127.714 90.2363C131.728 90.2493 135.124 90.2593 137.871 90.2683C140.614 90.2813 142.706 90.2913 144.117 90.2983C145.527 90.3073 146.248 90.3253 146.248 90.3253C146.248 90.3253 145.527 90.3423 144.12 90.3503C142.709 90.3553 140.617 90.3623 137.875 90.3723C135.128 90.3773 131.731 90.3833 127.718 90.3903C126.719 90.4183 125.651 90.2663 124.661 90.7833C123.674 91.2463 122.786 92.1423 122.241 93.3283C121.966 93.9173 121.771 94.5713 121.673 95.2563C121.566 95.9383 121.604 96.6563 121.598 97.3853C121.599 98.1133 121.599 98.8513 121.599 99.6003C121.597 100.343 121.625 101.122 121.478 101.892C121.207 103.424 120.404 104.88 119.211 105.763C118.619 106.205 117.935 106.499 117.219 106.597C116.495 106.672 115.793 106.619 115.066 106.636C112.171 106.638 109.136 106.639 105.964 106.641C99.6179 106.643 92.7235 106.646 85.3168 106.648C83.4654 106.648 81.581 106.649 79.6653 106.649C79.1868 106.649 78.7057 106.649 78.223 106.649C77.7453 106.662 77.2313 106.622 76.7494 106.478C75.7789 106.196 74.8768 105.541 74.2199 104.627C73.5495 103.726 73.1167 102.571 72.9848 101.364C72.9146 100.755 72.9341 100.151 72.9315 99.5573C72.9315 98.9583 72.9315 98.3583 72.9307 97.7543C72.918 96.5453 73.0076 95.3263 72.6246 94.2063C72.2924 93.0803 71.6457 92.0833 70.8095 91.3933C69.965 90.7033 68.9403 90.3783 67.8869 90.4383C66.8217 90.4383 65.7497 90.4383 64.6693 90.4383C62.5101 90.4383 60.3205 90.4383 58.103 90.4383C53.6671 90.4383 49.1162 90.4383 44.4538 90.4383C42.1382 90.4083 39.7846 90.8173 37.6211 91.9733C35.462 93.1043 33.4998 94.8323 31.9366 97.0093C30.3853 99.1993 29.2769 101.857 28.7181 104.696C28.56 105.401 28.5144 106.136 28.4061 106.857C28.374 107.59 28.3301 108.32 28.3216 109.063C28.3216 110.553 28.3224 112.05 28.3224 113.556C28.3241 125.597 28.3267 138.123 28.3292 151.094C28.3309 177.036 28.3334 204.755 28.336 233.925C28.3351 263.095 28.3343 293.717 28.3334 325.462C28.3317 341.335 28.33 357.489 28.3284 373.883C28.3275 382.08 28.3258 390.337 28.325 398.65C28.325 400.728 28.3241 402.809 28.3241 404.894C28.325 406.97 28.4231 409.034 28.9599 411.012C29.9583 414.959 32.0964 418.518 34.9953 420.871C37.895 423.24 41.4247 424.317 44.9424 424.11C48.478 424.113 52.0016 424.115 55.5143 424.118C62.5397 424.123 69.5177 424.128 76.4459 424.134C90.3022 424.145 103.955 424.156 117.371 424.166C124.079 424.172 130.727 424.177 137.312 424.183C140.598 424.161 143.896 424.245 147.128 424.135C150.346 423.949 153.45 422.449 155.929 420.098C157.154 418.895 158.225 417.487 159.106 415.931C159.991 414.374 160.614 412.634 161.055 410.851C161.523 409.061 161.622 407.197 161.641 405.334C161.642 403.456 161.642 401.584 161.642 399.717C161.645 392.25 161.648 384.867 161.65 377.576C161.677 319.245 161.703 266.713 161.723 222.593C161.759 178.477 161.79 142.774 161.81 118.095C161.814 115.011 161.817 112.099 161.822 109.364C161.85 106.636 161.441 104.092 160.68 101.903C159.928 99.7093 158.875 97.8743 157.737 96.4033C156.597 94.9353 155.39 93.7833 154.201 92.9813C151.848 91.3033 149.749 90.7543 148.367 90.5443C147.675 90.3813 147.139 90.4213 146.785 90.3723C146.428 90.3453 146.248 90.3253 146.248 90.3253Z" fill="#E8505B"/>
<path d="M146.359 182.102C146.359 181.958 147.684 181.842 149.318 181.842C148.879 182.362 149.197 181.985 149.099 182.101V182.1V182.097V182.091V182.08V182.057V182.012V181.922L149.099 181.744L149.103 181.396C149.107 181.18 149.111 180.964 149.115 180.739C149.126 180.32 149.142 179.943 149.163 179.626C149.203 178.993 149.257 178.601 149.318 178.601C149.379 178.601 149.434 178.993 149.474 179.626C149.493 179.943 149.51 180.32 149.521 180.739C149.525 180.964 149.53 181.18 149.534 181.396L149.537 181.744L149.538 181.922V182.012V182.057V182.08V182.091V182.097V182.1V182.101C149.44 182.218 149.758 181.842 149.317 182.363C147.685 182.362 146.359 182.246 146.359 182.102Z" fill="#E8505B"/>
<path d="M134.945 182.102C134.945 181.958 136.224 181.842 137.799 181.842C139.376 181.842 140.654 181.959 140.654 182.102C140.654 182.246 139.376 182.362 137.799 182.362C136.223 182.362 134.945 182.246 134.945 182.102Z" fill="#E8505B"/>
<path d="M123.523 182.102C123.523 181.958 124.802 181.842 126.378 181.842C127.954 181.842 129.233 181.959 129.233 182.102C129.233 182.246 127.955 182.362 126.378 182.362C124.802 182.362 123.523 182.246 123.523 182.102Z" fill="#E8505B"/>
<path d="M112.094 182.102C112.094 181.958 113.372 181.842 114.948 181.842C116.525 181.842 117.803 181.959 117.803 182.102C117.803 182.246 116.525 182.362 114.948 182.362C113.372 182.362 112.094 182.246 112.094 182.102Z" fill="#E8505B"/>
<path d="M100.695 182.102C100.695 181.958 101.974 181.842 103.549 181.842C105.126 181.842 106.404 181.959 106.404 182.102C106.404 182.246 105.126 182.362 103.549 182.362C101.973 182.362 100.695 182.246 100.695 182.102Z" fill="#E8505B"/>
<path d="M89.2734 182.102C89.2734 181.958 90.5517 181.842 92.1275 181.842C93.7042 181.842 94.9825 181.959 94.9825 182.102C94.9825 182.246 93.7051 182.362 92.1275 182.362C90.5517 182.362 89.2734 182.246 89.2734 182.102Z" fill="#E8505B"/>
<path d="M77.8516 182.102C77.8516 181.958 79.1298 181.842 80.7057 181.842C82.2824 181.842 83.5606 181.959 83.5606 182.102C83.5606 182.246 82.2832 182.362 80.7057 182.362C79.1298 182.362 77.8516 182.246 77.8516 182.102Z" fill="#E8505B"/>
<path d="M66.4297 182.102C66.4297 181.958 67.708 181.842 69.2838 181.842C70.8605 181.842 72.1388 181.959 72.1388 182.102C72.1388 182.246 70.8605 182.362 69.2838 182.362C67.708 182.362 66.4297 182.246 66.4297 182.102Z" fill="#E8505B"/>
<path d="M55.0156 182.102C55.0156 181.958 56.2939 181.842 57.8697 181.842C59.4464 181.842 60.7238 181.959 60.7238 182.102C60.7238 182.246 59.4464 182.362 57.8697 182.362C56.2939 182.362 55.0156 182.246 55.0156 182.102Z" fill="#E8505B"/>
<path d="M46.3465 178.602C46.4682 178.602 46.5663 180.169 46.5663 182.102C46.1267 181.582 46.4454 181.958 46.3473 181.842H46.349H46.3516H46.3566H46.3659H46.3854H46.4234H46.4995L46.65 181.843L46.9442 181.847C47.1268 181.852 47.3094 181.857 47.4996 181.862C47.8539 181.875 48.1726 181.894 48.4397 181.918C48.9749 181.965 49.3063 182.03 49.3063 182.102C49.3063 182.174 48.9749 182.239 48.4397 182.286C48.1718 182.31 47.853 182.329 47.4996 182.342C47.3094 182.347 47.1268 182.352 46.9442 182.357L46.65 182.361L46.4995 182.362H46.4234H46.3845H46.3651H46.3558H46.3507H46.3482H46.3465C46.2484 182.246 46.5655 182.622 46.125 182.101C46.1267 180.169 46.2248 178.602 46.3465 178.602Z" fill="#E8505B"/>
<path d="M46.3448 164.903C46.4665 164.903 46.5646 166.436 46.5646 168.327C46.5646 170.219 46.4657 171.752 46.3448 171.752C46.2239 171.752 46.125 170.219 46.125 168.327C46.125 166.436 46.2231 164.903 46.3448 164.903Z" fill="#E8505B"/>
<path d="M46.3448 151.205C46.4665 151.205 46.5646 152.738 46.5646 154.629C46.5646 156.521 46.4657 158.054 46.3448 158.054C46.2239 158.054 46.125 156.521 46.125 154.629C46.125 152.738 46.2231 151.205 46.3448 151.205Z" fill="#E8505B"/>
<path d="M49.3086 140.857C49.3086 141.001 47.9839 141.117 46.3497 141.117C46.7893 140.597 46.4714 140.974 46.5695 140.858V140.859V140.862V140.868V140.879V140.902V140.947V141.037L46.5686 141.215L46.5653 141.563C46.561 141.779 46.5568 141.995 46.5526 142.22C46.5416 142.639 46.5255 143.016 46.5052 143.333C46.4655 143.966 46.4105 144.358 46.3497 144.358C46.2888 144.358 46.2339 143.966 46.1941 143.333C46.1738 143.016 46.1578 142.639 46.1468 142.22C46.1425 141.995 46.1383 141.779 46.1341 141.563L46.1307 141.215L46.1299 141.037V140.947V140.902V140.879V140.868V140.862V140.859V140.858C46.2279 140.741 45.9101 141.117 46.3497 140.596C47.9839 140.597 49.3086 140.713 49.3086 140.857Z" fill="#E8505B"/>
<path d="M60.7247 140.857C60.7247 141.001 59.4464 141.117 57.8706 141.117C56.2939 141.117 55.0156 141 55.0156 140.857C55.0156 140.713 56.293 140.597 57.8706 140.597C59.4464 140.597 60.7247 140.713 60.7247 140.857Z" fill="#E8505B"/>
<path d="M72.1388 140.857C72.1388 141.001 70.8605 141.117 69.2847 141.117C67.708 141.117 66.4297 141 66.4297 140.857C66.4297 140.713 67.7071 140.597 69.2847 140.597C70.8605 140.597 72.1388 140.713 72.1388 140.857Z" fill="#E8505B"/>
<path d="M83.5606 140.857C83.5606 141.001 82.2824 141.117 80.7065 141.117C79.1298 141.117 77.8516 141 77.8516 140.857C77.8516 140.713 79.1298 140.597 80.7065 140.597C82.2824 140.597 83.5606 140.713 83.5606 140.857Z" fill="#E8505B"/>
<path d="M94.9817 140.857C94.9817 141.001 93.7034 141.117 92.1276 141.117C90.5509 141.117 89.2734 141 89.2734 140.857C89.2734 140.713 90.5509 140.597 92.1276 140.597C93.7034 140.597 94.9817 140.713 94.9817 140.857Z" fill="#E8505B"/>
<path d="M106.404 140.857C106.404 141.001 105.126 141.117 103.55 141.117C101.974 141.117 100.695 141 100.695 140.857C100.695 140.713 101.974 140.597 103.55 140.597C105.126 140.597 106.404 140.713 106.404 140.857Z" fill="#E8505B"/>
<path d="M117.803 140.857C117.803 141.001 116.525 141.117 114.949 141.117C113.372 141.117 112.094 141 112.094 140.857C112.094 140.713 113.372 140.597 114.949 140.597C116.525 140.597 117.803 140.713 117.803 140.857Z" fill="#E8505B"/>
<path d="M129.232 140.857C129.232 141.001 127.953 141.117 126.378 141.117C124.801 141.117 123.523 141 123.523 140.857C123.523 140.713 124.801 140.597 126.378 140.597C127.953 140.597 129.232 140.713 129.232 140.857Z" fill="#E8505B"/>
<path d="M140.654 140.857C140.654 141.001 139.376 141.117 137.8 141.117C136.224 141.117 134.945 141 134.945 140.857C134.945 140.713 136.224 140.597 137.8 140.597C139.377 140.597 140.654 140.713 140.654 140.857Z" fill="#E8505B"/>
<path d="M149.311 144.357C149.19 144.357 149.092 142.79 149.092 140.857C149.531 141.377 149.212 141.001 149.311 141.117H149.307H149.302H149.293H149.273H149.235H149.159L149.009 141.116L148.715 141.111C148.532 141.106 148.349 141.101 148.159 141.096C147.805 141.083 147.486 141.064 147.218 141.04C146.683 140.993 146.352 140.929 146.352 140.857C146.352 140.785 146.683 140.72 147.218 140.673C147.486 140.65 147.805 140.63 148.159 140.617C148.349 140.612 148.532 140.607 148.715 140.602L149.009 140.598L149.159 140.596H149.235H149.273H149.293H149.302H149.307H149.31C149.409 140.712 149.092 140.337 149.532 140.857C149.532 142.79 149.433 144.357 149.311 144.357Z" fill="#E8505B"/>
<path d="M149.321 158.054C149.2 158.054 149.102 156.521 149.102 154.63C149.102 152.738 149.2 151.205 149.321 151.205C149.443 151.205 149.541 152.738 149.541 154.63C149.542 156.521 149.443 158.054 149.321 158.054Z" fill="#E8505B"/>
<path d="M149.321 171.752C149.2 171.752 149.102 170.219 149.102 168.328C149.102 166.436 149.2 164.903 149.321 164.903C149.443 164.903 149.541 166.436 149.541 168.328C149.542 170.219 149.443 171.752 149.321 171.752Z" fill="#E8505B"/>
<path d="M47.4861 139.783H45.6719V141.929H47.4861V139.783Z" fill="#E8505B"/>
<path d="M47.2518 181.028H45.4375V183.174H47.2518V181.028Z" fill="#E8505B"/>
<path d="M98.7362 181.028H96.9219V183.174H98.7362V181.028Z" fill="#E8505B"/>
<path d="M98.7362 139.331H96.9219V141.477H98.7362V139.331Z" fill="#E8505B"/>
<path d="M149.28 120.322C149.281 120.402 146.693 120.491 143.501 120.523C140.307 120.554 137.72 120.515 137.719 120.435C137.718 120.355 140.306 120.266 143.498 120.234C146.69 120.203 149.279 120.242 149.28 120.322Z" fill="#263238"/>
<path d="M149.319 123.821C149.32 123.901 146.732 123.991 143.54 124.022C140.346 124.053 137.759 124.014 137.758 123.934C137.757 123.854 140.344 123.765 143.537 123.733C146.73 123.702 149.319 123.741 149.319 123.821Z" fill="#263238"/>
<path d="M149.327 127.319C149.327 127.399 146.74 127.489 143.547 127.52C140.354 127.551 137.766 127.512 137.766 127.432C137.765 127.352 140.353 127.263 143.545 127.231C146.738 127.201 149.327 127.24 149.327 127.319Z" fill="#263238"/>
<path d="M113.954 242.766C113.954 242.899 105.962 243.006 96.107 243.006C86.2478 243.006 78.2578 242.899 78.2578 242.766C78.2578 242.633 86.2478 242.526 96.107 242.526C105.962 242.526 113.954 242.633 113.954 242.766Z" fill="#E0E0E0"/>
<path d="M142.416 251.432C142.416 251.565 128.053 251.672 110.339 251.672C92.618 251.672 78.2578 251.564 78.2578 251.432C78.2578 251.299 92.618 251.192 110.339 251.192C128.053 251.191 142.416 251.299 142.416 251.432Z" fill="#263238"/>
<path d="M141.662 257.621C141.662 257.754 127.468 257.861 109.962 257.861C92.4498 257.861 78.2578 257.753 78.2578 257.621C78.2578 257.488 92.4498 257.381 109.962 257.381C127.467 257.381 141.662 257.489 141.662 257.621Z" fill="#263238"/>
<path d="M115.693 263.524C115.693 263.657 107.312 263.764 96.9761 263.764C86.6367 263.764 78.2578 263.656 78.2578 263.524C78.2578 263.391 86.6367 263.284 96.9761 263.284C107.312 263.283 115.693 263.391 115.693 263.524Z" fill="#263238"/>
<path d="M113.954 336.963C113.954 337.096 105.962 337.203 96.107 337.203C86.2478 337.203 78.2578 337.095 78.2578 336.963C78.2578 336.83 86.2478 336.723 96.107 336.723C105.962 336.722 113.954 336.83 113.954 336.963Z" fill="#E0E0E0"/>
<path d="M142.416 345.628C142.416 345.761 128.053 345.868 110.339 345.868C92.618 345.868 78.2578 345.76 78.2578 345.628C78.2578 345.496 92.618 345.388 110.339 345.388C128.053 345.388 142.416 345.496 142.416 345.628Z" fill="#263238"/>
<path d="M141.662 351.816C141.662 351.949 127.468 352.056 109.962 352.056C92.4498 352.056 78.2578 351.948 78.2578 351.816C78.2578 351.683 92.4498 351.576 109.962 351.576C127.467 351.576 141.662 351.683 141.662 351.816Z" fill="#263238"/>
<path d="M115.693 357.719C115.693 357.852 107.312 357.96 96.9761 357.96C86.6367 357.96 78.2578 357.851 78.2578 357.719C78.2578 357.586 86.6367 357.479 96.9761 357.479C107.312 357.479 115.693 357.587 115.693 357.719Z" fill="#263238"/>
<path d="M114.04 200.15C114.04 200.283 106.048 200.39 96.1921 200.39C86.3329 200.39 78.3438 200.282 78.3438 200.15C78.3438 200.017 86.3338 199.91 96.1921 199.91C106.049 199.91 114.04 200.018 114.04 200.15Z" fill="#E8505B"/>
<path d="M142.502 208.816C142.502 208.949 128.139 209.056 110.425 209.056C92.7039 209.056 78.3438 208.948 78.3438 208.816C78.3438 208.683 92.7039 208.576 110.425 208.576C128.139 208.576 142.502 208.683 142.502 208.816Z" fill="#263238"/>
<path d="M141.747 215.006C141.747 215.139 127.553 215.246 110.047 215.246C92.5349 215.246 78.3438 215.138 78.3438 215.006C78.3438 214.873 92.5349 214.766 110.047 214.766C127.553 214.765 141.747 214.873 141.747 215.006Z" fill="#263238"/>
<path d="M115.779 220.908C115.779 221.041 107.398 221.148 97.062 221.148C86.7226 221.148 78.3438 221.04 78.3438 220.908C78.3438 220.775 86.7226 220.668 97.062 220.668C107.397 220.668 115.779 220.775 115.779 220.908Z" fill="#263238"/>
<path d="M62.9609 222.729C62.9609 222.585 64.2857 222.469 65.9199 222.469C67.5541 222.469 68.8788 222.586 68.8788 222.729C68.8788 222.873 67.5541 222.989 65.9199 222.989C64.2857 222.989 62.9609 222.872 62.9609 222.729Z" fill="#E8505B"/>
<path d="M51.125 222.729C51.125 222.585 52.4498 222.469 54.0839 222.469C55.7181 222.469 57.0429 222.586 57.0429 222.729C57.0429 222.873 55.7181 222.989 54.0839 222.989C52.4498 222.989 51.125 222.872 51.125 222.729Z" fill="#E8505B"/>
<path d="M48.9386 211.315C49.0603 211.315 49.1584 212.882 49.1584 214.815C49.1584 216.748 49.0595 218.315 48.9386 218.315C48.8177 218.315 48.7188 216.748 48.7188 214.815C48.7188 212.882 48.8177 211.315 48.9386 211.315Z" fill="#E8505B"/>
<path d="M50.4823 199.141C50.4823 199.24 49.8618 199.325 48.9386 199.37L49.1313 199.142C49.1482 199.633 49.1584 200.206 49.1584 200.816C49.1584 202.749 49.0595 204.316 48.9386 204.316C48.8177 204.316 48.7188 202.749 48.7188 200.816C48.7188 200.206 48.7289 199.633 48.7458 199.142L48.7543 198.905L48.9394 198.914C49.8618 198.958 50.4823 199.043 50.4823 199.141Z" fill="#E8505B"/>
<path d="M62.3163 199.141C62.3163 199.285 60.9916 199.401 59.3574 199.401C57.7232 199.401 56.3984 199.284 56.3984 199.141C56.3984 198.997 57.7232 198.881 59.3574 198.881C60.9916 198.881 62.3163 198.998 62.3163 199.141Z" fill="#E8505B"/>
<path d="M68.8856 205.381C68.7638 205.381 68.6657 203.814 68.6657 201.881C68.6657 200.765 68.6987 199.771 68.7494 199.142L68.8856 199.303C68.4789 199.259 68.2422 199.203 68.2422 199.142C68.2422 199.081 68.4789 199.025 68.8856 198.981L69.0073 198.968L69.0217 199.142C69.0724 199.771 69.1054 200.765 69.1054 201.881C69.1062 203.814 69.0073 205.381 68.8856 205.381Z" fill="#E8505B"/>
<path d="M68.8761 219.381C68.7543 219.381 68.6562 217.814 68.6562 215.881C68.6562 213.948 68.7552 212.381 68.8761 212.381C68.997 212.381 69.0959 213.948 69.0959 215.881C69.0967 217.814 68.9978 219.381 68.8761 219.381Z" fill="#E8505B"/>
<path d="M69.7707 221.58H67.5625V224.192H69.7707V221.58Z" fill="#E8505B"/>
<path d="M69.7707 197.195H67.5625V199.807H69.7707V197.195Z" fill="#E8505B"/>
<path d="M50.0442 221.58H47.8359V224.192H50.0442V221.58Z" fill="#E8505B"/>
<path d="M50.0442 197.835H47.8359V200.447H50.0442V197.835Z" fill="#E8505B"/>
<path d="M62.9609 266.156C62.9609 266.012 64.2857 265.896 65.9199 265.896C67.5541 265.896 68.8788 266.013 68.8788 266.156C68.8788 266.3 67.5541 266.416 65.9199 266.416C64.2857 266.416 62.9609 266.3 62.9609 266.156Z" fill="#E0E0E0"/>
<path d="M51.125 266.156C51.125 266.012 52.4498 265.896 54.0839 265.896C55.7181 265.896 57.0429 266.013 57.0429 266.156C57.0429 266.3 55.7181 266.416 54.0839 266.416C52.4498 266.416 51.125 266.3 51.125 266.156Z" fill="#E0E0E0"/>
<path d="M48.9386 254.742C49.0603 254.742 49.1584 256.309 49.1584 258.242C49.1584 260.175 49.0595 261.742 48.9386 261.742C48.8177 261.742 48.7188 260.175 48.7188 258.242C48.7188 256.309 48.8177 254.742 48.9386 254.742Z" fill="#E0E0E0"/>
<path d="M50.4823 242.569C50.4823 242.667 49.8618 242.753 48.9386 242.797L49.1313 242.569C49.1482 243.06 49.1584 243.633 49.1584 244.243C49.1584 246.176 49.0595 247.743 48.9386 247.743C48.8177 247.743 48.7188 246.176 48.7188 244.243C48.7188 243.633 48.7289 243.06 48.7458 242.569L48.7543 242.332L48.9394 242.341C49.8618 242.385 50.4823 242.471 50.4823 242.569Z" fill="#E0E0E0"/>
<path d="M62.3163 242.569C62.3163 242.713 60.9916 242.829 59.3574 242.829C57.7232 242.829 56.3984 242.712 56.3984 242.569C56.3984 242.425 57.7232 242.309 59.3574 242.309C60.9916 242.308 62.3163 242.425 62.3163 242.569Z" fill="#E0E0E0"/>
<path d="M68.8856 248.808C68.7638 248.808 68.6657 247.241 68.6657 245.308C68.6657 244.192 68.6987 243.198 68.7494 242.569L68.8856 242.73C68.4789 242.686 68.2422 242.63 68.2422 242.569C68.2422 242.508 68.4789 242.452 68.8856 242.408L69.0073 242.395L69.0217 242.569C69.0724 243.198 69.1054 244.192 69.1054 245.308C69.1062 247.241 69.0073 248.808 68.8856 248.808Z" fill="#E0E0E0"/>
<path d="M68.8761 262.808C68.7543 262.808 68.6562 261.241 68.6562 259.308C68.6562 257.375 68.7552 255.808 68.8761 255.808C68.997 255.808 69.0959 257.375 69.0959 259.308C69.0967 261.241 68.9978 262.808 68.8761 262.808Z" fill="#E0E0E0"/>
<path d="M69.7707 265.006H67.5625V267.618H69.7707V265.006Z" fill="#E0E0E0"/>
<path d="M69.7707 240.621H67.5625V243.233H69.7707V240.621Z" fill="#E0E0E0"/>
<path d="M50.0442 265.006H47.8359V267.618H50.0442V265.006Z" fill="#E0E0E0"/>
<path d="M50.0442 241.262H47.8359V243.874H50.0442V241.262Z" fill="#E0E0E0"/>
<path d="M63.0547 312.143C63.0547 311.999 64.3795 311.883 66.0136 311.883C67.6478 311.883 68.9726 312 68.9726 312.143C68.9726 312.287 67.6478 312.403 66.0136 312.403C64.3795 312.404 63.0547 312.287 63.0547 312.143Z" fill="#E8505B"/>
<path d="M51.2188 312.143C51.2188 311.999 52.5435 311.883 54.1777 311.883C55.8119 311.883 57.1366 312 57.1366 312.143C57.1366 312.287 55.8119 312.403 54.1777 312.403C52.5435 312.404 51.2188 312.287 51.2188 312.143Z" fill="#E8505B"/>
<path d="M49.0323 300.729C49.1541 300.729 49.2521 302.296 49.2521 304.229C49.2521 306.162 49.1532 307.729 49.0323 307.729C48.9106 307.729 48.8125 306.162 48.8125 304.229C48.8125 302.296 48.9106 300.729 49.0323 300.729Z" fill="#E8505B"/>
<path d="M50.576 288.556C50.576 288.654 49.9555 288.74 49.0323 288.784L49.2251 288.556C49.242 289.047 49.2521 289.62 49.2521 290.23C49.2521 292.163 49.1532 293.73 49.0323 293.73C48.9106 293.73 48.8125 292.163 48.8125 290.23C48.8125 289.62 48.8227 289.047 48.8396 288.556L48.848 288.319L49.0331 288.328C49.9555 288.372 50.576 288.458 50.576 288.556Z" fill="#E8505B"/>
<path d="M62.4257 288.556C62.4257 288.7 61.1009 288.816 59.4668 288.816C57.8326 288.816 56.5078 288.699 56.5078 288.556C56.5078 288.412 57.8326 288.296 59.4668 288.296C61.1009 288.296 62.4257 288.413 62.4257 288.556Z" fill="#E8505B"/>
<path d="M68.988 294.795C68.8662 294.795 68.7673 293.228 68.7673 291.295C68.7673 290.179 68.8003 289.185 68.851 288.556L68.9871 288.717C68.5805 288.673 68.3438 288.617 68.3438 288.556C68.3438 288.495 68.5805 288.439 68.9871 288.395L69.1088 288.382L69.1232 288.556C69.1739 289.185 69.2069 290.179 69.2069 291.295C69.2078 293.228 69.1097 294.795 68.988 294.795Z" fill="#E8505B"/>
<path d="M68.9785 308.795C68.8567 308.795 68.7578 307.228 68.7578 305.295C68.7578 303.362 68.8567 301.795 68.9785 301.795C69.1002 301.795 69.1983 303.362 69.1983 305.295C69.1983 307.228 69.1002 308.795 68.9785 308.795Z" fill="#E8505B"/>
<path d="M69.8801 310.994H67.6719V313.606H69.8801V310.994Z" fill="#E8505B"/>
<path d="M69.8801 286.61H67.6719V289.222H69.8801V286.61Z" fill="#E8505B"/>
<path d="M50.1535 310.994H47.9453V313.606H50.1535V310.994Z" fill="#E8505B"/>
<path d="M50.1535 287.25H47.9453V289.862H50.1535V287.25Z" fill="#E8505B"/>
<path d="M62.9609 358.009C62.9609 357.865 64.2857 357.749 65.9199 357.749C67.5541 357.749 68.8788 357.866 68.8788 358.009C68.8788 358.152 67.5541 358.269 65.9199 358.269C64.2857 358.269 62.9609 358.152 62.9609 358.009Z" fill="#E0E0E0"/>
<path d="M51.125 358.009C51.125 357.865 52.4498 357.749 54.0839 357.749C55.7181 357.749 57.0429 357.866 57.0429 358.009C57.0429 358.152 55.7181 358.269 54.0839 358.269C52.4498 358.269 51.125 358.152 51.125 358.009Z" fill="#E0E0E0"/>
<path d="M48.9386 346.595C49.0603 346.595 49.1584 348.162 49.1584 350.095C49.1584 352.028 49.0595 353.595 48.9386 353.595C48.8177 353.595 48.7188 352.028 48.7188 350.095C48.7188 348.162 48.8177 346.595 48.9386 346.595Z" fill="#E0E0E0"/>
<path d="M50.4823 334.423C50.4823 334.521 49.8618 334.607 48.9386 334.651L49.1313 334.423C49.1482 334.914 49.1584 335.487 49.1584 336.097C49.1584 338.03 49.0595 339.597 48.9386 339.597C48.8177 339.597 48.7188 338.03 48.7188 336.097C48.7188 335.487 48.7289 334.914 48.7458 334.423L48.7543 334.186L48.9394 334.195C49.8618 334.238 50.4823 334.324 50.4823 334.423Z" fill="#E0E0E0"/>
<path d="M62.3163 334.422C62.3163 334.566 60.9916 334.682 59.3574 334.682C57.7232 334.682 56.3984 334.565 56.3984 334.422C56.3984 334.279 57.7232 334.162 59.3574 334.162C60.9916 334.161 62.3163 334.278 62.3163 334.422Z" fill="#E0E0E0"/>
<path d="M68.8856 340.661C68.7638 340.661 68.6657 339.094 68.6657 337.161C68.6657 336.045 68.6987 335.051 68.7494 334.422L68.8856 334.583C68.4789 334.539 68.2422 334.483 68.2422 334.422C68.2422 334.361 68.4789 334.305 68.8856 334.261L69.0073 334.248L69.0217 334.422C69.0724 335.051 69.1054 336.045 69.1054 337.161C69.1062 339.093 69.0073 340.661 68.8856 340.661Z" fill="#E0E0E0"/>
<path d="M68.8761 354.661C68.7543 354.661 68.6562 353.094 68.6562 351.161C68.6562 349.227 68.7552 347.661 68.8761 347.661C68.997 347.661 69.0959 349.228 69.0959 351.161C69.0967 353.093 68.9978 354.661 68.8761 354.661Z" fill="#E0E0E0"/>
<path d="M69.7707 356.859H67.5625V359.471H69.7707V356.859Z" fill="#E0E0E0"/>
<path d="M69.7707 332.475H67.5625V335.087H69.7707V332.475Z" fill="#E0E0E0"/>
<path d="M50.0442 356.859H47.8359V359.471H50.0442V356.859Z" fill="#E0E0E0"/>
<path d="M50.0442 333.114H47.8359V335.726H50.0442V333.114Z" fill="#E0E0E0"/>
<path d="M62.9609 405.467C62.9609 405.323 64.2857 405.207 65.9199 405.207C67.5541 405.207 68.8788 405.324 68.8788 405.467C68.8788 405.61 67.5541 405.727 65.9199 405.727C64.2857 405.727 62.9609 405.611 62.9609 405.467Z" fill="#E8505B"/>
<path d="M51.125 405.467C51.125 405.323 52.4498 405.207 54.0839 405.207C55.7181 405.207 57.0429 405.324 57.0429 405.467C57.0429 405.61 55.7181 405.727 54.0839 405.727C52.4498 405.727 51.125 405.611 51.125 405.467Z" fill="#E8505B"/>
<path d="M48.9386 394.054C49.0603 394.054 49.1584 395.621 49.1584 397.554C49.1584 399.487 49.0595 401.054 48.9386 401.054C48.8177 401.054 48.7188 399.487 48.7188 397.554C48.7188 395.621 48.8177 394.054 48.9386 394.054Z" fill="#E8505B"/>
<path d="M50.4823 381.881C50.4823 381.98 49.8618 382.065 48.9386 382.109L49.1313 381.881C49.1482 382.371 49.1584 382.945 49.1584 383.555C49.1584 385.488 49.0595 387.055 48.9386 387.055C48.8177 387.055 48.7188 385.488 48.7188 383.555C48.7188 382.945 48.7289 382.372 48.7458 381.881L48.7543 381.644L48.9394 381.653C49.8618 381.697 50.4823 381.782 50.4823 381.881Z" fill="#E8505B"/>
<path d="M62.3163 381.88C62.3163 382.024 60.9916 382.14 59.3574 382.14C57.7232 382.14 56.3984 382.023 56.3984 381.88C56.3984 381.736 57.7232 381.62 59.3574 381.62C60.9916 381.619 62.3163 381.736 62.3163 381.88Z" fill="#E8505B"/>
<path d="M68.8856 388.119C68.7638 388.119 68.6657 386.552 68.6657 384.619C68.6657 383.503 68.6987 382.509 68.7494 381.88L68.8856 382.041C68.4789 381.997 68.2422 381.941 68.2422 381.88C68.2422 381.819 68.4789 381.763 68.8856 381.719L69.0073 381.706L69.0217 381.88C69.0724 382.509 69.1054 383.503 69.1054 384.619C69.1062 386.552 69.0073 388.119 68.8856 388.119Z" fill="#E8505B"/>
<path d="M68.8761 402.119C68.7543 402.119 68.6562 400.552 68.6562 398.619C68.6562 396.686 68.7552 395.119 68.8761 395.119C68.997 395.119 69.0959 396.686 69.0959 398.619C69.0967 400.552 68.9978 402.119 68.8761 402.119Z" fill="#E8505B"/>
<path d="M69.7707 404.318H67.5625V406.93H69.7707V404.318Z" fill="#E8505B"/>
<path d="M69.7707 379.934H67.5625V382.546H69.7707V379.934Z" fill="#E8505B"/>
<path d="M50.0442 404.318H47.8359V406.93H50.0442V404.318Z" fill="#E8505B"/>
<path d="M50.0442 380.573H47.8359V383.185H50.0442V380.573Z" fill="#E8505B"/>
<path d="M113.219 287.762C113.219 287.895 105.228 288.002 95.3718 288.002C85.5126 288.002 77.5234 287.894 77.5234 287.762C77.5234 287.629 85.5134 287.522 95.3718 287.522C105.228 287.521 113.219 287.629 113.219 287.762Z" fill="#E8505B"/>
<path d="M141.682 296.427C141.682 296.56 127.318 296.667 109.604 296.667C91.8836 296.667 77.5234 296.559 77.5234 296.427C77.5234 296.294 91.8836 296.188 109.604 296.188C127.317 296.188 141.682 296.294 141.682 296.427Z" fill="#263238"/>
<path d="M140.928 302.617C140.928 302.75 126.733 302.857 109.227 302.857C91.7154 302.857 77.5234 302.749 77.5234 302.617C77.5234 302.484 91.7154 302.377 109.227 302.377C126.733 302.376 140.928 302.484 140.928 302.617Z" fill="#263238"/>
<path d="M114.958 308.519C114.958 308.652 106.578 308.76 96.2417 308.76C85.9023 308.76 77.5234 308.652 77.5234 308.519C77.5234 308.386 85.9023 308.279 96.2417 308.279C106.578 308.279 114.958 308.387 114.958 308.519Z" fill="#263238"/>
<path d="M113.219 383.932C113.219 384.065 105.228 384.172 95.3718 384.172C85.5126 384.172 77.5234 384.064 77.5234 383.932C77.5234 383.799 85.5134 383.692 95.3718 383.692C105.228 383.692 113.219 383.8 113.219 383.932Z" fill="#E8505B"/>
<path d="M141.682 392.598C141.682 392.731 127.318 392.839 109.604 392.839C91.8836 392.839 77.5234 392.731 77.5234 392.598C77.5234 392.465 91.8836 392.358 109.604 392.358C127.317 392.358 141.682 392.465 141.682 392.598Z" fill="#263238"/>
<path d="M140.928 398.788C140.928 398.921 126.733 399.028 109.227 399.028C91.7154 399.028 77.5234 398.92 77.5234 398.788C77.5234 398.656 91.7154 398.548 109.227 398.548C126.733 398.548 140.928 398.655 140.928 398.788Z" fill="#263238"/>
<path d="M114.958 404.69C114.958 404.823 106.578 404.93 96.2417 404.93C85.9023 404.93 77.5234 404.822 77.5234 404.69C77.5234 404.557 85.9023 404.45 96.2417 404.45C106.578 404.45 114.958 404.558 114.958 404.69Z" fill="#263238"/>
<path d="M46.7138 126.862C46.7181 126.857 46.7975 126.851 46.9472 126.844C47.1306 126.837 47.3437 126.828 47.5956 126.819C48.2077 126.802 49.0074 126.779 49.9898 126.752L49.9239 126.832C49.9154 126.204 49.9061 125.518 49.896 124.779C49.8994 124.397 49.8681 124.037 49.8994 123.597C49.9636 123.157 50.295 122.769 50.7025 122.724C51.0889 122.715 51.4279 122.694 51.8464 122.717C52.2775 122.779 52.6444 123.27 52.6317 123.811C52.641 124.769 52.6503 125.769 52.6605 126.806L52.5497 126.677C53.5194 126.665 54.5288 126.653 55.5695 126.641L55.4546 126.779C55.4436 125.34 55.4326 123.853 55.4208 122.328C55.4182 121.948 55.4148 121.57 55.4123 121.195C55.4106 120.845 55.2314 120.612 54.9879 120.351C54.5407 119.83 54.1011 119.316 53.6674 118.812C53.2354 118.307 52.8101 117.811 52.3933 117.325C52.1854 117.082 51.9799 116.842 51.7762 116.604C51.564 116.362 51.3974 116.112 51.1514 116.053C50.913 115.977 50.6501 116.037 50.4582 116.21C50.2756 116.393 50.0803 116.652 49.896 116.864C49.524 117.308 49.163 117.739 48.8121 118.157C48.1307 118.995 47.4206 119.76 46.9049 120.483C46.6876 120.882 46.7688 121.371 46.7527 121.816C46.7519 122.259 46.751 122.678 46.7502 123.075C46.746 123.847 46.7426 124.523 46.7392 125.102C46.7341 125.62 46.7299 126.048 46.7274 126.399C46.724 126.694 46.7189 126.856 46.7138 126.862C46.7079 126.869 46.7012 126.721 46.6927 126.432C46.6843 126.087 46.6749 125.666 46.6623 125.156C46.6513 124.572 46.6378 123.89 46.6234 123.112C46.6175 122.708 46.6107 122.28 46.6031 121.829C46.5997 121.601 46.5972 121.367 46.5938 121.127C46.5921 120.873 46.647 120.611 46.7603 120.379C47.3191 119.569 47.9854 118.852 48.6727 117.991C49.0201 117.57 49.3786 117.135 49.748 116.688C49.9416 116.463 50.1006 116.239 50.3305 116.005C50.5723 115.786 50.9037 115.707 51.2064 115.801C51.5276 115.885 51.7364 116.197 51.9317 116.414C52.1363 116.651 52.3426 116.89 52.5514 117.132C52.9691 117.616 53.3952 118.111 53.8288 118.614C54.2625 119.118 54.7039 119.63 55.1519 120.15C55.2576 120.283 55.3852 120.395 55.4892 120.582C55.5873 120.76 55.6431 120.971 55.6473 121.184C55.6499 121.561 55.6532 121.941 55.6558 122.323C55.6659 123.847 55.6752 125.335 55.6845 126.774L55.6854 126.911L55.5695 126.912C54.5288 126.92 53.5194 126.928 52.5497 126.935L52.439 126.936L52.4381 126.806C52.4339 125.769 52.4288 124.768 52.4246 123.811C52.4373 123.38 52.1532 122.999 51.8142 122.944C51.4667 122.922 51.0576 122.936 50.7186 122.94C50.3939 122.972 50.1234 123.28 50.0676 123.634C50.0389 123.993 50.0608 124.412 50.0549 124.775C50.0549 125.515 50.0549 126.201 50.0558 126.828V126.908L49.989 126.907C48.9905 126.899 48.1772 126.892 47.555 126.887C47.309 126.882 47.101 126.878 46.921 126.874C46.7806 126.872 46.7088 126.868 46.7138 126.862Z" fill="#E8505B"/>
<path d="M47.8886 157.189C47.8886 158.061 47.2908 158.768 46.5536 158.768C45.8164 158.768 45.2188 158.061 45.2188 157.189C45.2188 156.317 45.8164 155.61 46.5536 155.61C47.2908 155.61 47.8886 156.317 47.8886 157.189Z" fill="#E8505B"/>
<path d="M72.2248 170.066C72.1843 170.068 72.1834 169.709 72.0355 169.111C71.8892 168.524 71.5401 167.672 70.7902 167.023C70.0648 166.372 68.8829 166.015 67.745 166.523C66.6164 166.989 65.6467 168.41 65.6594 170.066C65.6467 171.723 66.6172 173.143 67.745 173.61C68.8829 174.118 70.0648 173.761 70.7902 173.11C71.5401 172.461 71.8884 171.609 72.0355 171.022C72.1843 170.424 72.1843 170.065 72.2248 170.066C72.2443 170.064 72.3043 170.425 72.202 171.07C72.0997 171.701 71.7759 172.65 70.9795 173.402C70.2111 174.155 68.8998 174.607 67.6072 174.06C66.3264 173.563 65.2037 171.954 65.2189 170.065C65.2037 168.177 66.3264 166.568 67.6072 166.071C68.8998 165.525 70.2102 165.977 70.9787 166.729C71.7751 167.481 72.0989 168.429 72.2012 169.061C72.3052 169.707 72.2443 170.069 72.2248 170.066Z" fill="#E8505B"/>
<path d="M250.069 424.662L150.747 424.592C138.802 424.585 129.122 413.126 129.125 398.996L129.174 104.464C129.177 90.326 138.869 78.869 150.822 78.877L250.143 78.946C262.089 78.954 271.768 90.413 271.766 104.542L271.717 399.074C271.714 413.214 262.021 424.671 250.069 424.662Z" fill="#263238"/>
<path d="M250.034 89.3649L230.778 89.3519C228.196 89.3499 226.101 91.9379 226.101 95.1309L226.099 99.2629C226.099 102.456 224.005 105.044 221.423 105.042L183.887 105.016C181.306 105.015 179.212 102.424 179.212 99.2309L179.213 95.0989C179.213 91.9059 177.12 89.3149 174.538 89.3139L167.765 89.3089L150.911 89.2979C142.541 89.2929 135.752 97.3159 135.75 107.217L135.703 394.701C135.701 404.598 142.48 412.622 150.846 412.628L249.969 412.696C258.339 412.702 265.128 404.678 265.13 394.777L265.177 107.292C265.179 97.3949 258.401 89.3709 250.034 89.3649Z" fill="white"/>
<path d="M252.976 118.393C252.977 118.47 250.473 118.557 247.384 118.587C244.294 118.617 241.79 118.579 241.789 118.502C241.788 118.425 244.292 118.338 247.382 118.308C250.471 118.279 252.976 118.316 252.976 118.393Z" fill="#263238"/>
<path d="M252.992 121.779C252.993 121.856 250.489 121.943 247.4 121.973C244.31 122.003 241.806 121.965 241.805 121.888C241.804 121.811 244.308 121.724 247.398 121.694C250.486 121.664 252.991 121.702 252.992 121.779Z" fill="#263238"/>
<path d="M253.023 125.165C253.024 125.242 250.519 125.329 247.431 125.359C244.341 125.389 241.837 125.351 241.836 125.274C241.835 125.197 244.339 125.11 247.429 125.08C250.517 125.05 253.022 125.088 253.023 125.165Z" fill="#263238"/>
<path d="M151.214 129.029C151.218 129.024 151.298 129.018 151.446 129.011C151.63 129.004 151.842 128.995 152.093 128.986C152.703 128.969 153.502 128.946 154.481 128.919L154.415 128.998C154.407 128.372 154.398 127.687 154.388 126.949C154.391 126.568 154.36 126.209 154.391 125.769C154.455 125.33 154.786 124.943 155.192 124.898C155.578 124.889 155.916 124.868 156.334 124.891C156.764 124.953 157.13 125.443 157.117 125.982C157.127 126.937 157.136 127.936 157.146 128.97L157.035 128.841C158.003 128.829 159.01 128.817 160.048 128.805L159.933 128.943C159.922 127.508 159.911 126.023 159.9 124.502C159.898 124.123 159.895 123.746 159.892 123.371C159.89 123.022 159.711 122.789 159.468 122.529C159.023 122.009 158.583 121.497 158.151 120.993C157.72 120.489 157.296 119.995 156.881 119.51C156.674 119.268 156.468 119.028 156.265 118.791C156.054 118.55 155.887 118.3 155.642 118.241C155.405 118.165 155.142 118.225 154.951 118.397C154.768 118.579 154.574 118.838 154.389 119.049C154.018 119.492 153.658 119.922 153.308 120.339C152.628 121.175 151.92 121.938 151.404 122.66C151.187 123.058 151.268 123.546 151.253 123.99C151.252 124.432 151.251 124.851 151.25 125.246C151.246 126.016 151.243 126.691 151.24 127.269C151.235 127.786 151.231 128.213 151.228 128.563C151.224 128.862 151.22 129.023 151.214 129.029C151.208 129.036 151.201 128.889 151.193 128.6C151.184 128.255 151.175 127.835 151.162 127.326C151.151 126.743 151.138 126.063 151.123 125.286C151.117 124.883 151.111 124.456 151.103 124.005C151.101 123.777 151.097 123.543 151.094 123.304C151.092 123.051 151.147 122.79 151.26 122.558C151.817 121.75 152.483 121.035 153.168 120.175C153.515 119.755 153.873 119.321 154.241 118.875C154.435 118.651 154.593 118.427 154.823 118.193C155.064 117.974 155.395 117.895 155.697 117.99C156.017 118.074 156.226 118.385 156.421 118.602C156.625 118.838 156.831 119.077 157.04 119.318C157.456 119.801 157.882 120.295 158.314 120.796C158.747 121.299 159.188 121.81 159.634 122.329C159.74 122.462 159.867 122.574 159.971 122.76C160.068 122.938 160.124 123.148 160.129 123.361C160.131 123.737 160.135 124.117 160.137 124.498C160.147 126.019 160.157 127.504 160.166 128.939L160.167 129.076L160.051 129.077C159.013 129.085 158.005 129.093 157.038 129.1L156.927 129.101L156.926 128.971C156.922 127.936 156.917 126.938 156.913 125.983C156.925 125.552 156.642 125.172 156.304 125.118C155.957 125.096 155.548 125.11 155.211 125.114C154.887 125.146 154.617 125.453 154.561 125.807C154.532 126.165 154.554 126.583 154.548 126.946C154.548 127.684 154.549 128.369 154.549 128.995V129.075H154.483C153.487 129.067 152.675 129.06 152.054 129.055C151.808 129.05 151.601 129.046 151.422 129.042C151.281 129.039 151.21 129.035 151.214 129.029Z" fill="#263238"/>
<path d="M244.284 169.659H154.831C150.355 169.659 146.727 165.367 146.727 160.073V156.512C146.727 151.218 150.355 146.926 154.831 146.926H244.284C248.76 146.926 252.388 151.218 252.388 156.512V160.073C252.388 165.367 248.76 169.659 244.284 169.659Z" fill="#F5F5F5"/>
<path d="M244.273 169.658C244.273 169.658 244.479 169.63 244.879 169.598C245.279 169.563 245.872 169.455 246.623 169.197C247.363 168.909 248.262 168.444 249.165 167.615C250.07 166.8 250.966 165.6 251.574 164.001C251.869 163.203 252.12 162.317 252.21 161.352C252.318 160.395 252.281 159.364 252.283 158.29C252.269 157.216 252.327 156.09 252.158 154.959C251.997 153.826 251.652 152.682 251.109 151.627C250.035 149.521 248.119 147.753 245.777 147.244C244.617 146.983 243.371 147.104 242.103 147.079C240.834 147.082 239.532 147.084 238.199 147.087C216.852 147.105 187.378 147.129 154.825 147.155C152.834 147.153 150.876 148.073 149.444 149.662C148.001 151.237 147.099 153.45 146.944 155.732C146.877 156.864 146.925 158.061 146.91 159.216C146.886 160.39 146.938 161.505 147.209 162.598C147.72 164.77 148.917 166.676 150.482 167.894C151.262 168.51 152.137 168.945 153.042 169.185C153.949 169.439 154.872 169.439 155.822 169.432C157.706 169.433 159.572 169.434 161.419 169.435C165.111 169.438 168.726 169.44 172.254 169.443C186.36 169.462 199.063 169.479 209.737 169.493C220.399 169.524 229.029 169.55 235.006 169.567C237.981 169.586 240.294 169.601 241.876 169.611C242.653 169.621 243.249 169.629 243.662 169.634C244.066 169.642 244.273 169.658 244.273 169.658C244.273 169.658 244.066 169.674 243.664 169.682C243.25 169.687 242.654 169.695 241.878 169.705C240.296 169.715 237.983 169.73 235.008 169.749C229.03 169.767 220.4 169.792 209.738 169.823C199.066 169.837 186.362 169.854 172.255 169.873C168.728 169.875 165.113 169.878 161.42 169.881C159.574 169.882 157.708 169.883 155.824 169.884C154.893 169.892 153.907 169.894 152.958 169.628C152.008 169.377 151.09 168.921 150.273 168.276C148.63 167.001 147.375 165.003 146.836 162.723C146.551 161.595 146.496 160.366 146.521 159.217C146.536 158.045 146.486 156.903 146.555 155.695C146.717 153.3 147.664 150.976 149.178 149.323C150.679 147.656 152.738 146.689 154.826 146.691C187.379 146.718 216.852 146.742 238.2 146.759C239.534 146.762 240.835 146.764 242.104 146.767C243.367 146.799 244.614 146.679 245.825 146.954C248.239 147.491 250.204 149.322 251.298 151.492C251.853 152.58 252.201 153.757 252.36 154.92C252.527 156.091 252.461 157.222 252.471 158.29C252.463 159.36 252.495 160.394 252.379 161.379C252.281 162.364 252.019 163.265 251.714 164.076C251.082 165.699 250.162 166.909 249.236 167.724C248.312 168.553 247.397 169.01 246.646 169.285C245.884 169.531 245.285 169.624 244.882 169.644C244.478 169.662 244.273 169.658 244.273 169.658Z" fill="#263238"/>
<path d="M245.918 157.75C245.88 157.752 245.884 157.383 245.734 156.767C245.587 156.162 245.23 155.281 244.458 154.608C243.71 153.933 242.489 153.561 241.312 154.084C240.144 154.565 239.138 156.035 239.151 157.749C239.138 159.464 240.144 160.935 241.312 161.416C242.49 161.939 243.711 161.567 244.459 160.892C245.231 160.219 245.587 159.338 245.734 158.733C245.883 158.116 245.88 157.748 245.918 157.75C245.931 157.75 245.941 157.84 245.947 158.015C245.955 158.189 245.941 158.45 245.883 158.777C245.776 159.422 245.441 160.389 244.627 161.153C243.841 161.919 242.505 162.376 241.189 161.818C239.884 161.31 238.743 159.671 238.758 157.748C238.743 155.826 239.884 154.188 241.189 153.68C242.505 153.122 243.841 153.58 244.627 154.345C245.441 155.11 245.775 156.076 245.883 156.721C245.941 157.048 245.954 157.309 245.947 157.483C245.941 157.659 245.931 157.75 245.918 157.75Z" fill="#263238"/>
<path d="M247.843 164.85C247.764 164.937 247.001 164.114 246.14 163.012C245.279 161.909 244.645 160.945 244.726 160.858C244.805 160.771 245.568 161.594 246.429 162.697C247.29 163.799 247.923 164.763 247.843 164.85Z" fill="#263238"/>
<path d="M160.994 156.018H159.109V155.438H163.446V156.018H161.561V161.782H160.994V156.018Z" fill="#E0E0E0"/>
<path d="M167.33 159.598H163.958C164.02 160.595 164.664 161.257 165.544 161.257C166.035 161.257 166.472 161.048 166.778 160.632L167.085 161.049C166.725 161.556 166.165 161.828 165.529 161.828C164.272 161.828 163.414 160.813 163.414 159.399C163.414 157.985 164.249 156.979 165.383 156.979C166.517 156.979 167.337 157.967 167.337 159.399C167.338 159.453 167.33 159.525 167.33 159.598ZM163.958 159.118H166.817C166.748 158.185 166.173 157.532 165.384 157.532C164.602 157.532 164.027 158.184 163.958 159.118Z" fill="#E0E0E0"/>
<path d="M170.898 161.782L169.619 159.788L168.332 161.782H167.719L169.312 159.335L167.796 157.015H168.409L169.619 158.882L170.83 157.015H171.428L169.91 159.335L171.519 161.782H170.898Z" fill="#E0E0E0"/>
<path d="M174.54 161.492C174.325 161.719 174.004 161.827 173.69 161.827C172.931 161.827 172.509 161.319 172.509 160.44V157.558H171.789V157.014H172.509V155.972H173.053V157.014H174.279V157.558H173.053V160.404C173.053 160.966 173.298 161.274 173.75 161.274C173.973 161.274 174.195 161.192 174.348 161.029L174.54 161.492Z" fill="#E0E0E0"/>
<path d="M174.308 188.365H151.18V215.722H174.308V188.365Z" fill="#E8505B"/>
<path d="M218.786 191.308C218.786 191.437 211.052 191.541 201.515 191.541C191.974 191.541 184.242 191.437 184.242 191.308C184.242 191.18 191.974 191.075 201.515 191.075C211.052 191.075 218.786 191.179 218.786 191.308Z" fill="#E8505B"/>
<path d="M246.33 199.693C246.33 199.822 232.43 199.926 215.287 199.926C198.139 199.926 184.242 199.822 184.242 199.693C184.242 199.565 198.139 199.461 215.287 199.461C232.431 199.461 246.33 199.565 246.33 199.693Z" fill="#263238"/>
<path d="M245.6 205.682C245.6 205.811 231.864 205.915 214.922 205.915C197.976 205.915 184.242 205.811 184.242 205.682C184.242 205.554 197.976 205.449 214.922 205.449C231.864 205.45 245.6 205.554 245.6 205.682Z" fill="#263238"/>
<path d="M220.469 211.395C220.469 211.523 212.359 211.628 202.357 211.628C192.351 211.628 184.242 211.524 184.242 211.395C184.242 211.267 192.351 211.163 202.357 211.163C212.358 211.163 220.469 211.267 220.469 211.395Z" fill="#263238"/>
<path d="M174.308 233.942H151.18V261.299H174.308V233.942Z" fill="#E8505B"/>
<path d="M218.786 236.885C218.786 237.013 211.052 237.118 201.515 237.118C191.974 237.118 184.242 237.014 184.242 236.885C184.242 236.757 191.974 236.652 201.515 236.652C211.052 236.653 218.786 236.757 218.786 236.885Z" fill="#E8505B"/>
<path d="M246.33 245.271C246.33 245.399 232.43 245.504 215.287 245.504C198.139 245.504 184.242 245.4 184.242 245.271C184.242 245.143 198.139 245.038 215.287 245.038C232.431 245.039 246.33 245.143 246.33 245.271Z" fill="#263238"/>
<path d="M245.6 251.26C245.6 251.389 231.864 251.493 214.922 251.493C197.976 251.493 184.242 251.389 184.242 251.26C184.242 251.132 197.976 251.027 214.922 251.027C231.864 251.028 245.6 251.132 245.6 251.26Z" fill="#263238"/>
<path d="M220.469 256.973C220.469 257.102 212.359 257.206 202.357 257.206C192.351 257.206 184.242 257.102 184.242 256.973C184.242 256.845 192.351 256.74 202.357 256.74C212.358 256.74 220.469 256.845 220.469 256.973Z" fill="#263238"/>
<path d="M174.308 279.52H151.18V306.877H174.308V279.52Z" fill="#E8505B"/>
<path d="M218.786 282.463C218.786 282.592 211.052 282.696 201.515 282.696C191.974 282.696 184.242 282.592 184.242 282.463C184.242 282.335 191.974 282.23 201.515 282.23C211.052 282.229 218.786 282.335 218.786 282.463Z" fill="#E8505B"/>
<path d="M246.33 290.848C246.33 290.977 232.43 291.081 215.287 291.081C198.139 291.081 184.242 290.977 184.242 290.848C184.242 290.72 198.139 290.616 215.287 290.616C232.431 290.615 246.33 290.719 246.33 290.848Z" fill="#263238"/>
<path d="M245.6 296.837C245.6 296.965 231.864 297.07 214.922 297.07C197.976 297.07 184.242 296.966 184.242 296.837C184.242 296.709 197.976 296.604 214.922 296.604C231.864 296.604 245.6 296.708 245.6 296.837Z" fill="#263238"/>
<path d="M220.469 302.55C220.469 302.679 212.359 302.783 202.357 302.783C192.351 302.783 184.242 302.679 184.242 302.55C184.242 302.422 192.351 302.318 202.357 302.318C212.358 302.317 220.469 302.421 220.469 302.55Z" fill="#263238"/>
<path d="M174.308 325.097H151.18V352.454H174.308V325.097Z" fill="#E8505B"/>
<path d="M218.786 328.04C218.786 328.169 211.052 328.273 201.515 328.273C191.974 328.273 184.242 328.169 184.242 328.04C184.242 327.912 191.974 327.807 201.515 327.807C211.052 327.808 218.786 327.912 218.786 328.04Z" fill="#455A64"/>
<path d="M246.33 336.425C246.33 336.553 232.43 336.658 215.287 336.658C198.139 336.658 184.242 336.554 184.242 336.425C184.242 336.297 198.139 336.193 215.287 336.193C232.431 336.193 246.33 336.297 246.33 336.425Z" fill="#263238"/>
<path d="M245.6 342.415C245.6 342.543 231.864 342.648 214.922 342.648C197.976 342.648 184.242 342.544 184.242 342.415C184.242 342.287 197.976 342.182 214.922 342.182C231.864 342.183 245.6 342.287 245.6 342.415Z" fill="#263238"/>
<path d="M220.469 348.128C220.469 348.257 212.359 348.361 202.357 348.361C192.351 348.361 184.242 348.257 184.242 348.128C184.242 348 192.351 347.895 202.357 347.895C212.358 347.896 220.469 348 220.469 348.128Z" fill="#263238"/>
<path d="M174.308 370.675H151.18V398.032H174.308V370.675Z" fill="#E0E0E0"/>
<path d="M218.786 373.618C218.786 373.747 211.052 373.851 201.515 373.851C191.974 373.851 184.242 373.747 184.242 373.618C184.242 373.49 191.974 373.385 201.515 373.385C211.052 373.386 218.786 373.49 218.786 373.618Z" fill="#E0E0E0"/>
<path d="M246.33 382.004C246.33 382.133 232.43 382.237 215.287 382.237C198.139 382.237 184.242 382.133 184.242 382.004C184.242 381.876 198.139 381.771 215.287 381.771C232.431 381.771 246.33 381.876 246.33 382.004Z" fill="#EBEBEB"/>
<path d="M245.6 387.993C245.6 388.122 231.864 388.226 214.922 388.226C197.976 388.226 184.242 388.122 184.242 387.993C184.242 387.865 197.976 387.761 214.922 387.761C231.864 387.76 245.6 387.865 245.6 387.993Z" fill="#EBEBEB"/>
<path d="M220.469 393.706C220.469 393.834 212.359 393.939 202.357 393.939C192.351 393.939 184.242 393.835 184.242 393.706C184.242 393.578 192.351 393.473 202.357 393.473C212.358 393.473 220.469 393.577 220.469 393.706Z" fill="#EBEBEB"/>
<g opacity="0.3">
<path d="M174.308 325.097H151.18V352.454H174.308V325.097Z" fill="black"/>
</g>
<g opacity="0.3">
<path d="M174.308 233.942H151.18V261.299H174.308V233.942Z" fill="black"/>
</g>
<path d="M266.848 9.23535H141.188V69.6104H266.848V9.23535Z" fill="white"/>
<path d="M266.859 69.61C266.859 69.61 266.85 69.239 266.845 68.532C266.842 67.817 266.836 66.77 266.83 65.4C266.822 62.645 266.81 58.598 266.795 53.385C266.777 42.965 266.751 27.891 266.719 9.236L266.858 9.401C234.892 9.419 190.395 9.444 141.206 9.471H141.198L141.396 9.236C141.393 30.378 141.391 50.787 141.388 69.61L141.198 69.385C177.608 69.428 208.997 69.465 231.294 69.491C242.45 69.518 251.33 69.539 257.43 69.554C260.476 69.567 262.827 69.576 264.424 69.583C265.217 69.589 265.82 69.594 266.235 69.597C266.645 69.601 266.859 69.61 266.859 69.61C266.859 69.61 266.661 69.619 266.261 69.624C265.851 69.627 265.255 69.632 264.472 69.638C262.882 69.645 260.546 69.654 257.517 69.666C251.427 69.681 242.562 69.702 231.424 69.729C209.096 69.755 177.661 69.792 141.199 69.835H141.008V69.61C141.006 50.786 141.003 30.378 141 9.236V9H141.199H141.207C190.396 9.027 234.893 9.052 266.859 9.07H267V9.235C266.967 27.932 266.942 43.04 266.924 53.484C266.908 58.681 266.896 62.716 266.889 65.462C266.882 66.819 266.877 67.856 266.874 68.565C266.869 69.262 266.859 69.61 266.859 69.61Z" fill="#E8505B"/>
<path d="M141.328 17.3766C141.328 17.2466 169.416 17.1416 204.056 17.1416C238.708 17.1416 266.79 17.2466 266.79 17.3766C266.79 17.5066 238.708 17.6116 204.056 17.6116C169.415 17.6126 141.328 17.5066 141.328 17.3766Z" fill="#E8505B"/>
<g opacity="0.3">
<path d="M145.67 14.8152C146.174 14.8152 146.582 14.3321 146.582 13.7362C146.582 13.1403 146.174 12.6572 145.67 12.6572C145.166 12.6572 144.758 13.1403 144.758 13.7362C144.758 14.3321 145.166 14.8152 145.67 14.8152Z" fill="#E8505B"/>
</g>
<g opacity="0.3">
<path d="M149.699 13.7362C149.699 14.3322 149.291 14.8152 148.787 14.8152C148.283 14.8152 147.875 14.3322 147.875 13.7362C147.875 13.1402 148.283 12.6572 148.787 12.6572C149.291 12.6572 149.699 13.1402 149.699 13.7362Z" fill="#E8505B"/>
</g>
<g opacity="0.3">
<path d="M152.785 13.7362C152.785 14.3322 152.377 14.8152 151.873 14.8152C151.369 14.8152 150.961 14.3322 150.961 13.7362C150.961 13.1402 151.369 12.6572 151.873 12.6572C152.377 12.6572 152.785 13.1402 152.785 13.7362Z" fill="#E8505B"/>
</g>
<path d="M182.227 27.1904H151.875V63.0924H182.227V27.1904Z" fill="#E8505B"/>
<g opacity="0.5">
<path d="M182.227 27.1904H151.875V63.0924H182.227V27.1904Z" fill="white"/>
</g>
<path d="M258.179 36.8121C258.179 36.9421 242.56 37.0471 223.298 37.0471C204.029 37.0471 188.414 36.9421 188.414 36.8121C188.414 36.6821 204.03 36.5772 223.298 36.5772C242.56 36.5762 258.179 36.6821 258.179 36.8121Z" fill="#E8505B"/>
<path d="M258.179 44.1256C258.179 44.2556 242.56 44.3606 223.298 44.3606C204.029 44.3606 188.414 44.2556 188.414 44.1256C188.414 43.9956 204.03 43.8906 223.298 43.8906C242.56 43.8906 258.179 43.9956 258.179 44.1256Z" fill="#E8505B"/>
<path d="M233.327 51.4391C233.327 51.4551 233.169 51.4711 232.87 51.4871C232.528 51.4981 232.095 51.5131 231.561 51.5311C230.372 51.5501 228.741 51.5751 226.748 51.6061C222.637 51.6241 217.047 51.6481 210.872 51.6751C204.693 51.6481 199.103 51.6241 194.991 51.6061C193 51.5751 191.369 51.5501 190.179 51.5311C189.647 51.5131 189.213 51.4981 188.871 51.4871C188.571 51.4721 188.414 51.4561 188.414 51.4391C188.414 51.4221 188.571 51.4071 188.871 51.3921C189.213 51.3801 189.646 51.3661 190.179 51.3481C191.369 51.3291 193 51.3041 194.991 51.2731C199.103 51.2551 204.692 51.2311 210.872 51.2041C217.048 51.2311 222.638 51.2551 226.748 51.2731C228.741 51.3041 230.372 51.3291 231.561 51.3481C232.094 51.3661 232.528 51.3811 232.87 51.3921C233.169 51.4071 233.327 51.4231 233.327 51.4391Z" fill="#E8505B"/>
<path d="M25.1918 41L27.6065 26.4545H37.5355L37.0526 29.3097H30.6392L30.1562 32.2926H35.9375L35.4545 35.1548H29.6733L28.7074 41H25.1918ZM41.1612 41.206C40.0201 41.206 39.0732 40.9811 38.3203 40.5312C37.5722 40.0767 37.0466 39.4304 36.7436 38.5923C36.4406 37.7495 36.3861 36.7481 36.5803 35.5881C36.7696 34.4612 37.1555 33.4763 37.7379 32.6335C38.325 31.786 39.0637 31.1278 39.9538 30.6591C40.844 30.1856 41.8359 29.9489 42.9297 29.9489C43.7062 29.9489 44.3951 30.0696 44.9964 30.3111C45.5978 30.5526 46.0949 30.9124 46.4879 31.3906C46.8809 31.8641 47.1484 32.4465 47.2905 33.1378C47.4325 33.8291 47.4278 34.6222 47.2763 35.517L47.1413 36.3835H37.6669L37.9865 34.3665H44.2365C44.2933 33.9972 44.2625 33.6681 44.1442 33.3793C44.0258 33.0904 43.834 32.8655 43.5689 32.7045C43.3085 32.5388 42.9889 32.456 42.6101 32.456C42.2266 32.456 41.8667 32.5459 41.5305 32.7259C41.1991 32.901 40.9174 33.1378 40.6854 33.4361C40.4534 33.7344 40.3018 34.0705 40.2308 34.4446L39.8544 36.5114C39.7786 36.9706 39.8 37.3636 39.9183 37.6903C40.0367 38.017 40.2403 38.268 40.5291 38.4432C40.8179 38.6136 41.1896 38.6989 41.6442 38.6989C41.9472 38.6989 42.2313 38.6586 42.4964 38.5781C42.7616 38.4929 42.9983 38.3674 43.2067 38.2017C43.4197 38.0312 43.5926 37.8253 43.7251 37.5838L46.8928 37.6761C46.6371 38.3911 46.2417 39.0137 45.7067 39.544C45.1716 40.0696 44.5182 40.4792 43.7464 40.7727C42.9794 41.0616 42.1177 41.206 41.1612 41.206ZM53.212 41.206C52.0709 41.206 51.1239 40.9811 50.3711 40.5312C49.623 40.0767 49.0974 39.4304 48.7944 38.5923C48.4914 37.7495 48.4369 36.7481 48.631 35.5881C48.8204 34.4612 49.2063 33.4763 49.7887 32.6335C50.3758 31.786 51.1145 31.1278 52.0046 30.6591C52.8948 30.1856 53.8867 29.9489 54.9805 29.9489C55.757 29.9489 56.4459 30.0696 57.0472 30.3111C57.6486 30.5526 58.1457 30.9124 58.5387 31.3906C58.9317 31.8641 59.1992 32.4465 59.3413 33.1378C59.4833 33.8291 59.4786 34.6222 59.3271 35.517L59.1921 36.3835H49.7177L50.0373 34.3665H56.2873C56.3441 33.9972 56.3133 33.6681 56.195 33.3793C56.0766 33.0904 55.8848 32.8655 55.6197 32.7045C55.3593 32.5388 55.0397 32.456 54.6609 32.456C54.2773 32.456 53.9175 32.5459 53.5813 32.7259C53.2499 32.901 52.9682 33.1378 52.7362 33.4361C52.5041 33.7344 52.3526 34.0705 52.2816 34.4446L51.9052 36.5114C51.8294 36.9706 51.8507 37.3636 51.9691 37.6903C52.0875 38.017 52.2911 38.268 52.5799 38.4432C52.8687 38.6136 53.2404 38.6989 53.695 38.6989C53.998 38.6989 54.2821 38.6586 54.5472 38.5781C54.8124 38.4929 55.0491 38.3674 55.2575 38.2017C55.4705 38.0312 55.6433 37.8253 55.7759 37.5838L58.9435 37.6761C58.6879 38.3911 58.2925 39.0137 57.7575 39.544C57.2224 40.0696 56.569 40.4792 55.7972 40.7727C55.0302 41.0616 54.1684 41.206 53.212 41.206ZM64.1619 41.1562C63.357 41.1562 62.6586 40.9479 62.0668 40.5312C61.4749 40.1146 61.0511 39.4896 60.7955 38.6562C60.5445 37.8229 60.5208 36.7884 60.7244 35.5526C60.9375 34.2694 61.3163 33.2135 61.8608 32.3849C62.4053 31.5563 63.0398 30.9432 63.7642 30.5455C64.4934 30.1477 65.2367 29.9489 65.9943 29.9489C66.5672 29.9489 67.0407 30.0483 67.4148 30.2472C67.7936 30.4413 68.0895 30.6922 68.3026 31C68.5156 31.3078 68.6624 31.6274 68.7429 31.9588H68.821L69.7372 26.4545H73.2102L70.7955 41H67.358L67.6491 39.2315H67.5426C67.339 39.5677 67.0786 39.8826 66.7614 40.1761C66.4441 40.4697 66.0677 40.7064 65.6321 40.8864C65.2012 41.0663 64.7112 41.1562 64.1619 41.1562ZM65.8026 38.4503C66.224 38.4503 66.6051 38.3319 66.946 38.0952C67.2869 37.8537 67.5734 37.5152 67.8054 37.0795C68.0421 36.6439 68.2079 36.1326 68.3026 35.5455C68.402 34.9489 68.4067 34.4351 68.3168 34.0043C68.2268 33.5734 68.0492 33.242 67.7841 33.0099C67.5237 32.7779 67.1804 32.6619 66.7543 32.6619C66.3281 32.6619 65.947 32.7803 65.6108 33.017C65.2746 33.2538 64.9953 33.5876 64.7727 34.0185C64.5502 34.4493 64.3892 34.9583 64.2898 35.5455C64.1951 36.1326 64.1856 36.6439 64.2614 37.0795C64.3419 37.5152 64.5099 37.8537 64.7656 38.0952C65.026 38.3319 65.3717 38.4503 65.8026 38.4503ZM73.0043 41L75.419 26.4545H78.892L77.9901 31.9588H78.0611C78.2505 31.6274 78.5014 31.3078 78.8139 31C79.1312 30.6922 79.5123 30.4413 79.9574 30.2472C80.4025 30.0483 80.9115 29.9489 81.4844 29.9489C82.242 29.9489 82.9167 30.1477 83.5085 30.5455C84.1004 30.9432 84.5313 31.5563 84.8011 32.3849C85.071 33.2135 85.0994 34.2694 84.8864 35.5526C84.6828 36.7884 84.3158 37.8229 83.7855 38.6562C83.2552 39.4896 82.6231 40.1146 81.8892 40.5312C81.16 40.9479 80.393 41.1562 79.5881 41.1562C79.0388 41.1562 78.5772 41.0663 78.2031 40.8864C77.8338 40.7064 77.5379 40.4697 77.3153 40.1761C77.0975 39.8826 76.946 39.5677 76.8608 39.2315H76.7259L76.4418 41H73.0043ZM77.3153 35.5455C77.2206 36.1326 77.2159 36.6439 77.3011 37.0795C77.3911 37.5152 77.5639 37.8537 77.8196 38.0952C78.08 38.3319 78.4233 38.4503 78.8494 38.4503C79.2756 38.4503 79.6567 38.3319 79.9929 38.0952C80.3291 37.8537 80.6108 37.5152 80.8381 37.0795C81.0653 36.6439 81.2263 36.1326 81.321 35.5455C81.4157 34.9583 81.4205 34.4493 81.3352 34.0185C81.2547 33.5876 81.0866 33.2538 80.831 33.017C80.5753 32.7803 80.232 32.6619 79.8011 32.6619C79.375 32.6619 78.9915 32.7779 78.6506 33.0099C78.3144 33.242 78.0303 33.5734 77.7983 34.0043C77.571 34.4351 77.41 34.9489 77.3153 35.5455ZM88.8441 41.1847C88.1528 41.1847 87.5562 41.0687 87.0543 40.8366C86.5572 40.5999 86.1926 40.2424 85.9606 39.7642C85.7333 39.286 85.6789 38.6894 85.7972 37.9744C85.9014 37.3684 86.0932 36.8594 86.3725 36.4474C86.6566 36.0308 87.0046 35.6922 87.4165 35.4318C87.8332 35.1714 88.2972 34.9725 88.8086 34.8352C89.32 34.6979 89.855 34.6056 90.4137 34.5582C91.0387 34.5014 91.5453 34.4399 91.9336 34.3736C92.3266 34.3073 92.6201 34.215 92.8143 34.0966C93.0084 33.9735 93.1268 33.803 93.1694 33.5852V33.5497C93.2262 33.1851 93.1481 32.9034 92.935 32.7045C92.7219 32.5057 92.4023 32.4062 91.9762 32.4062C91.5217 32.4062 91.1334 32.5057 90.8114 32.7045C90.4895 32.9034 90.2646 33.178 90.1367 33.5284L86.9549 33.4148C87.1538 32.7519 87.4947 32.16 87.9776 31.6392C88.4606 31.1136 89.0737 30.7017 89.8171 30.4034C90.5652 30.1004 91.4293 29.9489 92.4094 29.9489C93.1007 29.9489 93.7257 30.0317 94.2844 30.1974C94.8432 30.3584 95.3143 30.5952 95.6978 30.9077C96.0861 31.2154 96.363 31.5942 96.5288 32.044C96.6945 32.4938 96.73 33.0076 96.6353 33.5852L95.3924 41H92.1254L92.381 39.4801H92.2958C92.0401 39.8494 91.7395 40.1619 91.3938 40.4176C91.0529 40.6733 90.6694 40.8651 90.2433 40.9929C89.8171 41.1207 89.3507 41.1847 88.8441 41.1847ZM90.3072 38.9119C90.6718 38.9119 91.0174 38.8362 91.3441 38.6847C91.6708 38.5331 91.9454 38.3248 92.168 38.0597C92.3952 37.7898 92.5397 37.4773 92.6012 37.1222L92.7646 36.0852C92.6651 36.1373 92.5397 36.1847 92.3881 36.2273C92.2366 36.2699 92.0756 36.3101 91.9052 36.348C91.7347 36.3812 91.5595 36.4143 91.3796 36.4474C91.2044 36.4759 91.0363 36.5019 90.8754 36.5256C90.5344 36.5777 90.2385 36.6581 89.9876 36.767C89.7366 36.8759 89.5354 37.018 89.3839 37.1932C89.2371 37.3636 89.1471 37.5672 89.114 37.804C89.0572 38.1591 89.14 38.4337 89.3626 38.6278C89.5851 38.8172 89.9 38.9119 90.3072 38.9119ZM102.58 41.206C101.429 41.206 100.48 40.9692 99.7319 40.4957C98.9885 40.0223 98.4677 39.3641 98.1694 38.5213C97.8711 37.6738 97.8166 36.6937 98.006 35.581C98.186 34.4635 98.5671 33.4834 99.1495 32.6406C99.7319 31.7931 100.475 31.1326 101.38 30.6591C102.284 30.1856 103.307 29.9489 104.448 29.9489C105.456 29.9489 106.304 30.1312 106.99 30.4957C107.682 30.8603 108.181 31.3764 108.489 32.044C108.801 32.7069 108.894 33.4858 108.766 34.3807H105.52C105.549 33.8267 105.435 33.3911 105.179 33.0739C104.924 32.7519 104.552 32.5909 104.064 32.5909C103.652 32.5909 103.274 32.7045 102.928 32.9318C102.587 33.1544 102.296 33.4858 102.054 33.9261C101.818 34.3617 101.647 34.9015 101.543 35.5455C101.439 36.1894 101.432 36.7339 101.522 37.179C101.616 37.6193 101.794 37.9531 102.054 38.1804C102.319 38.4029 102.656 38.5142 103.063 38.5142C103.385 38.5142 103.683 38.4455 103.958 38.3082C104.232 38.1709 104.471 37.9697 104.675 37.7045C104.879 37.4347 105.037 37.108 105.151 36.7244H108.39C108.205 37.6288 107.847 38.4171 107.317 39.0895C106.792 39.7571 106.126 40.2779 105.321 40.652C104.516 41.0213 103.603 41.206 102.58 41.206ZM113.05 38.1378L113.754 33.9972H114.229L117.965 30.0909H121.9L116.417 35.6875H115.501L113.05 38.1378ZM109.45 41L111.864 26.4545H115.337L112.923 41H109.45ZM116.225 41L114.123 36.4688L116.829 34.0043L120.238 41H116.225Z" fill="black"/>
</svg>
