<svg width="105" height="32" viewBox="0 0 105 32" fill="none" xmlns="http://www.w3.org/2000/svg">
<path d="M51.6 18C51.04 18 50.6233 17.8633 50.35 17.59C50.0767 17.3167 49.94 16.9 49.94 16.34C49.94 15.78 50.075 15.3633 50.345 15.09C50.6183 14.8167 51.0367 14.68 51.6 14.68H53.715C53.695 14.33 53.6033 14.0917 53.44 13.965C53.2767 13.835 52.9967 13.77 52.6 13.77H52.02C51.6867 13.77 51.4383 13.7933 51.275 13.84C51.1117 13.8833 50.9967 13.9633 50.93 14.08C50.87 14.22 50.8083 14.3167 50.745 14.37C50.6817 14.4233 50.5867 14.45 50.46 14.45C50.32 14.45 50.21 14.4117 50.13 14.335C50.05 14.255 50.0267 14.15 50.06 14.02C50.16 13.6433 50.3683 13.3683 50.685 13.195C51.005 13.0183 51.45 12.93 52.02 12.93H52.6C53.2667 12.93 53.76 13.09 54.08 13.41C54.4 13.73 54.56 14.2233 54.56 14.89V17.58C54.56 17.86 54.42 18 54.14 18C53.86 18 53.72 17.86 53.72 17.58V17.355C53.3633 17.785 52.8433 18 52.16 18H51.6ZM51.6 17.16H52.16C52.4067 17.16 52.6383 17.1383 52.855 17.095C53.0717 17.0483 53.2567 16.965 53.41 16.845C53.5667 16.725 53.67 16.5533 53.72 16.33V15.52H51.6C51.27 15.52 51.05 15.575 50.94 15.685C50.8333 15.795 50.78 16.0133 50.78 16.34C50.78 16.67 50.8333 16.89 50.94 17C51.05 17.1067 51.27 17.16 51.6 17.16ZM56.9639 18C56.6839 18 56.5439 17.86 56.5439 17.58V13.35C56.5439 13.07 56.6839 12.93 56.9639 12.93C57.2439 12.93 57.3839 13.07 57.3839 13.35V13.515C57.7372 13.125 58.2572 12.93 58.9439 12.93H59.2239C59.8906 12.93 60.3839 13.09 60.7039 13.41C61.0239 13.73 61.1839 14.2233 61.1839 14.89V17.58C61.1839 17.86 61.0439 18 60.7639 18C60.4839 18 60.3439 17.86 60.3439 17.58V14.89C60.3439 14.4533 60.2639 14.1583 60.1039 14.005C59.9472 13.8483 59.6539 13.77 59.2239 13.77H58.9439C58.5439 13.77 58.1956 13.8167 57.8989 13.91C57.6022 14 57.4306 14.1433 57.3839 14.34V17.58C57.3839 17.86 57.2439 18 56.9639 18ZM64.885 18C64.2217 18 63.7283 17.84 63.405 17.52C63.085 17.1967 62.925 16.7033 62.925 16.04V14.89C62.925 14.2233 63.085 13.73 63.405 13.41C63.7283 13.09 64.2217 12.93 64.885 12.93H66.825V11.38C66.825 11.1 66.965 10.96 67.245 10.96C67.525 10.96 67.665 11.1 67.665 11.38V17.58C67.665 17.86 67.525 18 67.245 18C66.965 18 66.825 17.86 66.825 17.58V17.51C66.6683 17.67 66.4633 17.7917 66.21 17.875C65.9567 17.9583 65.6417 18 65.265 18H64.885ZM64.885 17.16H65.265C65.705 17.16 66.075 17.1033 66.375 16.99C66.675 16.8767 66.825 16.7033 66.825 16.47V13.77H64.885C64.4517 13.77 64.1567 13.85 64 14.01C63.8433 14.1667 63.765 14.46 63.765 14.89V16.04C63.765 16.4733 63.8433 16.7683 64 16.925C64.16 17.0817 64.455 17.16 64.885 17.16ZM69.9294 12.11C69.6127 12.11 69.4544 11.95 69.4544 11.63V11.335C69.4544 11.0217 69.6127 10.865 69.9294 10.865H70.2194C70.5227 10.865 70.6744 11.0217 70.6744 11.335V11.63C70.6744 11.95 70.5227 12.11 70.2194 12.11H69.9294ZM70.0694 18C69.7894 18 69.6494 17.86 69.6494 17.58V13.35C69.6494 13.07 69.7894 12.93 70.0694 12.93C70.3494 12.93 70.4894 13.07 70.4894 13.35V17.58C70.4894 17.86 70.3494 18 70.0694 18ZM74.2893 18C73.626 18 73.1326 17.84 72.8093 17.52C72.4893 17.1967 72.3293 16.7033 72.3293 16.04V14.89C72.3293 14.2233 72.4893 13.73 72.8093 13.41C73.1326 13.09 73.626 12.93 74.2893 12.93H76.2293V11.38C76.2293 11.1 76.3693 10.96 76.6493 10.96C76.9293 10.96 77.0693 11.1 77.0693 11.38V17.58C77.0693 17.86 76.9293 18 76.6493 18C76.3693 18 76.2293 17.86 76.2293 17.58V17.51C76.0726 17.67 75.8676 17.7917 75.6143 17.875C75.361 17.9583 75.046 18 74.6693 18H74.2893ZM74.2893 17.16H74.6693C75.1093 17.16 75.4793 17.1033 75.7793 16.99C76.0793 16.8767 76.2293 16.7033 76.2293 16.47V13.77H74.2893C73.856 13.77 73.561 13.85 73.4043 14.01C73.2476 14.1667 73.1693 14.46 73.1693 14.89V16.04C73.1693 16.4733 73.2476 16.7683 73.4043 16.925C73.5643 17.0817 73.8593 17.16 74.2893 17.16ZM80.6137 18C80.0537 18 79.637 17.8633 79.3637 17.59C79.0903 17.3167 78.9537 16.9 78.9537 16.34C78.9537 15.78 79.0887 15.3633 79.3587 15.09C79.632 14.8167 80.0503 14.68 80.6137 14.68H82.7287C82.7087 14.33 82.617 14.0917 82.4537 13.965C82.2903 13.835 82.0103 13.77 81.6137 13.77H81.0337C80.7003 13.77 80.452 13.7933 80.2887 13.84C80.1253 13.8833 80.0103 13.9633 79.9437 14.08C79.8837 14.22 79.822 14.3167 79.7587 14.37C79.6953 14.4233 79.6003 14.45 79.4737 14.45C79.3337 14.45 79.2237 14.4117 79.1437 14.335C79.0637 14.255 79.0403 14.15 79.0737 14.02C79.1737 13.6433 79.382 13.3683 79.6987 13.195C80.0187 13.0183 80.4637 12.93 81.0337 12.93H81.6137C82.2803 12.93 82.7737 13.09 83.0937 13.41C83.4137 13.73 83.5737 14.2233 83.5737 14.89V17.58C83.5737 17.86 83.4337 18 83.1537 18C82.8737 18 82.7337 17.86 82.7337 17.58V17.355C82.377 17.785 81.857 18 81.1737 18H80.6137ZM80.6137 17.16H81.1737C81.4203 17.16 81.652 17.1383 81.8687 17.095C82.0853 17.0483 82.2703 16.965 82.4237 16.845C82.5803 16.725 82.6837 16.5533 82.7337 16.33V15.52H80.6137C80.2837 15.52 80.0637 15.575 79.9537 15.685C79.847 15.795 79.7937 16.0133 79.7937 16.34C79.7937 16.67 79.847 16.89 79.9537 17C80.0637 17.1067 80.2837 17.16 80.6137 17.16ZM87.6976 18C87.0376 18 86.5509 17.8433 86.2376 17.53C85.9242 17.2167 85.7676 16.7333 85.7676 16.08V13.77H85.2776C84.9976 13.77 84.8576 13.63 84.8576 13.35C84.8576 13.07 84.9976 12.93 85.2776 12.93H85.7676V12.2C85.7676 11.92 85.9076 11.78 86.1876 11.78C86.4676 11.78 86.6076 11.92 86.6076 12.2V12.93H87.7576C88.0376 12.93 88.1776 13.07 88.1776 13.35C88.1776 13.63 88.0376 13.77 87.7576 13.77H86.6076V16.08C86.6076 16.5033 86.6842 16.79 86.8376 16.94C86.9909 17.0867 87.2776 17.16 87.6976 17.16C87.8276 17.16 87.9292 17.1933 88.0026 17.26C88.0792 17.3267 88.1176 17.4333 88.1176 17.58C88.1176 17.86 87.9776 18 87.6976 18ZM89.9466 15.81V16.05C89.9466 16.48 90.025 16.7733 90.1816 16.93C90.3383 17.0833 90.6333 17.16 91.0666 17.16H91.8866C92.2266 17.16 92.4783 17.1283 92.6416 17.065C92.805 17.0017 92.9133 16.89 92.9666 16.73C93.0033 16.6033 93.0533 16.5067 93.1166 16.44C93.1833 16.3733 93.2833 16.34 93.4166 16.34C93.5566 16.34 93.6633 16.3767 93.7366 16.45C93.81 16.5233 93.8333 16.63 93.8066 16.77C93.7333 17.1833 93.5366 17.4917 93.2166 17.695C92.8966 17.8983 92.4533 18 91.8866 18H91.0666C90.4033 18 89.91 17.84 89.5866 17.52C89.2666 17.2 89.1066 16.71 89.1066 16.05V14.89C89.1066 14.2133 89.2666 13.7167 89.5866 13.4C89.91 13.08 90.4033 12.9233 91.0666 12.93H91.8866C92.5533 12.93 93.0466 13.09 93.3666 13.41C93.6866 13.7267 93.8466 14.22 93.8466 14.89V15.39C93.8466 15.67 93.7066 15.81 93.4266 15.81H89.9466ZM91.0666 13.77C90.6333 13.7633 90.3383 13.8383 90.1816 13.995C90.025 14.1517 89.9466 14.45 89.9466 14.89V14.97H93.0066V14.89C93.0066 14.4533 92.9283 14.1583 92.7716 14.005C92.6183 13.8483 92.3233 13.77 91.8866 13.77H91.0666Z" fill="black"/>
<path d="M15.3862 23C15.1288 23 15 22.8181 15 22.4541C15 22.2114 15.0515 21.9445 15.1545 21.6536C15.2574 21.3381 15.3603 21.0712 15.4633 20.8529C15.6178 20.5131 15.9138 20.0886 16.3514 19.5791C16.789 19.0696 17.2522 18.5722 17.7414 18.087C18.2303 17.6017 18.6036 17.2258 18.861 16.9589C19.2471 16.5948 19.6203 16.2189 19.9807 15.8308C20.3667 15.4425 20.7271 15.0665 21.0617 14.7025C22.1171 13.5137 23.1853 12.3977 24.2664 11.3544C25.3733 10.2868 26.5443 9.01323 27.7798 7.53325C28.1917 6.97517 28.5392 6.38067 28.8224 5.74994C29.1055 5.09494 29.2471 4.45188 29.2471 3.82116C29.2471 3.06903 29.0026 2.45045 28.5135 1.96521C28.0245 1.47998 27.2522 1.23736 26.1969 1.23736C25.4762 1.23736 24.8712 1.35857 24.3822 1.60118C23.919 1.8438 23.52 2.13499 23.1853 2.47453C22.619 3.05689 22.2586 3.57854 22.1043 4.03949C21.9498 4.47616 21.7824 5.09494 21.6023 5.89544C21.5509 6.18662 21.3448 6.40496 20.9845 6.55064C20.65 6.69614 20.2896 6.81754 19.9035 6.91447C19.5174 6.98731 19.1957 7.0723 18.9383 7.16923C18.8353 7.21779 18.7195 7.27849 18.5907 7.35114C18.4878 7.42398 18.3719 7.46041 18.2433 7.46041C18.1145 7.46041 18.0374 7.41184 18.0116 7.31491C17.9859 7.19351 17.9729 7.09639 17.9729 7.02374C17.9729 6.87805 17.9729 6.7447 17.9729 6.62329C17.9729 6.50208 17.9859 6.39281 18.0116 6.29588C18.3462 4.76734 18.9897 3.54212 19.9421 2.62022C20.9202 1.69831 22.0528 1.03097 23.3398 0.618578C24.6524 0.206188 25.9652 0 27.2779 0C28.1016 0 28.9767 0.133346 29.9035 0.400243C30.83 0.64286 31.6152 1.06739 32.2586 1.67403C32.9279 2.28047 33.2624 3.14187 33.2624 4.25783C33.2624 5.30114 32.9664 6.29589 32.3745 7.24207C31.8081 8.18826 31.0488 9.09802 30.0965 9.97156C29.1698 10.8449 28.166 11.6942 27.0848 12.5189C26.0038 13.3439 24.9614 14.1565 23.9576 14.9572C22.9536 15.7579 22.0914 16.5586 21.3707 17.3591C20.65 18.1598 20.1866 18.9726 19.9807 19.7974C19.9807 20.2584 20.1479 20.6224 20.4826 20.8893C20.8172 21.1319 21.2291 21.3017 21.7181 21.3988C22.2329 21.4715 22.7348 21.5079 23.224 21.5079C23.8159 21.5079 24.5109 21.4593 25.3088 21.3624C26.1326 21.241 26.9433 21.0955 27.7412 20.9257C28.5392 20.7315 29.2085 20.5253 29.749 20.3069C30.9845 19.6762 31.9497 18.7784 32.6447 17.6139C33.3654 16.4251 34.009 15.1877 34.5752 13.902C34.6524 13.8291 34.704 13.7927 34.7297 13.7927C34.8326 13.7927 34.8969 13.8413 34.9228 13.9382C34.9742 14.0111 35 14.096 35 14.193V14.3387C34.8197 14.8965 34.6138 15.5882 34.3822 16.4129C34.1762 17.2379 33.9317 18.087 33.6486 18.9605C33.3655 19.8096 33.0309 20.586 32.6447 21.2895C32.2843 21.9931 31.8597 22.4905 31.3705 22.7817C31.2676 22.8788 31.139 22.9393 30.9845 22.9636C30.83 22.9879 30.6885 23 30.5598 23C30.0966 23 29.646 22.9636 29.2085 22.8909C28.7709 22.7938 28.3333 22.721 27.8957 22.6724C27.2522 22.624 26.6088 22.5755 25.9652 22.5269C25.3474 22.4783 24.704 22.4541 24.0347 22.4541C22.619 22.4541 21.2033 22.4905 19.7876 22.5633C18.3719 22.6119 16.9562 22.7452 15.5405 22.9636C15.5148 22.9636 15.4891 22.9757 15.4633 23C15.4633 23 15.4376 23 15.3862 23Z" fill="black"/>
<path d="M11 30H2.84824C1.27678 30 0.371019 29.4611 0.130965 28.3833C0.0436357 28.0638 0 27.7246 0 27.3653V17.6647C0 16.8264 0.250992 16.1776 0.752975 15.7185C1.27678 15.2395 2.06251 15 3.11011 15H11V18.8024H8.77383V17.0659H2.61907V27.9641H8.77383V26.2276H11V30Z" fill="black"/>
<path d="M49 22H40.8482C39.2768 22 38.371 21.4611 38.131 20.3833C38.0436 20.0638 38 19.7246 38 19.3653V9.6647C38 8.82637 38.251 8.17755 38.753 7.71855C39.2768 7.23949 40.0625 7 41.1101 7H49V10.8024H46.7738V9.06586H40.6191V19.9641H46.7738V18.2276H49V22Z" fill="black"/>
<path d="M15.76 30C15.0967 30 14.6033 29.84 14.28 29.52C13.96 29.2 13.8 28.71 13.8 28.05V26.89C13.8 26.22 13.96 25.7267 14.28 25.41C14.6033 25.09 15.0967 24.93 15.76 24.93H16.58C17.2467 24.93 17.74 25.09 18.06 25.41C18.38 25.73 18.54 26.2233 18.54 26.89V28.04C18.54 28.7033 18.38 29.1967 18.06 29.52C17.74 29.84 17.2467 30 16.58 30H15.76ZM14.64 28.05C14.64 28.48 14.7183 28.7733 14.875 28.93C15.0317 29.0833 15.3267 29.16 15.76 29.16H16.58C17.0167 29.16 17.3117 29.0817 17.465 28.925C17.6217 28.7683 17.7 28.4733 17.7 28.04V26.89C17.7 26.4533 17.6217 26.1583 17.465 26.005C17.3117 25.8483 17.0167 25.77 16.58 25.77H15.76C15.47 25.77 15.2433 25.8033 15.08 25.87C14.92 25.9333 14.8067 26.0467 14.74 26.21C14.6733 26.37 14.64 26.5967 14.64 26.89V28.05ZM25.9279 24.93C26.5579 24.93 27.0096 25.0783 27.2829 25.375C27.5596 25.6717 27.6979 26.1633 27.6979 26.85V29.58C27.6979 29.86 27.5579 30 27.2779 30C26.9979 30 26.8579 29.86 26.8579 29.58V26.85C26.8579 26.47 26.7846 26.195 26.6379 26.025C26.4946 25.855 26.2579 25.77 25.9279 25.77H25.5179C25.1379 25.77 24.8662 25.855 24.7029 26.025C24.5396 26.195 24.4579 26.47 24.4579 26.85V29.58C24.4579 29.86 24.3179 30 24.0379 30C23.7579 30 23.6179 29.86 23.6179 29.58V26.85C23.6179 26.47 23.5446 26.195 23.3979 26.025C23.2546 25.855 23.0179 25.77 22.6879 25.77H22.2779C21.8979 25.77 21.6262 25.855 21.4629 26.025C21.2996 26.195 21.2179 26.47 21.2179 26.85V29.58C21.2179 29.86 21.0779 30 20.7979 30C20.5179 30 20.3779 29.86 20.3779 29.58V25.35C20.3779 25.07 20.5179 24.93 20.7979 24.93C21.0779 24.93 21.2179 25.07 21.2179 25.35V25.58C21.3946 25.35 21.5879 25.185 21.7979 25.085C22.0112 24.9817 22.2646 24.93 22.5579 24.93H22.6879C23.1012 24.93 23.4262 24.9883 23.6629 25.105C23.8996 25.2183 24.0796 25.4033 24.2029 25.66C24.3796 25.3967 24.5662 25.21 24.7629 25.1C24.9629 24.9867 25.2146 24.93 25.5179 24.93H25.9279ZM30.0948 32C29.8148 32 29.6748 31.86 29.6748 31.58V25.35C29.6748 25.07 29.8148 24.93 30.0948 24.93C30.3748 24.93 30.5148 25.07 30.5148 25.35V25.475C30.6948 25.295 30.9164 25.16 31.1798 25.07C31.4464 24.9767 31.7448 24.93 32.0748 24.93H32.4548C33.1214 24.93 33.6148 25.09 33.9348 25.41C34.2548 25.73 34.4148 26.2233 34.4148 26.89V28.04C34.4148 28.7033 34.2548 29.1967 33.9348 29.52C33.6148 29.84 33.1214 30 32.4548 30H30.5148V31.58C30.5148 31.86 30.3748 32 30.0948 32ZM30.5148 29.16H32.4548C32.8914 29.16 33.1864 29.0817 33.3398 28.925C33.4964 28.7683 33.5748 28.4733 33.5748 28.04V26.89C33.5748 26.4533 33.4964 26.1583 33.3398 26.005C33.1864 25.8483 32.8914 25.77 32.4548 25.77H32.0748C31.6581 25.77 31.2981 25.82 30.9948 25.92C30.6914 26.02 30.5314 26.1783 30.5148 26.395V29.16ZM37.8168 30C37.2568 30 36.8401 29.8633 36.5668 29.59C36.2935 29.3167 36.1568 28.9 36.1568 28.34C36.1568 27.78 36.2918 27.3633 36.5618 27.09C36.8351 26.8167 37.2535 26.68 37.8168 26.68H39.9318C39.9118 26.33 39.8201 26.0917 39.6568 25.965C39.4935 25.835 39.2135 25.77 38.8168 25.77H38.2368C37.9035 25.77 37.6551 25.7933 37.4918 25.84C37.3285 25.8833 37.2135 25.9633 37.1468 26.08C37.0868 26.22 37.0251 26.3167 36.9618 26.37C36.8985 26.4233 36.8035 26.45 36.6768 26.45C36.5368 26.45 36.4268 26.4117 36.3468 26.335C36.2668 26.255 36.2435 26.15 36.2768 26.02C36.3768 25.6433 36.5851 25.3683 36.9018 25.195C37.2218 25.0183 37.6668 24.93 38.2368 24.93H38.8168C39.4835 24.93 39.9768 25.09 40.2968 25.41C40.6168 25.73 40.7768 26.2233 40.7768 26.89V29.58C40.7768 29.86 40.6368 30 40.3568 30C40.0768 30 39.9368 29.86 39.9368 29.58V29.355C39.5801 29.785 39.0601 30 38.3768 30H37.8168ZM37.8168 29.16H38.3768C38.6235 29.16 38.8551 29.1383 39.0718 29.095C39.2885 29.0483 39.4735 28.965 39.6268 28.845C39.7835 28.725 39.8868 28.5533 39.9368 28.33V27.52H37.8168C37.4868 27.52 37.2668 27.575 37.1568 27.685C37.0501 27.795 36.9968 28.0133 36.9968 28.34C36.9968 28.67 37.0501 28.89 37.1568 29C37.2668 29.1067 37.4868 29.16 37.8168 29.16ZM43.1807 30C42.9007 30 42.7607 29.86 42.7607 29.58V25.35C42.7607 25.07 42.9007 24.93 43.1807 24.93C43.4607 24.93 43.6007 25.07 43.6007 25.35V25.515C43.954 25.125 44.474 24.93 45.1607 24.93H45.4407C46.1074 24.93 46.6007 25.09 46.9207 25.41C47.2407 25.73 47.4007 26.2233 47.4007 26.89V29.58C47.4007 29.86 47.2607 30 46.9807 30C46.7007 30 46.5607 29.86 46.5607 29.58V26.89C46.5607 26.4533 46.4807 26.1583 46.3207 26.005C46.164 25.8483 45.8707 25.77 45.4407 25.77H45.1607C44.7607 25.77 44.4124 25.8167 44.1157 25.91C43.819 26 43.6474 26.1433 43.6007 26.34V29.58C43.6007 29.86 43.4607 30 43.1807 30ZM50.7218 32C50.2385 32 49.8768 31.8783 49.6368 31.635C49.4001 31.395 49.2818 31.0333 49.2818 30.55C49.2818 30.27 49.4218 30.13 49.7018 30.13C49.9818 30.13 50.1218 30.27 50.1218 30.55C50.1218 30.8 50.1585 30.9633 50.2318 31.04C50.3085 31.12 50.4718 31.16 50.7218 31.16H52.6618C52.9085 31.16 53.0701 31.12 53.1468 31.04C53.2235 30.9633 53.2618 30.8 53.2618 30.55V29.28C53.0618 29.58 52.8285 29.775 52.5618 29.865C52.2985 29.955 52.0118 30 51.7018 30H51.2118C50.5518 30 50.0651 29.8433 49.7518 29.53C49.4385 29.2167 49.2818 28.7333 49.2818 28.08V25.35C49.2818 25.07 49.4218 24.93 49.7018 24.93C49.9818 24.93 50.1218 25.07 50.1218 25.35V28.08C50.1218 28.5 50.1968 28.785 50.3468 28.935C50.5001 29.085 50.7885 29.16 51.2118 29.16H51.7018C52.2485 29.16 52.6451 29.0717 52.8918 28.895C53.1385 28.715 53.2618 28.4433 53.2618 28.08V25.35C53.2618 25.07 53.4018 24.93 53.6818 24.93C53.9618 24.93 54.1018 25.07 54.1018 25.35V30.55C54.1018 31.0333 53.9818 31.395 53.7418 31.635C53.5018 31.8783 53.1418 32 52.6618 32H50.7218Z" fill="black"/>
</svg>
