<svg width="190" height="58" viewBox="0 0 190 58" fill="none" xmlns="http://www.w3.org/2000/svg">
<path d="M25.3966 41.6875C24.9308 41.6875 24.6978 41.3578 24.6978 40.6981C24.6978 40.2582 24.7909 39.7746 24.9773 39.2472C25.1635 38.6753 25.3497 38.1915 25.5361 37.7959C25.8157 37.18 26.3513 36.4106 27.1431 35.4871C27.935 34.5636 28.7732 33.6621 29.6584 32.7827C30.5431 31.9031 31.2186 31.2218 31.6843 30.738C32.383 30.0781 33.0583 29.3968 33.7104 28.6933C34.4089 27.9895 35.0611 27.308 35.6665 26.6483C37.5763 24.4936 39.5092 22.4708 41.4655 20.5799C43.4685 18.6448 45.5874 16.3365 47.8231 13.654C48.5685 12.6425 49.1973 11.565 49.7097 10.4218C50.222 9.23458 50.4782 8.06903 50.4782 6.92585C50.4782 5.56262 50.0358 4.44144 49.1508 3.56194C48.2659 2.68246 46.8684 2.24271 44.9588 2.24271C43.6547 2.24271 42.5599 2.46241 41.6751 2.90214C40.8369 3.34189 40.1149 3.86967 39.5093 4.48509C38.4845 5.54061 37.8324 6.4861 37.5532 7.32158C37.2736 8.11304 36.9707 9.23458 36.6448 10.6855C36.5518 11.2132 36.1788 11.609 35.5269 11.873C34.9216 12.1367 34.2694 12.3568 33.5708 12.5325C32.8721 12.6645 32.29 12.8185 31.8242 12.9942C31.6378 13.0822 31.4283 13.1923 31.1952 13.3239C31.009 13.456 30.7993 13.522 30.5666 13.522C30.3335 13.522 30.194 13.434 30.1473 13.2583C30.1008 13.0382 30.0773 12.8622 30.0773 12.7305C30.0773 12.4665 30.0773 12.2248 30.0773 12.0047C30.0773 11.785 30.1008 11.587 30.1473 11.4113C30.7528 8.6408 31.9172 6.42009 33.6406 4.74915C35.4105 3.07819 37.46 1.86863 39.7888 1.12117C42.164 0.373716 44.5395 0 46.9149 0C48.4054 0 49.9889 0.24169 51.666 0.72544C53.3425 1.16518 54.7633 1.93464 55.9276 3.03418C57.1387 4.13335 57.744 5.69464 57.744 7.71732C57.744 9.60832 57.2084 11.4113 56.1373 13.1263C55.1124 14.8412 53.7384 16.4902 52.0152 18.0735C50.3383 19.6564 48.5219 21.1957 46.5655 22.6905C44.6094 24.1858 42.7231 25.6587 40.9067 27.1099C39.09 28.5612 37.5298 30.0125 36.2257 31.4634C34.9216 32.9146 34.083 34.3878 33.7104 35.8828C33.7104 36.7183 34.013 37.3781 34.6186 37.8619C35.2241 38.3016 35.9695 38.6093 36.8543 38.7853C37.7859 38.9171 38.6941 38.9831 39.5793 38.9831C40.6503 38.9831 41.908 38.895 43.3518 38.7193C44.8425 38.4993 46.3094 38.2356 47.7533 37.9278C49.1973 37.5758 50.4084 37.2021 51.3864 36.8063C53.6221 35.6631 55.3686 34.0358 56.6263 31.9252C57.9304 29.7705 59.095 27.5277 60.1195 25.1974C60.2592 25.0652 60.3526 24.9993 60.3991 24.9993C60.5853 24.9993 60.7017 25.0874 60.7485 25.263C60.8415 25.3951 60.8882 25.549 60.8882 25.7248V25.9889C60.562 26.9999 60.1894 28.2536 59.7703 29.7484C59.3975 31.2437 58.9551 32.7827 58.4428 34.3659C57.9306 35.9049 57.3251 37.3121 56.6263 38.5872C55.9741 39.8625 55.2058 40.764 54.3206 41.2918C54.1344 41.4678 53.9017 41.5775 53.6221 41.6215C53.3425 41.6656 53.0865 41.6875 52.8536 41.6875C52.0154 41.6875 51.2 41.6215 50.4084 41.4898C49.6165 41.3138 48.8247 41.1818 48.0328 41.0937C46.8684 41.006 45.7042 40.9181 44.5395 40.83C43.4216 40.7419 42.2574 40.6981 41.0463 40.6981C38.4845 40.6981 35.9228 40.764 33.361 40.896C30.7993 40.9841 28.2375 41.2257 25.6758 41.6215C25.6293 41.6215 25.5828 41.6435 25.5361 41.6875C25.5361 41.6875 25.4896 41.6875 25.3966 41.6875Z" fill="white"/>
<path d="M88.6665 39.875H73.9156C71.0721 39.875 69.4331 38.8982 68.9988 36.9447C68.8406 36.3656 68.7617 35.7508 68.7617 35.0996V17.5173C68.7617 15.9978 69.2159 14.8218 70.1243 13.9899C71.0721 13.1216 72.4939 12.6875 74.3895 12.6875H88.6665V19.5793H84.6381V16.4319H73.501V36.1849H84.6381V33.0375H88.6665V39.875Z" fill="white"/>
<path d="M19.9048 54.375H5.15396C2.31036 54.375 0.671368 53.3982 0.236984 51.4447C0.0789598 50.8656 0 50.2508 0 49.5996V32.0173C0 30.4978 0.454176 29.3219 1.36253 28.4898C2.31036 27.6216 3.73216 27.1875 5.62782 27.1875H19.9048V34.0794H15.8765V30.9319H4.73927V50.6849H15.8765V47.5375H19.9048V54.375Z" fill="white"/>
<path d="M28.5179 54.3749C27.3176 54.3749 26.4248 54.0849 25.8398 53.5049C25.2607 52.9249 24.9712 52.0368 24.9712 50.8405V48.738C24.9712 47.5237 25.2607 46.6296 25.8398 46.0555C26.4248 45.4755 27.3176 45.1855 28.5179 45.1855H30.0017C31.2081 45.1855 32.1007 45.4755 32.6798 46.0555C33.2588 46.6355 33.5483 47.5297 33.5483 48.738V50.8224C33.5483 52.0247 33.2588 52.9189 32.6798 53.5049C32.1007 54.0849 31.2081 54.3749 30.0017 54.3749H28.5179ZM26.4912 50.8405C26.4912 51.6199 26.6329 52.1515 26.9164 52.4355C27.2 52.7134 27.7338 52.8524 28.5179 52.8524H30.0017C30.7919 52.8524 31.3257 52.7105 31.6031 52.4265C31.8866 52.1425 32.0283 51.6078 32.0283 50.8224V48.738C32.0283 47.9465 31.8866 47.4118 31.6031 47.134C31.3257 46.85 30.7919 46.708 30.0017 46.708H28.5179C27.9931 46.708 27.5829 46.7684 27.2874 46.8893C26.9979 47.004 26.7928 47.2096 26.6721 47.5055C26.5514 47.7955 26.4912 48.2064 26.4912 48.738V50.8405ZM46.9169 45.1855C48.0569 45.1855 48.8743 45.4543 49.3688 45.9921C49.8695 46.5299 50.1198 47.4209 50.1198 48.6655V53.6137C50.1198 54.1212 49.8664 54.3749 49.3598 54.3749C48.8531 54.3749 48.5998 54.1212 48.5998 53.6137V48.6655C48.5998 47.9768 48.4671 47.4784 48.2017 47.1702C47.9424 46.8621 47.5141 46.708 46.9169 46.708H46.175C45.4874 46.708 44.9957 46.8621 44.7002 47.1702C44.4048 47.4784 44.2569 47.9768 44.2569 48.6655V53.6137C44.2569 54.1212 44.0036 54.3749 43.4969 54.3749C42.9903 54.3749 42.7369 54.1212 42.7369 53.6137V48.6655C42.7369 47.9768 42.6043 47.4784 42.3388 47.1702C42.0795 46.8621 41.6512 46.708 41.0541 46.708H40.3122C39.6245 46.708 39.1329 46.8621 38.8374 47.1702C38.5419 47.4784 38.3941 47.9768 38.3941 48.6655V53.6137C38.3941 54.1212 38.1407 54.3749 37.6341 54.3749C37.1274 54.3749 36.8741 54.1212 36.8741 53.6137V45.9468C36.8741 45.4393 37.1274 45.1855 37.6341 45.1855C38.1407 45.1855 38.3941 45.4393 38.3941 45.9468V46.3637C38.7138 45.9468 39.0636 45.6477 39.4436 45.4665C39.8296 45.2793 40.2881 45.1855 40.8188 45.1855H41.0541C41.8019 45.1855 42.39 45.2912 42.8183 45.5027C43.2467 45.7081 43.5724 46.0434 43.7955 46.5087C44.1152 46.0314 44.4529 45.693 44.8088 45.4937C45.1707 45.2883 45.6262 45.1855 46.175 45.1855H46.9169ZM54.457 57.9999C53.9504 57.9999 53.697 57.7462 53.697 57.2387V45.9468C53.697 45.4393 53.9504 45.1855 54.457 45.1855C54.9637 45.1855 55.217 45.4393 55.217 45.9468V46.1734C55.5427 45.8471 55.9437 45.6024 56.4204 45.4393C56.9028 45.2702 57.4427 45.1855 58.0399 45.1855H58.7275C59.9337 45.1855 60.8265 45.4755 61.4056 46.0555C61.9846 46.6355 62.2742 47.5297 62.2742 48.738V50.8224C62.2742 52.0247 61.9846 52.9189 61.4056 53.5049C60.8265 54.0849 59.9337 54.3749 58.7275 54.3749H55.217V57.2387C55.217 57.7462 54.9637 57.9999 54.457 57.9999ZM55.217 52.8524H58.7275C59.5175 52.8524 60.0514 52.7105 60.3289 52.4265C60.6123 52.1425 60.7542 51.6078 60.7542 50.8224V48.738C60.7542 47.9465 60.6123 47.4118 60.3289 47.134C60.0514 46.85 59.5175 46.708 58.7275 46.708H58.0399C57.2858 46.708 56.6344 46.7987 56.0856 46.9799C55.5366 47.1612 55.2471 47.4481 55.217 47.8409V52.8524ZM68.4302 54.3749C67.4168 54.3749 66.6628 54.1272 66.1683 53.6318C65.6737 53.1364 65.4264 52.3812 65.4264 51.3662C65.4264 50.3512 65.6706 49.5959 66.1592 49.1005C66.6538 48.6052 67.4109 48.3574 68.4302 48.3574H72.2573C72.2211 47.723 72.0552 47.2911 71.7597 47.0615C71.4642 46.8259 70.9575 46.708 70.2397 46.708H69.1902C68.5871 46.708 68.1376 46.7503 67.8421 46.8349C67.5466 46.9134 67.3385 47.0584 67.2178 47.2699C67.1092 47.5237 66.9976 47.6989 66.883 47.7955C66.7685 47.8922 66.5966 47.9405 66.3673 47.9405C66.114 47.9405 65.9149 47.8711 65.7702 47.7321C65.6254 47.5871 65.5832 47.3968 65.6435 47.1612C65.8244 46.4784 66.2014 45.98 66.7744 45.6659C67.3535 45.3456 68.1587 45.1855 69.1902 45.1855H70.2397C71.4461 45.1855 72.3387 45.4755 72.9178 46.0555C73.4968 46.6355 73.7864 47.5297 73.7864 48.738V53.6137C73.7864 54.1212 73.533 54.3749 73.0264 54.3749C72.5197 54.3749 72.2664 54.1212 72.2664 53.6137V53.2059C71.6209 53.9852 70.6799 54.3749 69.4435 54.3749H68.4302ZM68.4302 52.8524H69.4435C69.8899 52.8524 70.309 52.8131 70.7011 52.7346C71.0932 52.65 71.428 52.499 71.7054 52.2815C71.989 52.064 72.1759 51.7528 72.2664 51.348V49.8799H68.4302C67.833 49.8799 67.4349 49.9796 67.2359 50.179C67.0428 50.3784 66.9464 50.774 66.9464 51.3662C66.9464 51.9643 67.0428 52.363 67.2359 52.5624C67.4349 52.7558 67.833 52.8524 68.4302 52.8524ZM78.1363 54.3749C77.6296 54.3749 77.3763 54.1212 77.3763 53.6137V45.9468C77.3763 45.4393 77.6296 45.1855 78.1363 45.1855C78.6429 45.1855 78.8963 45.4393 78.8963 45.9468V46.2459C79.5356 45.539 80.4765 45.1855 81.7191 45.1855H82.2258C83.4322 45.1855 84.3248 45.4755 84.9039 46.0555C85.4829 46.6355 85.7725 47.5297 85.7725 48.738V53.6137C85.7725 54.1212 85.5191 54.3749 85.0125 54.3749C84.5058 54.3749 84.2525 54.1212 84.2525 53.6137V48.738C84.2525 47.9465 84.1077 47.4118 83.8182 47.134C83.5346 46.85 83.0039 46.708 82.2258 46.708H81.7191C80.9953 46.708 80.3651 46.7927 79.8282 46.9618C79.2913 47.1249 78.9808 47.3847 78.8963 47.7412V53.6137C78.8963 54.1212 78.6429 54.3749 78.1363 54.3749ZM91.7821 57.9999C90.9075 57.9999 90.253 57.7793 89.8187 57.3384C89.3904 56.9034 89.1764 56.2478 89.1764 55.3718C89.1764 54.8643 89.4297 54.6105 89.9364 54.6105C90.443 54.6105 90.6964 54.8643 90.6964 55.3718C90.6964 55.8249 90.7628 56.1209 90.8954 56.2599C91.0342 56.4049 91.3297 56.4774 91.7821 56.4774H95.2926C95.739 56.4774 96.0314 56.4049 96.1702 56.2599C96.309 56.1209 96.3783 55.8249 96.3783 55.3718V53.0699C96.0164 53.6137 95.5942 53.9671 95.1116 54.1302C94.6351 54.2934 94.1164 54.3749 93.5554 54.3749H92.6687C91.4745 54.3749 90.5938 54.0909 90.0268 53.523C89.4599 52.9552 89.1764 52.079 89.1764 50.8949V45.9468C89.1764 45.4393 89.4297 45.1855 89.9364 45.1855C90.443 45.1855 90.6964 45.4393 90.6964 45.9468V50.8949C90.6964 51.6562 90.8321 52.1727 91.1035 52.4446C91.3809 52.7165 91.9028 52.8524 92.6687 52.8524H93.5554C94.5447 52.8524 95.2623 52.6924 95.7087 52.3721C96.1552 52.0459 96.3783 51.5534 96.3783 50.8949V45.9468C96.3783 45.4393 96.6316 45.1855 97.1383 45.1855C97.6449 45.1855 97.8983 45.4393 97.8983 45.9468V55.3718C97.8983 56.2478 97.6811 56.9034 97.2468 57.3384C96.8125 57.7793 96.1611 57.9999 95.2926 57.9999H91.7821Z" fill="white"/>
<path d="M93.3715 32.6251C92.3582 32.6251 91.6041 32.3773 91.1096 31.8819C90.615 31.3866 90.3677 30.6313 90.3677 29.6163C90.3677 28.6013 90.612 27.846 91.1005 27.3507C91.5951 26.8553 92.3522 26.6076 93.3715 26.6076H97.1986C97.1624 25.9732 96.9965 25.5413 96.701 25.3116C96.4055 25.076 95.8988 24.9582 95.181 24.9582H94.1315C93.5284 24.9582 93.0789 25.0004 92.7834 25.0851C92.4879 25.1635 92.2798 25.3085 92.1591 25.5201C92.0505 25.7738 91.9389 25.9491 91.8243 26.0457C91.7098 26.1423 91.5379 26.1907 91.3086 26.1907C91.0553 26.1907 90.8563 26.1213 90.7115 25.9822C90.5667 25.8372 90.5246 25.6469 90.5848 25.4113C90.7658 24.7285 91.1427 24.2301 91.7158 23.916C92.2948 23.5957 93.1001 23.4357 94.1315 23.4357H95.181C96.3874 23.4357 97.2801 23.7257 97.8591 24.3057C98.4382 24.8857 98.7277 25.7798 98.7277 26.9882V31.8638C98.7277 32.3713 98.4743 32.6251 97.9677 32.6251C97.461 32.6251 97.2077 32.3713 97.2077 31.8638V31.456C96.5622 32.2354 95.6213 32.6251 94.3848 32.6251H93.3715ZM93.3715 31.1026H94.3848C94.8312 31.1026 95.2503 31.0632 95.6424 30.9847C96.0346 30.9001 96.3693 30.7491 96.6467 30.5316C96.9303 30.3141 97.1172 30.0029 97.2077 29.5982V28.1301H93.3715C92.7743 28.1301 92.3762 28.2297 92.1772 28.4291C91.9841 28.6285 91.8877 29.0242 91.8877 29.6163C91.8877 30.2144 91.9841 30.6132 92.1772 30.8126C92.3762 31.006 92.7743 31.1026 93.3715 31.1026ZM103.078 32.6251C102.571 32.6251 102.318 32.3713 102.318 31.8638V24.1969C102.318 23.6894 102.571 23.4357 103.078 23.4357C103.584 23.4357 103.838 23.6894 103.838 24.1969V24.496C104.477 23.7891 105.418 23.4357 106.66 23.4357H107.167C108.374 23.4357 109.266 23.7257 109.845 24.3057C110.424 24.8857 110.714 25.7798 110.714 26.9882V31.8638C110.714 32.3713 110.46 32.6251 109.954 32.6251C109.447 32.6251 109.194 32.3713 109.194 31.8638V26.9882C109.194 26.1967 109.049 25.662 108.76 25.3841C108.476 25.1001 107.945 24.9582 107.167 24.9582H106.66C105.937 24.9582 105.306 25.0428 104.769 25.2119C104.233 25.3751 103.922 25.6348 103.838 25.9913V31.8638C103.838 32.3713 103.584 32.6251 103.078 32.6251ZM117.411 32.6251C116.211 32.6251 115.318 32.3351 114.733 31.7551C114.154 31.1691 113.864 30.2748 113.864 29.0726V26.9882C113.864 25.7798 114.154 24.8857 114.733 24.3057C115.318 23.7257 116.211 23.4357 117.411 23.4357H120.921V20.6263C120.921 20.1188 121.175 19.8651 121.681 19.8651C122.188 19.8651 122.441 20.1188 122.441 20.6263V31.8638C122.441 32.3713 122.188 32.6251 121.681 32.6251C121.175 32.6251 120.921 32.3713 120.921 31.8638V31.7369C120.638 32.0269 120.267 32.2475 119.809 32.3985C119.35 32.5495 118.78 32.6251 118.099 32.6251H117.411ZM117.411 31.1026H118.099C118.895 31.1026 119.564 30.9998 120.107 30.7944C120.65 30.5891 120.921 30.2748 120.921 29.8519V24.9582H117.411C116.627 24.9582 116.093 25.1032 115.81 25.3932C115.526 25.6772 115.384 26.2088 115.384 26.9882V29.0726C115.384 29.8579 115.526 30.3926 115.81 30.6766C116.099 30.9606 116.633 31.1026 117.411 31.1026ZM126.539 21.9494C125.966 21.9494 125.679 21.6594 125.679 21.0794V20.5447C125.679 19.9769 125.966 19.6929 126.539 19.6929H127.064C127.613 19.6929 127.887 19.9769 127.887 20.5447V21.0794C127.887 21.6594 127.613 21.9494 127.064 21.9494H126.539ZM126.792 32.6251C126.286 32.6251 126.032 32.3713 126.032 31.8638V24.1969C126.032 23.6894 126.286 23.4357 126.792 23.4357C127.299 23.4357 127.552 23.6894 127.552 24.1969V31.8638C127.552 32.3713 127.299 32.6251 126.792 32.6251ZM134.428 32.6251C133.228 32.6251 132.335 32.3351 131.75 31.7551C131.171 31.1691 130.882 30.2748 130.882 29.0726V26.9882C130.882 25.7798 131.171 24.8857 131.75 24.3057C132.335 23.7257 133.228 23.4357 134.428 23.4357H137.939V20.6263C137.939 20.1188 138.192 19.8651 138.699 19.8651C139.205 19.8651 139.459 20.1188 139.459 20.6263V31.8638C139.459 32.3713 139.205 32.6251 138.699 32.6251C138.192 32.6251 137.939 32.3713 137.939 31.8638V31.7369C137.655 32.0269 137.284 32.2475 136.826 32.3985C136.368 32.5495 135.798 32.6251 135.116 32.6251H134.428ZM134.428 31.1026H135.116C135.912 31.1026 136.582 30.9998 137.125 30.7944C137.667 30.5891 137.939 30.2748 137.939 29.8519V24.9582H134.428C133.644 24.9582 133.11 25.1032 132.827 25.3932C132.543 25.6772 132.402 26.2088 132.402 26.9882V29.0726C132.402 29.8579 132.543 30.3926 132.827 30.6766C133.116 30.9606 133.65 31.1026 134.428 31.1026ZM145.872 32.6251C144.859 32.6251 144.105 32.3773 143.611 31.8819C143.116 31.3866 142.869 30.6313 142.869 29.6163C142.869 28.6013 143.113 27.846 143.602 27.3507C144.096 26.8553 144.853 26.6076 145.872 26.6076H149.7C149.663 25.9732 149.497 25.5413 149.202 25.3116C148.906 25.076 148.4 24.9582 147.682 24.9582H146.632C146.029 24.9582 145.58 25.0004 145.284 25.0851C144.989 25.1635 144.781 25.3085 144.66 25.5201C144.552 25.7738 144.44 25.9491 144.325 26.0457C144.211 26.1423 144.039 26.1907 143.81 26.1907C143.556 26.1907 143.357 26.1213 143.212 25.9822C143.068 25.8372 143.025 25.6469 143.086 25.4113C143.267 24.7285 143.644 24.2301 144.217 23.916C144.796 23.5957 145.601 23.4357 146.632 23.4357H147.682C148.888 23.4357 149.781 23.7257 150.36 24.3057C150.939 24.8857 151.229 25.7798 151.229 26.9882V31.8638C151.229 32.3713 150.975 32.6251 150.469 32.6251C149.962 32.6251 149.709 32.3713 149.709 31.8638V31.456C149.063 32.2354 148.122 32.6251 146.886 32.6251H145.872ZM145.872 31.1026H146.886C147.332 31.1026 147.751 31.0632 148.143 30.9847C148.535 30.9001 148.87 30.7491 149.148 30.5316C149.431 30.3141 149.618 30.0029 149.709 29.5982V28.1301H145.872C145.275 28.1301 144.877 28.2297 144.678 28.4291C144.485 28.6285 144.389 29.0242 144.389 29.6163C144.389 30.2144 144.485 30.6132 144.678 30.8126C144.877 31.006 145.275 31.1026 145.872 31.1026ZM158.691 32.6251C157.497 32.6251 156.616 32.341 156.049 31.7732C155.482 31.2053 155.199 30.3292 155.199 29.1451V24.9582H154.312C153.805 24.9582 153.552 24.7044 153.552 24.1969C153.552 23.6894 153.805 23.4357 154.312 23.4357H155.199V22.1126C155.199 21.6051 155.452 21.3513 155.959 21.3513C156.465 21.3513 156.719 21.6051 156.719 22.1126V23.4357H158.8C159.306 23.4357 159.56 23.6894 159.56 24.1969C159.56 24.7044 159.306 24.9582 158.8 24.9582H156.719V29.1451C156.719 29.9123 156.857 30.4319 157.135 30.7038C157.412 30.9697 157.931 31.1026 158.691 31.1026C158.926 31.1026 159.11 31.1629 159.243 31.2838C159.381 31.4047 159.451 31.5979 159.451 31.8638C159.451 32.3713 159.198 32.6251 158.691 32.6251ZM162.761 28.6557V29.0907C162.761 29.8701 162.902 30.4017 163.186 30.6857C163.469 30.9635 164.003 31.1026 164.787 31.1026H166.271C166.886 31.1026 167.342 31.0451 167.637 30.9304C167.933 30.8156 168.129 30.6132 168.225 30.3232C168.292 30.0935 168.382 29.9185 168.497 29.7976C168.617 29.6767 168.798 29.6163 169.04 29.6163C169.293 29.6163 169.486 29.6828 169.619 29.8157C169.751 29.9485 169.794 30.1419 169.745 30.3957C169.613 31.1448 169.257 31.7038 168.678 32.0722C168.099 32.4407 167.297 32.6251 166.271 32.6251H164.787C163.587 32.6251 162.694 32.3351 162.109 31.7551C161.53 31.1751 161.241 30.2869 161.241 29.0907V26.9882C161.241 25.7617 161.53 24.8616 162.109 24.2876C162.694 23.7076 163.587 23.4235 164.787 23.4357H166.271C167.477 23.4357 168.37 23.7257 168.949 24.3057C169.528 24.8797 169.818 25.7738 169.818 26.9882V27.8944C169.818 28.4019 169.564 28.6557 169.058 28.6557H162.761ZM164.787 24.9582C164.003 24.946 163.469 25.082 163.186 25.366C162.902 25.65 162.761 26.1907 162.761 26.9882V27.1332H168.298V26.9882C168.298 26.1967 168.156 25.662 167.872 25.3841C167.595 25.1001 167.061 24.9582 166.271 24.9582H164.787Z" fill="white"/>
</svg>
