<svg width="3926" height="3785" viewBox="0 0 3926 3785" fill="none" xmlns="http://www.w3.org/2000/svg">
<path d="M3883.5 1745.5C3883.5 2681.49 3028.49 3448.5 1963 3448.5C897.508 3448.5 42.5 2681.49 42.5 1745.5C42.5 809.514 897.508 42.5 1963 42.5C3028.49 42.5 3883.5 809.514 3883.5 1745.5Z" fill="white" stroke="#FF9F0F" stroke-width="85"/>
<path d="M2484.71 680.717C2494.69 679.009 2502.86 670.384 2502.86 661.523V637.388C2502.86 628.537 2494.69 619.902 2484.71 618.204L2457.86 613.63C2447.86 611.932 2437.11 603.653 2433.95 595.237L2425.78 577.945C2421.16 570.059 2422.03 557.598 2427.71 550.257L2442.97 530.513C2448.64 523.161 2447.41 512.037 2440.22 505.78L2420.6 488.713C2413.4 482.446 2400.62 481.377 2392.17 486.308L2369.49 499.586C2361.05 504.528 2346.72 505.287 2337.66 501.268L2317.78 494.158C2308.12 491.407 2298.6 482.043 2296.65 473.35L2291.4 449.99C2289.44 441.307 2279.52 434.202 2269.35 434.202H2241.61C2231.43 434.202 2221.52 441.307 2219.56 449.99L2214.31 473.35C2212.35 482.043 2202.84 491.407 2193.18 494.158L2173.3 501.268C2164.23 505.287 2149.91 504.528 2141.47 499.586L2118.79 486.319C2110.35 481.377 2097.57 482.446 2090.37 488.713L2070.76 505.78C2063.56 512.037 2062.32 523.172 2068 530.513L2083.26 550.247C2088.94 557.593 2089.8 570.054 2085.18 577.935L2077.01 595.232C2073.85 603.653 2063.1 611.927 2053.11 613.624L2026.26 618.199C2016.28 619.897 2008.11 628.532 2008.11 637.383V661.518C2008.11 670.379 2016.28 679.004 2026.26 680.712L2053.11 685.281C2063.1 686.979 2073.85 695.253 2077.01 703.663L2085.18 720.966C2089.8 728.852 2088.94 741.313 2083.26 748.654L2068 768.398C2062.32 775.74 2063.56 786.875 2070.76 793.121L2090.37 810.198C2097.57 816.454 2110.35 817.529 2118.79 812.592L2141.47 799.314C2149.91 794.383 2164.23 793.624 2173.3 797.643L2193.18 804.748C2202.84 807.499 2212.35 816.863 2214.31 825.546L2219.56 848.916C2221.52 857.599 2231.43 864.704 2241.61 864.704H2269.35C2279.52 864.704 2289.44 857.599 2291.4 848.916L2296.65 825.546C2298.6 816.863 2308.11 807.499 2317.78 804.748L2337.66 797.643C2346.72 793.624 2361.05 794.378 2369.49 799.314L2392.17 812.592C2400.6 817.534 2413.39 816.454 2420.59 810.198L2440.22 793.131C2447.4 786.875 2448.65 775.74 2442.97 768.398L2427.71 748.654C2422.04 741.302 2421.16 728.847 2425.78 720.966L2433.95 703.663C2437.11 695.253 2447.86 686.979 2457.86 685.281L2484.71 680.717ZM2160.69 649.456C2160.69 603.909 2203.12 566.983 2255.48 566.983C2307.83 566.983 2350.27 603.904 2350.27 649.456C2350.27 695.007 2307.83 731.938 2255.48 731.938C2203.13 731.938 2160.69 695.007 2160.69 649.456Z" fill="#EFE29D"/>
<path d="M2399.27 649.456C2399.27 718.561 2334.9 774.576 2255.48 774.576C2176.07 774.576 2111.69 718.566 2111.69 649.456C2111.69 580.356 2176.07 524.335 2255.48 524.335C2334.9 524.335 2399.27 580.356 2399.27 649.456Z" stroke="#D6CFF7" stroke-width="3.2701" stroke-miterlimit="10"/>
<path d="M2018.86 2026.81C2030.21 2024.86 2039.51 2015.04 2039.51 2004.97V1977.5C2039.51 1967.43 2030.21 1957.61 2018.86 1955.68L1988.3 1950.47C1976.93 1948.54 1964.7 1939.12 1961.1 1929.55L1951.8 1909.86C1946.54 1900.89 1947.53 1886.71 1953.99 1878.36L1971.36 1855.89C1977.82 1847.53 1976.41 1834.86 1968.22 1827.74L1945.9 1808.32C1937.72 1801.19 1923.16 1799.97 1913.56 1805.58L1887.74 1820.7C1878.14 1826.32 1861.83 1827.18 1851.52 1822.61L1828.9 1814.52C1817.9 1811.38 1807.08 1800.73 1804.85 1790.85L1798.87 1764.27C1796.65 1754.37 1785.36 1746.29 1773.79 1746.29H1742.21C1730.64 1746.29 1719.35 1754.37 1717.13 1764.27L1711.15 1790.85C1708.92 1800.73 1698.11 1811.38 1687.11 1814.52L1664.49 1822.61C1654.17 1827.18 1637.87 1826.32 1628.26 1820.7L1602.45 1805.59C1592.85 1799.97 1578.3 1801.2 1570.11 1808.32L1547.79 1827.74C1539.6 1834.87 1538.19 1847.53 1544.65 1855.89L1562.01 1878.35C1568.47 1886.71 1569.46 1900.88 1564.2 1909.86L1554.9 1929.55C1551.3 1939.12 1539.07 1948.54 1527.7 1950.48L1497.15 1955.67C1485.79 1957.61 1476.5 1967.44 1476.5 1977.51V2004.98C1476.5 2015.05 1485.79 2024.87 1497.15 2026.81L1527.7 2032.01C1539.07 2033.94 1551.3 2043.35 1554.9 2052.93L1564.2 2072.62C1569.46 2081.59 1568.47 2095.78 1562.01 2104.13L1544.65 2126.6C1538.19 2134.95 1539.6 2147.61 1547.79 2154.73L1570.11 2174.16C1578.3 2181.28 1592.85 2182.51 1602.45 2176.89L1628.26 2161.78C1637.87 2156.17 1654.17 2155.3 1664.49 2159.87L1687.11 2167.97C1698.11 2171.1 1708.93 2181.75 1711.15 2191.63L1717.13 2218.22C1719.36 2228.11 1730.64 2236.19 1742.21 2236.19H1773.79C1785.36 2236.19 1796.65 2228.11 1798.87 2218.22L1804.85 2191.63C1807.08 2181.75 1817.9 2171.1 1828.9 2167.97L1851.52 2159.87C1861.83 2155.3 1878.14 2156.17 1887.74 2161.78L1913.56 2176.89C1923.16 2182.52 1937.71 2181.28 1945.9 2174.16L1968.23 2154.73C1976.41 2147.61 1977.82 2134.95 1971.36 2126.6L1954 2104.13C1947.54 2095.77 1946.55 2081.59 1951.8 2072.62L1961.11 2052.93C1964.7 2043.35 1976.94 2033.95 1988.3 2032.01L2018.86 2026.81ZM1650.13 1991.24C1650.13 1939.4 1698.43 1897.38 1758 1897.38C1817.58 1897.38 1865.87 1939.4 1865.87 1991.24C1865.87 2043.08 1817.57 2085.09 1758 2085.09C1698.43 2085.09 1650.13 2043.07 1650.13 1991.24Z" fill="#EFE29D"/>
<path d="M1921.63 1991.24C1921.63 2069.87 1848.37 2133.62 1758 2133.62C1667.64 2133.62 1594.38 2069.87 1594.38 1991.24C1594.38 1912.6 1667.64 1848.85 1758 1848.85C1848.37 1848.85 1921.63 1912.6 1921.63 1991.24Z" stroke="#D6CFF7" stroke-width="3.2701" stroke-miterlimit="10"/>
<path d="M2560.28 2312.4C2574.14 2310.02 2585.5 2298.02 2585.5 2285.73V2252.19C2585.5 2239.89 2574.14 2227.89 2560.28 2225.54L2522.97 2219.18C2509.08 2216.82 2494.14 2205.33 2489.75 2193.63L2478.4 2169.6C2471.98 2158.65 2473.19 2141.33 2481.08 2131.13L2502.28 2103.7C2510.17 2093.5 2508.45 2078.03 2498.45 2069.33L2471.19 2045.61C2461.19 2036.92 2443.42 2035.41 2431.69 2042.27L2400.17 2060.73C2388.44 2067.6 2368.54 2068.65 2355.95 2063.06L2328.32 2053.18C2314.9 2049.35 2301.68 2036.35 2298.97 2024.28L2291.67 1991.82C2288.95 1979.74 2275.17 1969.87 2261.03 1969.87H2222.48C2208.35 1969.87 2194.56 1979.74 2191.85 1991.82L2184.55 2024.28C2181.83 2036.34 2168.62 2049.35 2155.19 2053.18L2127.57 2063.06C2114.97 2068.65 2095.07 2067.6 2083.34 2060.73L2051.83 2042.28C2040.1 2035.41 2022.33 2036.91 2012.33 2045.61L1985.08 2069.32C1975.08 2078.03 1973.36 2093.49 1981.25 2103.69L2002.45 2131.12C2010.34 2141.32 2011.54 2158.63 2005.12 2169.6L1993.76 2193.63C1989.37 2205.32 1974.43 2216.81 1960.55 2219.19L1923.25 2225.53C1909.37 2227.89 1898.03 2239.89 1898.03 2252.18V2285.73C1898.03 2298.03 1909.37 2310.03 1923.25 2312.4L1960.55 2318.74C1974.43 2321.09 1989.37 2332.59 1993.76 2344.29L2005.12 2368.33C2011.54 2379.28 2010.34 2396.59 2002.45 2406.8L1981.25 2434.23C1973.36 2444.42 1975.08 2459.89 1985.08 2468.59L2012.33 2492.32C2022.33 2501.01 2040.1 2502.5 2051.83 2495.65L2083.34 2477.2C2095.07 2470.33 2114.97 2469.28 2127.57 2474.87L2155.19 2484.76C2168.63 2488.59 2181.83 2501.58 2184.55 2513.66L2191.85 2546.12C2194.56 2558.18 2208.35 2568.07 2222.48 2568.07H2261.03C2275.17 2568.07 2288.95 2558.18 2291.67 2546.12L2298.97 2513.66C2301.68 2501.58 2314.9 2488.59 2328.32 2484.76L2355.95 2474.87C2368.54 2469.29 2388.44 2470.33 2400.17 2477.2L2431.68 2495.65C2443.41 2502.52 2461.19 2501.01 2471.18 2492.32L2498.45 2468.59C2508.43 2459.9 2510.16 2444.44 2502.27 2434.23L2481.07 2406.8C2473.18 2396.59 2471.98 2379.28 2478.4 2368.33L2489.75 2344.29C2494.14 2332.59 2509.08 2321.11 2522.96 2318.74L2560.28 2312.4ZM2110.06 2268.96C2110.06 2205.67 2169.02 2154.35 2241.77 2154.35C2314.5 2154.35 2373.47 2205.67 2373.47 2268.96C2373.47 2332.26 2314.5 2383.57 2241.77 2383.57C2169.02 2383.57 2110.06 2332.26 2110.06 2268.96Z" fill="#EFE29D"/>
<path d="M2441.57 2268.96C2441.57 2364.97 2352.11 2442.82 2241.77 2442.82C2131.43 2442.82 2041.98 2364.97 2041.98 2268.96C2041.98 2172.94 2131.43 2095.11 2241.77 2095.11C2352.11 2095.11 2441.57 2172.94 2441.57 2268.96Z" stroke="#D6CFF7" stroke-width="4" stroke-miterlimit="10"/>
<path d="M3206.43 650.467H2933.41V952.631H3122.72L3206.43 878.37V650.467Z" fill="white"/>
<path d="M3169.23 706.032C3169.23 710.287 3165.26 713.735 3160.37 713.735H2978.62C2973.74 713.735 2969.77 710.287 2969.77 706.032C2969.77 701.777 2973.73 698.329 2978.62 698.329H3160.37C3165.26 698.329 3169.23 701.782 3169.23 706.032Z" fill="#FFBF90"/>
<path d="M3169.23 753.789C3169.23 758.044 3165.26 761.492 3160.37 761.492H2978.62C2973.74 761.492 2969.77 758.039 2969.77 753.789C2969.77 749.534 2973.73 746.086 2978.62 746.086H3160.37C3165.26 746.086 3169.23 749.534 3169.23 753.789Z" fill="#FFBF90"/>
<path d="M3169.23 801.552C3169.23 805.807 3165.26 809.255 3160.37 809.255H2978.62C2973.74 809.255 2969.77 805.807 2969.77 801.552C2969.77 797.297 2973.73 793.849 2978.62 793.849H3160.37C3165.26 793.854 3169.23 797.297 3169.23 801.552Z" fill="#FFBF90"/>
<path d="M3169.23 897.067C3169.23 901.321 3165.26 904.769 3160.37 904.769H2978.62C2973.74 904.769 2969.77 901.321 2969.77 897.067C2969.77 892.806 2973.73 889.364 2978.62 889.364H3160.37C3165.26 889.364 3169.23 892.806 3169.23 897.067Z" fill="#FFBF90"/>
<path d="M3169.23 849.309C3169.23 853.569 3165.26 857.017 3160.37 857.017H2978.62C2973.74 857.017 2969.77 853.569 2969.77 849.309C2969.77 845.054 2973.73 841.606 2978.62 841.606H3160.37C3165.26 841.606 3169.23 845.054 3169.23 849.309Z" fill="#FFBF90"/>
<path d="M3122.72 952.632L3206.43 878.37H3122.72V952.632Z" fill="#F1EAFA"/>
<path d="M1224.87 2392.78L1117.92 2278.66L1010.96 2392.78H1060.57V2482.18H1175.25V2392.78H1224.87Z" fill="#F2E148"/>
<path d="M1059.18 319.655L1057.67 297.68L1057.31 288.128H1067.94L1067.58 297.68L1066.08 319.655H1059.18ZM1062.63 337.106C1060.81 337.106 1059.28 336.484 1058.03 335.239C1056.84 333.947 1056.24 332.367 1056.24 330.499C1056.24 328.584 1056.84 327.004 1058.03 325.76C1059.28 324.467 1060.81 323.82 1062.63 323.82C1064.45 323.82 1065.96 324.467 1067.15 325.76C1068.4 327.004 1069.02 328.584 1069.02 330.499C1069.02 332.367 1068.4 333.947 1067.15 335.239C1065.96 336.484 1064.45 337.106 1062.63 337.106Z" fill="white"/>
<path d="M2606.79 483.95H2895.21C2895.21 483.95 2896.55 445.52 2873.8 433.295C2851.04 421.065 2823.61 428.055 2823.61 428.055C2823.61 428.055 2845.69 386.13 2809.55 365.165C2773.41 344.205 2747.32 393.115 2747.32 393.115C2747.32 393.115 2723.9 363.42 2699.81 379.14C2675.72 394.865 2679.06 428.055 2679.06 428.055C2679.06 428.055 2654.31 409.416 2630.21 423.391C2606.12 437.367 2606.79 483.95 2606.79 483.95Z" fill="white"/>
<path d="M1874.14 2607.68H1606.53C1606.53 2607.68 1605.29 2573.65 1626.4 2562.82C1647.51 2551.99 1672.97 2558.18 1672.97 2558.18C1672.97 2558.18 1652.48 2521.05 1686 2502.48C1719.53 2483.92 1743.75 2527.24 1743.75 2527.24C1743.75 2527.24 1765.48 2500.94 1787.83 2514.86C1810.18 2528.79 1807.08 2558.18 1807.08 2558.18C1807.08 2558.18 1830.05 2541.68 1852.4 2554.05C1874.76 2566.43 1874.14 2607.68 1874.14 2607.68Z" fill="white"/>
<path d="M632.25 787.294H866.464C866.464 787.294 877.171 745.369 854.42 737.215C831.669 729.062 822.298 744.205 822.298 744.205C822.298 744.205 833.005 697.616 803.558 690.631C774.116 683.641 760.729 712.76 760.729 712.76C760.729 712.76 746.012 690.637 727.271 695.877C708.537 701.117 704.52 741.879 704.52 741.879C704.52 741.879 683.106 727.904 660.355 738.384C637.604 748.864 632.25 787.294 632.25 787.294Z" fill="white"/>
<path d="M2873.79 1788.71C2873.79 1823.44 2841.43 1851.59 2801.53 1851.59H1139.45C1099.55 1851.59 1067.19 1823.44 1067.19 1788.71V814.07C1067.19 779.345 1099.55 751.19 1139.45 751.19H2801.53C2841.43 751.19 2873.79 779.345 2873.79 814.07V1788.71Z" fill="#DBDBDB"/>
<path d="M2827.62 1755.52C2827.62 1790.25 2795.26 1818.4 2755.36 1818.4H1093.28C1053.38 1818.4 1021.02 1790.25 1021.02 1755.52V780.88C1021.02 746.155 1053.38 718 1093.28 718H2755.36C2795.26 718 2827.62 746.155 2827.62 780.88V1755.52Z" fill="white"/>
<path d="M2827.62 780.885C2827.62 746.16 2795.26 718.005 2755.36 718.005H1093.28C1053.38 718.005 1021.02 746.16 1021.02 780.885V880.445H2827.62V780.885Z" fill="#F8C203"/>
<path d="M2460.29 831.32C2479.55 831.32 2495.17 817.732 2495.17 800.97C2495.17 784.208 2479.55 770.62 2460.29 770.62C2441.03 770.62 2425.41 784.208 2425.41 800.97C2425.41 817.732 2441.03 831.32 2460.29 831.32Z" fill="#FFF5C0"/>
<path d="M2573.7 831.315C2592.96 831.315 2608.57 817.729 2608.57 800.97C2608.57 784.211 2592.96 770.625 2573.7 770.625C2554.44 770.625 2538.82 784.211 2538.82 800.97C2538.82 817.729 2554.44 831.315 2573.7 831.315Z" fill="#FFF5C0"/>
<path d="M2687.11 831.315C2706.37 831.315 2721.99 817.729 2721.99 800.97C2721.99 784.211 2706.37 770.625 2687.11 770.625C2667.85 770.625 2652.24 784.211 2652.24 800.97C2652.24 817.729 2667.85 831.315 2687.11 831.315Z" fill="#FFF5C0"/>
<path d="M2173.41 1037.2C2162.01 1015.35 1986.96 981.19 1924.32 981.19C1861.68 981.19 1686.63 1015.35 1675.23 1037.2C1644.77 1095.59 1672.32 1265.53 1674.1 1429.21C1675.18 1524.16 1681.89 1728.62 1696.84 1751.51C1711.79 1774.39 1863.48 1757.47 1924.32 1757.47C1985.15 1757.47 2136.84 1774.39 2151.79 1751.51C2166.74 1728.62 2173.47 1524.16 2174.53 1429.21C2176.33 1265.53 2203.87 1095.59 2173.41 1037.2Z" fill="#F3F5F5"/>
<path d="M1972.58 1309.77C1970.77 1256.53 1947.32 1126.73 1947.32 1126.73C1947.32 1126.73 1942.53 1117.59 1924.32 1117.59C1906.11 1117.59 1901.31 1126.73 1901.31 1126.73C1901.31 1126.73 1877.87 1256.53 1876.05 1309.77C1874.35 1359.78 1863.31 1472.85 1870.59 1491.16C1877.87 1509.47 1912.49 1569.24 1924.32 1569.24C1936.16 1569.24 1970.77 1509.47 1978.05 1491.16C1985.33 1472.85 1974.29 1359.78 1972.58 1309.77Z" fill="#BD4547"/>
<path d="M1924.32 1142.88C1932.37 1142.88 1937.28 1144.33 1948.92 1139.7C1947.92 1131.58 1947.32 1126.74 1947.32 1126.74C1947.32 1126.74 1942.53 1117.6 1924.32 1117.6C1906.1 1117.6 1901.31 1126.74 1901.31 1126.74C1901.31 1126.74 1900.7 1131.58 1899.71 1139.7C1911.35 1144.33 1916.25 1142.88 1924.32 1142.88Z" fill="#86393D"/>
<path d="M1924.32 1052.15C1907.37 1052.15 1882.51 1086.9 1882.51 1086.9C1882.51 1086.9 1885.84 1123.25 1895.89 1129.86C1905.93 1136.47 1917.18 1134.82 1924.32 1134.82C1931.45 1134.82 1942.72 1136.47 1952.75 1129.86C1962.79 1123.25 1966.13 1086.9 1966.13 1086.9C1966.13 1086.9 1941.26 1052.15 1924.32 1052.15Z" fill="#BD4547"/>
<path d="M2031.44 995.762C2021.55 966.586 1990.35 968.739 1924.32 968.739C1858.29 968.739 1827.08 966.586 1817.19 995.762C1807.32 1024.95 1860.02 1121.34 1860.02 1121.34L1924.32 1067.51L1988.6 1121.34C1988.6 1121.34 2041.31 1024.95 2031.44 995.762Z" fill="white"/>
<path d="M1924.01 1566.74C1924.01 1566.74 1818.91 990.234 1816.3 987.242C1813.71 984.26 1655.71 1013.35 1645.42 1038.24C1638.18 1055.73 1649.93 1238.58 1656.84 1311.24C1663.77 1383.9 1667.27 1524.59 1658.04 1571.02C1648.81 1617.44 1651.17 1783.9 1662.61 1797.83C1674.04 1811.75 1819.19 1800.72 1853.48 1796.74C1887.79 1792.76 1935.8 1788.09 1935.8 1788.09L1924.01 1566.74Z" fill="#4A457D"/>
<path d="M1899.78 1399.99C1890.96 1363.57 1876.22 1259.09 1869.49 1233.2C1857.96 1188.8 1816.9 986.492 1816.9 986.492C1816.9 986.492 1774.87 989.474 1762.28 1012.35C1755.47 1024.74 1793.15 1110.83 1793.15 1110.83C1793.15 1110.83 1755.43 1135.72 1760 1151.63C1764.57 1167.53 1799.75 1280.94 1824.01 1331.68C1848.27 1382.4 1919.59 1566.73 1924 1567.69C1928.41 1568.66 1908.6 1436.4 1899.78 1399.99Z" fill="#9C8B4F"/>
<path d="M1546.01 1151.23C1575.74 1073.63 1639.1 1020.81 1669.98 1032.76C1700.84 1044.69 1692.72 1126.38 1692.72 1175.74C1692.72 1203.58 1678.12 1277.23 1675.1 1304.16C1672.07 1331.08 1675.1 1453.65 1675.1 1453.65C1675.1 1453.65 1668.5 1566.74 1670.69 1610.82C1672.9 1654.91 1677.3 1781.41 1666.29 1789.07C1655.28 1796.74 1552.86 1793.85 1536.86 1779.92C1520.86 1766 1511.39 1678.33 1509.9 1628.07C1508.42 1577.81 1518.71 1471.28 1518.71 1434.49C1518.7 1397.67 1516.29 1228.82 1546.01 1151.23Z" fill="#4A457D"/>
<path d="M1660.83 1032.76C1660.83 1032.76 1679.51 1058.82 1690.51 1118.24C1701.53 1177.65 1674.55 1310.29 1674.55 1310.29C1674.55 1310.29 1679.68 1413.57 1675.1 1461.32C1670.52 1509.07 1666.37 1741.54 1664.08 1783.32" stroke="#9C8B4F" stroke-width="1.038" stroke-miterlimit="10"/>
<path d="M1924.64 1566.74C1924.64 1566.74 2029.74 990.234 2032.33 987.242C2034.94 984.26 2192.94 1013.35 2203.22 1038.24C2210.47 1055.73 2198.72 1238.58 2191.8 1311.24C2184.87 1383.9 2181.37 1524.59 2190.61 1571.02C2199.83 1617.44 2197.46 1783.9 2186.02 1797.83C2174.59 1811.75 2029.46 1800.72 1995.15 1796.74C1960.86 1792.76 1912.85 1788.09 1912.85 1788.09L1924.64 1566.74Z" fill="#4A457D"/>
<path d="M1948.86 1399.99C1957.67 1363.57 1972.42 1259.09 1979.14 1233.2C1990.68 1188.8 2031.74 986.492 2031.74 986.492C2031.74 986.492 2073.77 989.474 2086.36 1012.35C2093.18 1024.74 2055.49 1110.83 2055.49 1110.83C2055.49 1110.83 2093.22 1135.72 2088.65 1151.63C2084.08 1167.53 2048.9 1280.94 2024.62 1331.68C2000.36 1382.4 1929.05 1566.73 1924.64 1567.69C1920.22 1568.66 1940.05 1436.4 1948.86 1399.99Z" fill="#9C8B4F"/>
<path d="M2302.63 1151.23C2272.9 1073.63 2209.53 1020.81 2178.66 1032.76C2147.8 1044.69 2155.93 1126.38 2155.93 1175.74C2155.93 1203.58 2170.51 1277.23 2173.54 1304.16C2176.56 1331.08 2173.54 1453.65 2173.54 1453.65C2173.54 1453.65 2180.15 1566.74 2177.94 1610.82C2175.74 1654.91 2171.35 1781.41 2182.36 1789.07C2193.36 1796.74 2295.78 1793.85 2311.78 1779.92C2327.79 1766 2337.25 1678.33 2338.75 1628.07C2340.23 1577.81 2329.93 1471.28 2329.93 1434.49C2329.92 1397.67 2332.35 1228.82 2302.63 1151.23Z" fill="#4A457D"/>
<path d="M2187.81 1032.76C2187.81 1032.76 2169.14 1058.82 2158.11 1118.24C2147.1 1177.65 2174.09 1310.29 2174.09 1310.29C2174.09 1310.29 2168.96 1413.57 2173.53 1461.32C2178.1 1509.07 2182.26 1741.54 2184.54 1783.32" stroke="#9C8B4F" stroke-width="1.038" stroke-miterlimit="10"/>
<path d="M1838.9 996.061L1860.51 929.382C1860.51 929.382 1897.2 938.908 1924.29 938.908C1951.41 938.908 1988.13 929.382 1988.13 929.382L2009.72 996.05C2009.72 996.05 1969.79 1055.05 1924.29 1055.05C1878.8 1055.05 1838.9 996.061 1838.9 996.061Z" fill="#F5C4AF"/>
<path d="M1794.53 826.18C1794.53 901.562 1843.05 962.682 1924.31 962.682C2005.59 962.682 2054.09 901.562 2054.09 826.18C2054.09 750.755 2020.24 689.652 1924.31 689.652C1828.37 689.652 1794.53 750.755 1794.53 826.18Z" fill="#F5C4AF"/>
<path d="M2088.16 822.732C2095.46 846.909 2074.99 877.736 2047.78 882.326C2020.48 886.917 2025.35 851.19 2036.49 832.311C2047.64 813.499 2080.89 798.57 2088.16 822.732Z" fill="#F5C4AF"/>
<path d="M1779.12 810.586C1806.37 815.192 1826.74 845.997 1819.51 870.196C1812.23 894.347 1778.98 879.444 1767.85 860.575C1756.71 841.711 1751.86 805.98 1779.12 810.586Z" fill="#F5C4AF"/>
<path d="M1926.57 830.739C1926.57 830.739 1926.82 831.834 1927.28 833.741C1927.65 835.607 1928.18 838.274 1928.83 841.475C1929.4 844.609 1930.14 848.287 1931.18 851.809C1931.67 853.554 1932.38 855.314 1933.1 856.31L1933.32 856.619L1933.83 857.279C1934.18 857.751 1934.5 858.123 1934.8 858.463L1936.84 860.837C1938.3 862.514 1939.81 864.29 1941.29 866.559C1942.61 868.771 1944.33 871.873 1943.57 875.845C1943.16 877.778 1942.33 879.387 1941.02 880.807C1940.26 881.52 1939.56 882.243 1938.8 882.892C1936.96 884.354 1934.89 885.895 1933.1 886.644C1929.48 888.442 1926.16 889.207 1923.78 889.5C1922.59 889.657 1921.64 889.71 1920.97 889.689C1920.32 889.678 1919.96 889.673 1919.96 889.673C1919.96 889.673 1920.74 888.714 1922.1 887.032C1923.39 885.402 1925.31 883.28 1927.17 880.786C1928.26 879.507 1928.84 878.423 1929.83 877.16C1930.32 876.332 1930.91 875.535 1931.46 874.692C1931.44 874.55 1931.57 874.309 1931.48 874.257C1931.45 874.194 1931.3 873.209 1930.33 871.768C1929.48 870.337 1928.11 868.634 1926.82 866.764C1926.13 865.82 1925.49 864.903 1924.81 863.782C1924.46 863.221 1924.14 862.682 1923.9 862.231L1923.51 861.513L1922.98 860.381C1921.75 857.52 1921.52 855.157 1921.45 852.93C1921.3 848.481 1922.08 844.646 1922.78 841.36C1923.58 838.096 1924.51 835.444 1925.26 833.605C1926.09 831.776 1926.57 830.739 1926.57 830.739Z" fill="#D27D73"/>
<path d="M1961.73 841.543C1961.76 848.586 1968.32 854.271 1976.4 854.271C1984.49 854.24 1991.05 848.513 1991.05 841.481C1991.02 834.454 1984.42 828.742 1976.33 828.763C1968.26 828.763 1961.73 834.501 1961.73 841.543Z" fill="#522C31"/>
<path d="M1886.89 841.716C1886.93 849.047 1880.39 855.01 1872.29 855.01C1864.17 855.031 1857.58 849.115 1857.58 841.774C1857.55 834.417 1864.12 828.464 1872.23 828.454C1880.32 828.454 1886.89 834.37 1886.89 841.716Z" fill="#522C31"/>
<path d="M1897.86 809.7C1887.94 804.518 1877.58 802.296 1866.02 802.511C1852.11 802.773 1845.31 809.108 1837.74 817.943C1836.6 819.279 1838.88 821.28 1840.41 820.269C1854.43 811.021 1878.55 813.106 1893.82 818.047C1899.54 819.908 1902.81 812.289 1897.86 809.7Z" fill="#272736"/>
<path d="M1954.83 818.053C1970.09 813.106 1994.21 811.026 2008.22 820.274C2009.75 821.286 2012.04 819.289 2010.89 817.948C2004.01 809.91 1998.17 803.611 1985.51 802.72C1973.02 801.84 1961.52 804.088 1950.78 809.7C1945.82 812.289 1949.09 819.908 1954.83 818.053Z" fill="#272736"/>
<path d="M1976.75 897.171C1971.4 887.252 1962.88 886.461 1954.95 891.025C1947.02 895.578 1935.89 900.824 1925.27 900.997C1915.85 901.148 1904.78 896.039 1896.92 891.025C1889.63 886.366 1877.37 884.113 1871.88 893.451C1866.39 902.789 1882.56 925.462 1915.04 929.465C1947.53 933.464 1984.65 911.812 1976.75 897.171Z" fill="white"/>
<path d="M2048.59 728.506C2037.61 710.591 2013.31 705.676 2013.31 705.676C2013.31 705.676 1996.01 664.044 1949.7 662.55C1888.66 660.58 1830.76 693.456 1815.89 704.952C1801.02 716.454 1793.3 746.406 1790 763.651C1786.7 780.901 1789.15 807.819 1792.58 821.254C1796 834.679 1806.68 841.056 1811.44 834.679C1820.51 822.512 1831.57 778.983 1831.57 778.983C1831.57 778.983 1832.4 795.515 1843.14 796.233C1853.87 796.951 1880.3 778.265 1894.35 766.763C1908.39 755.262 1925.73 738.012 1925.73 738.012C1925.73 738.012 1919.12 756.697 1916.65 764.605C1914.17 772.512 1907.56 780.419 1912.52 784.014C1917.47 787.608 1947.21 773.953 1955.47 770.358C1963.73 766.763 1979.49 752.505 1979.49 752.505C1979.49 752.505 1981.9 768.199 1982.73 776.824C1983.55 785.449 1987.68 786.89 1995.94 778.983C2000.88 774.257 2005.21 764.149 2007.91 756.776C2011.45 761.749 2014.67 767.046 2016.58 772.003C2022.85 788.185 2030.49 827.841 2037.17 834.679C2043.85 841.517 2052.61 834.679 2056.03 821.254C2059.48 807.819 2062.31 750.891 2048.59 728.506Z" fill="#272736"/>
<path d="M1993.22 947.695C1973.4 958.023 1947.55 965.239 1922.55 965.239C1897.56 965.239 1875.23 958.023 1855.43 947.695" stroke="#D27D73" stroke-width="1.038" stroke-miterlimit="10"/>
<path d="M1686.34 522.375H1366.15C1329.64 522.375 1300.04 548.13 1300.04 579.895V726.091C1300.04 757.861 1329.64 783.61 1366.15 783.61H1553.45C1553.92 797.543 1558.3 820.311 1580.02 835.161C1613.11 857.782 1653.29 859.836 1653.29 859.836C1653.29 859.836 1629.53 823.219 1628.65 783.605H1686.34C1722.85 783.605 1752.45 757.85 1752.45 726.085V579.889C1752.45 548.13 1722.85 522.375 1686.34 522.375Z" fill="#F2E148"/>
<path d="M1426.13 667.785C1437.77 667.785 1447.2 659.574 1447.2 649.445C1447.2 639.316 1437.77 631.105 1426.13 631.105C1414.49 631.105 1405.05 639.316 1405.05 649.445C1405.05 659.574 1414.49 667.785 1426.13 667.785Z" fill="white"/>
<path d="M1526.24 667.785C1537.88 667.785 1547.32 659.574 1547.32 649.445C1547.32 639.316 1537.88 631.105 1526.24 631.105C1514.6 631.105 1505.16 639.316 1505.16 649.445C1505.16 659.574 1514.6 667.785 1526.24 667.785Z" fill="white"/>
<path d="M1626.36 667.785C1638 667.785 1647.44 659.574 1647.44 649.445C1647.44 639.316 1638 631.105 1626.36 631.105C1614.72 631.105 1605.28 639.316 1605.28 649.445C1605.28 659.574 1614.72 667.785 1626.36 667.785Z" fill="white"/>
<path d="M1021.03 1535.44V1755.52C1021.03 1790.25 1053.38 1818.4 1093.29 1818.4H2755.36C2795.27 1818.4 2827.63 1790.25 2827.63 1755.52V1535.44H1021.03Z" fill="#F1EAFA"/>
<path d="M1932.56 1592.78C1990.63 1596.75 2034 1640.91 2029.45 1691.44C2024.89 1741.96 1974.13 1779.7 1916.08 1775.74C1858.01 1771.77 1814.64 1727.6 1819.19 1677.08C1823.75 1626.56 1874.51 1588.82 1932.56 1592.78Z" fill="#DBB800"/>
<path d="M1974.33 1714.19C1974.4 1715.7 1973.74 1716.92 1972.41 1717.97L1956.51 1729.68C1955.8 1730.25 1954.87 1730.76 1953.76 1731.15C1952.59 1731.53 1951.57 1731.76 1950.5 1731.84C1950.44 1731.84 1950.19 1731.82 1949.85 1731.81C1949.47 1731.8 1948.99 1731.78 1948.37 1731.74C1946.97 1731.64 1944.73 1731.29 1941.61 1730.66C1938.5 1730.06 1934.73 1728.73 1930.36 1726.78C1925.93 1724.8 1920.99 1721.97 1915.53 1718.3C1910.08 1714.66 1904.28 1709.72 1898.34 1703.56C1893.54 1698.75 1889.64 1694.23 1886.59 1689.92C1883.6 1685.62 1881.17 1681.72 1879.39 1678.12C1877.64 1674.54 1876.35 1671.29 1875.58 1668.45C1874.8 1665.57 1874.34 1663.09 1874.18 1661.08C1873.99 1659.04 1873.92 1657.39 1874.14 1656.25C1874.34 1655.04 1874.4 1654.42 1874.4 1654.33C1874.66 1653.44 1875.05 1652.54 1875.68 1651.64C1876.28 1650.73 1876.96 1650.01 1877.76 1649.49L1893.7 1637.67C1894.75 1636.8 1896.02 1636.47 1897.35 1636.56C1898.32 1636.63 1899.11 1636.92 1899.83 1637.42C1900.5 1638.01 1901.1 1638.62 1901.55 1639.37L1911.66 1659.77C1912.18 1660.84 1912.35 1662.01 1911.93 1663.18C1911.52 1664.41 1910.77 1665.38 1909.75 1666.15L1903.87 1670.47C1903.73 1670.62 1903.57 1670.83 1903.45 1671.11C1903.31 1671.41 1903.22 1671.66 1903.21 1671.82C1903.39 1673.17 1903.86 1674.78 1904.77 1676.59C1905.55 1678.2 1906.72 1680.18 1908.43 1682.53C1910.01 1684.89 1912.42 1687.6 1915.58 1690.74C1918.66 1693.9 1921.4 1696.42 1923.82 1698.25C1926.27 1700.1 1928.32 1701.41 1929.99 1702.31C1931.63 1703.23 1933 1703.74 1933.88 1704L1935.23 1704.31C1935.39 1704.33 1935.63 1704.31 1935.95 1704.22C1936.31 1704.17 1936.59 1704.05 1936.73 1703.96L1943.58 1698.76C1944.97 1697.85 1946.55 1697.42 1948.4 1697.55C1949.63 1697.63 1950.64 1697.9 1951.3 1698.33L1951.39 1698.33L1971.82 1710.83C1973.27 1711.77 1974.1 1712.87 1974.33 1714.19Z" fill="white"/>
<path d="M1730.42 1684.26C1730.42 1711.53 1705 1733.64 1673.67 1733.64C1642.33 1733.64 1616.91 1711.53 1616.91 1684.26C1616.91 1656.98 1642.33 1634.87 1673.67 1634.87C1705.01 1634.87 1730.42 1656.98 1730.42 1684.26Z" fill="#FFBF90"/>
<path d="M2174.98 1733.64C2206.32 1733.64 2231.73 1711.53 2231.73 1684.26C2231.73 1656.98 2206.32 1634.87 2174.98 1634.87C2143.64 1634.87 2118.23 1656.98 2118.23 1684.26C2118.23 1711.53 2143.64 1733.64 2174.98 1733.64Z" fill="#FFBF90"/>
<path d="M3287.75 2814C3292.23 2761.83 3296.29 2695.57 3304.68 2635.4C3311.9 2583.65 3329.34 2520.06 3335.53 2507.15C3356.11 2464.24 3341.55 2346.06 3332.06 2308.29L3047.8 2305.79C3047.8 2305.79 3049.23 2391.17 3044.8 2505.3C3043.5 2538.54 3046.84 2708.52 3050.64 2813.99H3287.75V2814Z" fill="#2D2456"/>
<path d="M3252.44 2307.59L3047.81 2305.79C3047.81 2305.79 3049.24 2391.17 3044.81 2505.3C3043.71 2533.22 3045.9 2657.64 3048.88 2759.26C3070.25 2692.28 3114.95 2627.7 3168.88 2558.11C3235.52 2472.13 3249.53 2357.21 3252.44 2307.59Z" fill="#191A34"/>
<path d="M3032.58 2814C3050.35 2727.67 3089.63 2553.28 3124.93 2509.09C3205.54 2408.16 3176.63 2304.62 3176.63 2304.62L2827.71 2308.04L2803.46 2460.51L2797.7 2606.59C2797.7 2606.59 2789.48 2742.16 2786.04 2813.99H3032.58V2814Z" fill="#2D2456"/>
<path d="M3070.6 1670.11C3045.22 1672.06 3010.37 1672.43 2980.98 1679.07C2941.34 1688.02 2902.06 1702.27 2867.77 1738.06C2833.5 1773.85 2845.55 1850.18 2840.68 1921.46C2835.15 2002.31 2839.54 2110.14 2834.65 2178.22C2828.63 2262.06 2780.46 2516.2 2792.5 2529.3C2804.54 2542.4 2914.69 2499.64 2979.18 2492.62C3051.45 2484.76 3144.48 2485.34 3195.97 2487.38C3262.22 2490 3342.27 2504.1 3352.55 2474.28C3362.83 2444.45 3337.16 2173.07 3343.51 2112.72C3349.86 2052.36 3364.59 1900.5 3349.53 1798.32C3329.27 1660.79 3169.87 1659.18 3169.87 1659.18C3169.87 1659.18 3095.98 1668.16 3070.6 1670.11Z" fill="#403E7D"/>
<path d="M3117.69 2277.78C3117.69 2277.78 3150.81 2167.74 3195.97 2117.96C3241.14 2068.18 3268.24 1984.34 3268.24 1984.34" stroke="#57528A" stroke-miterlimit="10"/>
<path d="M2496.48 1645.98C2496.48 1645.98 2493.66 1628.07 2488.3 1610.57C2482.76 1592.43 2485.3 1576.64 2469.12 1576.63C2453.35 1576.63 2450.99 1593.14 2450.59 1605.58C2450.15 1619.57 2455.13 1639.33 2455.13 1639.33C2455.13 1639.33 2419.15 1601.84 2407.8 1573.51C2399.23 1552.23 2392.63 1537.68 2385.02 1536.02C2377.39 1534.36 2369.14 1539.61 2367.87 1548.72C2366.6 1557.83 2370.9 1573.1 2376.11 1585.73C2383.93 1604.74 2396.44 1624.61 2394.96 1626.35C2391.66 1630.2 2372.45 1597.87 2364.38 1586.21C2352.61 1569.27 2350.91 1547.39 2334.64 1554.15C2318.42 1560.93 2326.5 1579.43 2331.56 1591.35C2337.28 1604.8 2366.57 1647.04 2364.68 1648.98C2362.76 1650.92 2336.18 1616.27 2329.55 1604.16C2323.87 1593.8 2319.94 1574.67 2308.2 1573.29C2296.45 1571.9 2294.35 1583.82 2295.17 1590.77C2296.35 1600.97 2302.74 1612.78 2306.53 1619.2C2313.62 1631.19 2338.01 1661.95 2335.79 1664.99C2333.56 1668.03 2310.98 1636.44 2305.64 1628.87C2299.92 1620.79 2293.26 1611.12 2284.38 1613.89C2275.48 1616.64 2277.55 1630.15 2281.5 1637.91C2286.63 1647.93 2297.77 1659.03 2303.73 1667.16C2312.8 1679.53 2324.61 1693.21 2333.71 1703.74C2352.47 1725.48 2391.69 1755.25 2412.87 1759.48C2434.06 1763.71 2479.67 1747.86 2490.57 1725.57C2501.47 1703.28 2496.48 1645.98 2496.48 1645.98Z" fill="#FFC4A8"/>
<path d="M2397.41 1763.73L2419.49 1803.9L2533.91 1760.24L2505.81 1713.08L2397.41 1763.73Z" fill="white"/>
<path d="M2519.86 1734.04C2519.86 1734.04 2635.93 1853.34 2660.01 1874.3C2684.1 1895.26 2735.29 1926.7 2735.29 1926.7C2735.29 1926.7 2842.18 1744.27 2882.83 1724.96C2923.48 1705.65 3011.21 1735.53 3036.39 1773.87C3068.5 1822.78 3024.34 1924.09 2996.24 1959.02C2971.22 1990.12 2915.95 2065.56 2867.77 2107.48C2819.6 2149.4 2759.38 2188.7 2702.73 2177.81C2671.64 2171.83 2607.18 2126.16 2554.63 2065.56C2502.08 2004.95 2402.43 1813.5 2402.43 1813.5L2519.86 1734.04Z" fill="#403E7D"/>
<path d="M3022.31 1560.48L3011.29 1675.01C3011.29 1675.01 3036.05 1695.32 3098.12 1688.62C3160.2 1681.93 3185.1 1663.43 3185.1 1663.43L3169.07 1532.99L3022.31 1560.48Z" fill="#FFC4A8"/>
<path d="M2964.26 1426.92C2972.57 1417.09 2986.12 1376.75 2994.04 1362.11C3044.18 1269.21 3166.78 1284.21 3227.65 1326.78C3288.52 1369.34 3267.62 1494.58 3230.33 1527.69C3193.08 1560.83 3119.87 1579.75 3085.85 1584.05C3051.81 1588.35 3008.29 1590.54 2958.53 1568.83C2932.46 1557.45 2946.75 1495.61 2943.95 1491.62C2937.69 1482.8 2923.53 1470.75 2929.36 1459.11C2944.7 1445.72 2955.92 1436.79 2964.26 1426.92Z" fill="#FFC4A8"/>
<path d="M3023.24 1588.38C3023.24 1588.38 3089.91 1588.82 3120.26 1575.99" stroke="#DC8C7A" stroke-width="0.9257" stroke-miterlimit="10"/>
<path d="M3067.74 1281.52C3067.74 1281.52 3048.95 1274.61 3031.64 1283.19C3020.45 1288.73 3002.19 1306.93 3003.35 1323.41C3005.01 1347.18 3012.21 1366.07 3025.92 1366.57C3039.61 1367.07 3042.62 1340.31 3042.62 1340.31C3042.62 1340.31 3052.74 1366.14 3056.08 1381.11C3059.43 1396.07 3061.95 1412 3061.54 1432.57C3061.37 1441.14 3053.13 1458.4 3054.05 1465.39C3055.36 1475.22 3067.3 1470.83 3081.98 1479.36C3096.66 1487.88 3096.69 1486.38 3106.67 1499.93C3116.11 1512.77 3109.24 1541.8 3118.75 1548.13C3128.24 1554.46 3151.28 1547.12 3151.28 1547.12C3151.28 1547.12 3152.78 1568.26 3162.85 1570.39C3172.9 1572.52 3190.67 1554.66 3207.93 1548.16C3234.67 1538.09 3252.81 1537.31 3275.18 1509.55C3290.39 1490.69 3300.17 1464.25 3305.98 1447.9C3322.85 1400.46 3289.54 1366.38 3289.54 1366.38C3289.54 1366.38 3298.98 1339.75 3264.86 1309.33C3231.94 1279.96 3195.59 1276.12 3144.61 1273.96C3120.57 1272.94 3067.74 1281.52 3067.74 1281.52Z" fill="#272736"/>
<path d="M3068.34 1467.37C3077.53 1453.59 3117.31 1428.08 3128.36 1461.69C3138.55 1492.75 3100.38 1520.56 3071.74 1513.06C3043.09 1505.55 3059.12 1481.15 3068.34 1467.37Z" fill="#FFC4A8"/>
<path d="M3023.79 1415.95C3026.19 1416.45 3028.09 1414.88 3027.65 1412.76C3027.03 1409.73 3024.98 1407.72 3022.47 1405.65C3013.1 1397.92 2999.82 1393.68 2987.05 1396.01C2981.01 1397.11 2983.56 1405.29 2989.6 1404.06C2997.16 1402.53 3004.21 1404.47 3010.81 1407.67C3013.53 1408.99 3016.19 1410.51 3018.61 1412.23C3019.44 1412.82 3020.24 1413.4 3021.14 1413.92C3024.83 1416.12 3019.56 1411.88 3024.5 1411.36C3021.7 1411.66 3020.61 1415.29 3023.79 1415.95Z" fill="#272736"/>
<path d="M3007.14 1433.97C3005.19 1440.96 2997.92 1445.41 2990.89 1443.92C2983.87 1442.42 2979.75 1435.56 2981.71 1428.57C2983.67 1421.59 2990.94 1417.13 2997.99 1418.62C3005.02 1420.12 3009.1 1427 3007.14 1433.97Z" fill="#522C31"/>
<path d="M2944.92 1504.17C2944.92 1504.17 2954.43 1512.89 2971.29 1512.53C2979.06 1512.35 2990.4 1509.41 2999.06 1504.47C3007.74 1499.54 3023.71 1500.48 3021.59 1520.36C3019.47 1540.24 2989.07 1548 2968.78 1541.95C2948.48 1535.89 2944.92 1504.17 2944.92 1504.17Z" fill="white"/>
<path d="M3008.68 1644.33L2988.12 1679.17C2988.12 1679.17 3009.5 1702.91 3087.58 1698.76C3165.66 1694.61 3199.18 1671.55 3199.18 1671.55L3183.87 1625C3183.87 1625 3127.96 1640.19 3088.65 1646.24C3049.36 1652.29 3008.68 1644.33 3008.68 1644.33Z" fill="white"/>
<path d="M2911.93 1068.22H2481.36C2441.45 1068.22 2409.1 1096.36 2409.1 1131.1V1290.92C2409.1 1325.64 2441.45 1353.8 2481.36 1353.8H2766.67C2767.17 1369.02 2771.96 1393.91 2795.71 1410.15C2831.88 1434.88 2875.8 1437.13 2875.8 1437.13C2875.8 1437.13 2849.82 1397.1 2848.85 1353.8H2911.93C2951.84 1353.8 2984.2 1325.64 2984.2 1290.92V1131.1C2984.2 1096.36 2951.84 1068.22 2911.93 1068.22Z" fill="#FFA215"/>
<path d="M2537.82 1237.21C2549.46 1237.21 2558.89 1228.99 2558.89 1218.87C2558.89 1208.74 2549.46 1200.53 2537.82 1200.53C2526.18 1200.53 2516.74 1208.74 2516.74 1218.87C2516.74 1228.99 2526.18 1237.21 2537.82 1237.21Z" fill="white"/>
<path d="M2637.93 1237.21C2649.57 1237.21 2659.01 1228.99 2659.01 1218.87C2659.01 1208.74 2649.57 1200.53 2637.93 1200.53C2626.29 1200.53 2616.86 1208.74 2616.86 1218.87C2616.86 1228.99 2626.29 1237.21 2637.93 1237.21Z" fill="white"/>
<path d="M2738.05 1237.21C2749.69 1237.21 2759.13 1228.99 2759.13 1218.87C2759.13 1208.74 2749.69 1200.53 2738.05 1200.53C2726.41 1200.53 2716.97 1208.74 2716.97 1218.87C2716.97 1228.99 2726.41 1237.21 2738.05 1237.21Z" fill="white"/>
<path d="M2807.65 1097.83C2807.49 1096.7 2807.56 1095.7 2807.86 1094.83C2808.16 1093.92 2808.57 1093.11 2809.09 1092.4C2809.64 1091.66 2810.2 1090.98 2810.78 1090.38C2811.35 1089.75 2811.83 1089.15 2812.22 1088.57C2812.63 1087.97 2812.84 1087.36 2812.84 1086.76C2812.84 1085.91 2812.57 1085.27 2812.05 1084.83C2811.56 1084.39 2810.9 1084.17 2810.08 1084.17C2809.31 1084.17 2808.62 1084.35 2808.02 1084.7C2807.45 1085.06 2806.88 1085.51 2806.33 1086.06L2803 1083.02C2803.96 1081.89 2805.11 1080.99 2806.46 1080.3C2807.8 1079.61 2809.27 1079.27 2810.86 1079.27C2812.34 1079.27 2813.66 1079.52 2814.81 1080.01C2815.99 1080.51 2816.92 1081.27 2817.61 1082.32C2818.29 1083.36 2818.64 1084.69 2818.64 1086.31C2818.64 1087.32 2818.43 1088.23 2818.02 1089.02C2817.61 1089.79 2817.1 1090.5 2816.5 1091.16C2815.89 1091.82 2815.3 1092.48 2814.73 1093.14C2814.15 1093.77 2813.69 1094.47 2813.33 1095.24C2812.97 1095.98 2812.85 1096.84 2812.96 1097.83H2807.65ZM2810.28 1107.83C2809.24 1107.83 2808.38 1107.47 2807.69 1106.76C2807.01 1106.02 2806.66 1105.11 2806.66 1104.04C2806.66 1102.94 2807.01 1102.04 2807.69 1101.33C2808.38 1100.59 2809.24 1100.22 2810.28 1100.22C2811.33 1100.22 2812.19 1100.59 2812.88 1101.33C2813.59 1102.04 2813.95 1102.94 2813.95 1104.04C2813.95 1105.11 2813.59 1106.02 2812.88 1106.76C2812.19 1107.47 2811.33 1107.83 2810.28 1107.83Z" fill="white"/>
<path d="M1468.65 2125.82C1468.65 2147.63 1448.32 2165.32 1423.25 2165.32H838.353C813.278 2165.32 792.947 2147.63 792.947 2125.82V1202.91C792.947 1181.09 813.278 1163.41 838.353 1163.41H1423.25C1448.32 1163.41 1468.65 1181.09 1468.65 1202.91V2125.82Z" fill="#DBDBDB"/>
<path d="M1426.5 2083.9C1426.5 2105.71 1406.17 2123.4 1381.1 2123.4H796.199C771.123 2123.4 750.793 2105.71 750.793 2083.9V1160.99C750.793 1139.17 771.123 1121.49 796.199 1121.49H1381.09C1406.17 1121.49 1426.5 1139.17 1426.5 1160.99V2083.9H1426.5Z" fill="white"/>
<path d="M1426.5 1160.99C1426.5 1139.17 1406.17 1121.49 1381.1 1121.49H796.199C771.123 1121.49 750.793 1139.17 750.793 1160.99V1223.56H1426.5V1160.99H1426.5Z" fill="#F8C203"/>
<path d="M1217.61 1173.61C1217.61 1184.15 1207.8 1192.69 1195.69 1192.69C1183.59 1192.69 1173.78 1184.15 1173.78 1173.61C1173.78 1163.08 1183.59 1154.54 1195.69 1154.54C1207.8 1154.54 1217.61 1163.08 1217.61 1173.61Z" fill="#FFF5C0"/>
<path d="M1288.86 1173.61C1288.86 1184.15 1279.05 1192.69 1266.95 1192.69C1254.85 1192.69 1245.04 1184.15 1245.04 1173.61C1245.04 1163.08 1254.85 1154.54 1266.95 1154.54C1279.06 1154.54 1288.86 1163.08 1288.86 1173.61Z" fill="#FFF5C0"/>
<path d="M1360.13 1173.61C1360.13 1184.15 1350.33 1192.69 1338.21 1192.69C1326.11 1192.69 1316.3 1184.15 1316.3 1173.61C1316.3 1163.08 1326.11 1154.54 1338.21 1154.54C1350.33 1154.54 1360.13 1163.08 1360.13 1173.61Z" fill="#FFF5C0"/>
<path d="M1301.37 1669.35H875.918V1704.26H1301.37V1669.35Z" fill="#F0EDCF"/>
<path d="M1227.01 1750.58H1094.81V1785.5H1227.01V1750.58Z" fill="#F0EDCF"/>
<path d="M1064.7 1750.58H806.021V1785.5H1064.7V1750.58Z" fill="#F0EDCF"/>
<path d="M1371.27 1750.58H1257.12V1785.5H1371.27V1750.58Z" fill="#F0EDCF"/>
<path d="M1082.49 1949.65H950.279V1984.56H1082.49V1949.65Z" fill="#F0EDCF"/>
<path d="M1371.27 1949.65H1112.6V1984.56H1371.27V1949.65Z" fill="#F0EDCF"/>
<path d="M920.168 1949.65H806.021V1984.56H920.168V1949.65Z" fill="#F0EDCF"/>
<path d="M1136.45 1816.94H940.734V1851.85H1136.45V1816.94Z" fill="#F0EDCF"/>
<path d="M910.618 1816.94H806.021V1851.85H910.618V1816.94Z" fill="#F0EDCF"/>
<path d="M1371.27 1816.94H1166.55V1851.85H1371.27V1816.94Z" fill="#F0EDCF"/>
<path d="M1136.45 2016H940.734V2050.91H1136.45V2016Z" fill="#F0EDCF"/>
<path d="M910.618 2016H806.021V2050.91H910.618V2016Z" fill="#F0EDCF"/>
<path d="M1371.27 2016H1166.55V2050.91H1371.27V2016Z" fill="#F0EDCF"/>
<path d="M1003.96 1883.29H808.244V1918.21H1003.96V1883.29Z" fill="#F0EDCF"/>
<path d="M1371.28 1883.29H1034.07V1918.21H1371.28V1883.29Z" fill="#F0EDCF"/>
<mask id="mask0_19_28" style="mask-type:luminance" maskUnits="userSpaceOnUse" x="884" y="1268" width="409" height="355">
<path d="M1088.64 1622.78C1201.17 1622.78 1292.39 1543.4 1292.39 1445.48C1292.39 1347.57 1201.17 1268.19 1088.64 1268.19C976.118 1268.19 884.896 1347.57 884.896 1445.48C884.896 1543.4 976.118 1622.78 1088.64 1622.78Z" fill="white"/>
</mask>
<g mask="url(#mask0_19_28)">
<path d="M1088.64 1622.78C1201.17 1622.78 1292.39 1543.4 1292.39 1445.48C1292.39 1347.57 1201.17 1268.19 1088.64 1268.19C976.118 1268.19 884.896 1347.57 884.896 1445.48C884.896 1543.4 976.118 1622.78 1088.64 1622.78Z" fill="#F1FFCA"/>
</g>
<mask id="mask1_19_28" style="mask-type:luminance" maskUnits="userSpaceOnUse" x="884" y="1268" width="409" height="355">
<path d="M1088.64 1622.78C1201.17 1622.78 1292.39 1543.4 1292.39 1445.48C1292.39 1347.57 1201.17 1268.19 1088.64 1268.19C976.118 1268.19 884.896 1347.57 884.896 1445.48C884.896 1543.4 976.118 1622.78 1088.64 1622.78Z" fill="white"/>
</mask>
<g mask="url(#mask1_19_28)">
<path d="M1237.43 1533.61C1230.62 1520.55 1126.06 1500.15 1088.65 1500.15C1051.24 1500.15 946.682 1520.55 939.865 1533.61C921.672 1568.48 938.124 1669.98 939.196 1767.76C939.835 1824.46 943.845 1946.59 952.776 1960.25C961.707 1973.92 1052.31 1963.82 1088.65 1963.82C1124.98 1963.82 1215.59 1973.93 1224.52 1960.25C1233.44 1946.59 1237.46 1824.46 1238.1 1767.76C1239.16 1669.98 1255.62 1568.48 1237.43 1533.61Z" fill="#F3F5F5"/>
<path d="M1117.47 1696.42C1116.39 1664.62 1102.39 1587.09 1102.39 1587.09C1102.39 1587.09 1099.53 1581.63 1088.65 1581.63C1077.77 1581.63 1074.9 1587.09 1074.9 1587.09C1074.9 1587.09 1060.9 1664.62 1059.82 1696.42C1058.8 1726.28 1052.21 1793.82 1056.55 1804.76C1060.9 1815.69 1081.58 1851.39 1088.65 1851.39C1095.72 1851.39 1116.39 1815.69 1120.75 1804.76C1125.08 1793.82 1118.5 1726.28 1117.47 1696.42Z" fill="#BD4547"/>
<path d="M1088.65 1596.73C1093.46 1596.73 1096.38 1597.6 1103.34 1594.83C1102.74 1589.98 1102.38 1587.09 1102.38 1587.09C1102.38 1587.09 1099.52 1581.62 1088.65 1581.62C1077.76 1581.62 1074.9 1587.09 1074.9 1587.09C1074.9 1587.09 1074.54 1589.98 1073.94 1594.83C1080.9 1597.6 1083.83 1596.73 1088.65 1596.73Z" fill="#86393D"/>
<path d="M1088.64 1542.54C1078.52 1542.54 1063.68 1563.29 1063.68 1563.29C1063.68 1563.29 1065.67 1584.99 1071.66 1588.95C1077.66 1592.89 1084.38 1591.91 1088.64 1591.91C1092.9 1591.91 1099.63 1592.89 1105.62 1588.95C1111.62 1584.99 1113.61 1563.29 1113.61 1563.29C1113.61 1563.29 1098.77 1542.54 1088.64 1542.54Z" fill="#BD4547"/>
<path d="M1152.63 1508.86C1146.72 1491.43 1128.08 1492.71 1088.65 1492.71C1049.21 1492.71 1030.56 1491.43 1024.66 1508.86C1018.77 1526.29 1050.24 1583.86 1050.24 1583.86L1088.65 1551.71L1127.05 1583.86C1127.05 1583.86 1158.52 1526.29 1152.63 1508.86Z" fill="white"/>
<path d="M1088.46 1849.9C1088.46 1849.9 1025.68 1505.55 1024.12 1503.76C1022.58 1501.98 928.206 1519.36 922.058 1534.23C917.734 1544.68 924.75 1653.89 928.881 1697.29C933.018 1740.69 935.108 1824.72 929.597 1852.45C924.081 1880.17 925.497 1979.61 932.325 1987.92C939.154 1996.24 1025.85 1989.65 1046.33 1987.28C1066.83 1984.89 1095.5 1982.11 1095.5 1982.11L1088.46 1849.9Z" fill="#4A457D"/>
<path d="M1073.99 1750.3C1068.73 1728.55 1059.92 1666.14 1055.9 1650.68C1049.01 1624.16 1024.49 1503.32 1024.49 1503.32C1024.49 1503.32 999.381 1505.1 991.866 1518.77C987.795 1526.17 1010.31 1577.59 1010.31 1577.59C1010.31 1577.59 987.771 1592.46 990.499 1601.96C993.227 1611.46 1014.24 1679.19 1028.73 1709.51C1043.23 1739.8 1085.81 1849.9 1088.45 1850.47C1091.09 1851.04 1079.25 1772.05 1073.99 1750.3Z" fill="#9C8B4F"/>
<path d="M862.688 1601.71C880.44 1555.36 918.289 1523.82 936.728 1530.95C955.161 1538.08 950.308 1586.87 950.308 1616.35C950.308 1632.98 941.588 1676.97 939.787 1693.06C937.975 1709.13 939.787 1782.35 939.787 1782.35C939.787 1782.35 935.843 1849.9 937.15 1876.22C938.468 1902.55 941.1 1978.12 934.518 1982.69C927.942 1987.27 866.776 1985.54 857.214 1977.22C847.657 1968.91 841.996 1916.55 841.111 1886.53C840.225 1856.51 846.368 1792.88 846.368 1770.9C846.374 1748.91 844.935 1648.05 862.688 1601.71Z" fill="#4A457D"/>
<path d="M931.266 1530.95C931.266 1530.95 942.424 1546.52 948.994 1582.02C955.576 1617.5 939.456 1696.73 939.456 1696.73C939.456 1696.73 942.515 1758.41 939.787 1786.94C937.047 1815.46 934.566 1954.31 933.205 1979.26" stroke="#9C8B4F" stroke-width="0.9666" stroke-miterlimit="10"/>
<path d="M1088.84 1849.9C1088.84 1849.9 1151.61 1505.55 1153.16 1503.76C1154.72 1501.98 1249.09 1519.36 1255.23 1534.23C1259.56 1544.68 1252.54 1653.89 1248.41 1697.29C1244.27 1740.69 1242.17 1824.72 1247.69 1852.45C1253.21 1880.17 1251.79 1979.61 1244.95 1987.92C1238.12 1996.24 1151.44 1989.65 1130.95 1987.28C1110.47 1984.89 1081.79 1982.11 1081.79 1982.11L1088.84 1849.9Z" fill="#4A457D"/>
<path d="M1103.31 1750.3C1108.56 1728.55 1117.37 1666.14 1121.39 1650.68C1128.28 1624.16 1152.8 1503.32 1152.8 1503.32C1152.8 1503.32 1177.91 1505.1 1185.42 1518.77C1189.49 1526.17 1166.98 1577.59 1166.98 1577.59C1166.98 1577.59 1189.51 1592.46 1186.78 1601.96C1184.06 1611.46 1163.04 1679.19 1148.54 1709.51C1134.04 1739.8 1091.46 1849.9 1088.82 1850.47C1086.2 1851.04 1098.04 1772.05 1103.31 1750.3Z" fill="#9C8B4F"/>
<path d="M1314.61 1601.71C1296.86 1555.36 1259.01 1523.82 1240.57 1530.95C1222.13 1538.08 1226.98 1586.87 1226.98 1616.35C1226.98 1632.98 1235.7 1676.97 1237.5 1693.06C1239.31 1709.13 1237.5 1782.35 1237.5 1782.35C1237.5 1782.35 1241.45 1849.9 1240.13 1876.22C1238.83 1902.55 1236.2 1978.12 1242.77 1982.69C1249.35 1987.27 1310.52 1985.54 1320.08 1977.22C1329.63 1968.91 1335.29 1916.55 1336.18 1886.53C1337.06 1856.51 1330.92 1792.88 1330.92 1770.9C1330.92 1748.91 1332.36 1648.05 1314.61 1601.71Z" fill="#4A457D"/>
<path d="M1246.03 1530.95C1246.03 1530.95 1234.87 1546.52 1228.3 1582.02C1221.72 1617.5 1237.84 1696.73 1237.84 1696.73C1237.84 1696.73 1234.78 1758.41 1237.51 1786.94C1240.24 1815.46 1242.72 1954.31 1244.09 1979.26" stroke="#9C8B4F" stroke-width="0.9666" stroke-miterlimit="10"/>
<path d="M1037.62 1509.04L1050.53 1469.21C1050.53 1469.21 1072.44 1474.9 1088.63 1474.9C1104.82 1474.9 1126.76 1469.21 1126.76 1469.21L1139.66 1509.03C1139.66 1509.03 1115.81 1544.27 1088.63 1544.27C1061.45 1544.27 1037.62 1509.04 1037.62 1509.04Z" fill="#F5C4AF"/>
<path d="M1011.12 1407.57C1011.12 1452.59 1040.11 1489.1 1088.64 1489.1C1137.19 1489.1 1166.16 1452.59 1166.16 1407.57C1166.16 1362.51 1145.94 1326.02 1088.64 1326.02C1031.34 1326.02 1011.12 1362.51 1011.12 1407.57Z" fill="#F5C4AF"/>
<path d="M1186.51 1405.5C1190.86 1419.95 1178.64 1438.36 1162.38 1441.1C1146.08 1443.85 1148.99 1422.5 1155.64 1411.23C1162.3 1399.99 1182.16 1391.08 1186.51 1405.5Z" fill="#F5C4AF"/>
<path d="M1001.92 1398.25C1018.19 1401 1030.37 1419.4 1026.05 1433.86C1021.7 1448.28 1001.84 1439.38 995.189 1428.11C988.54 1416.85 985.638 1395.5 1001.92 1398.25Z" fill="#F5C4AF"/>
<path d="M1089.99 1410.29C1089.99 1410.29 1090.27 1410.95 1090.75 1412.11C1091.19 1413.25 1091.73 1414.86 1092.35 1416.72C1092.9 1418.57 1093.6 1420.74 1094.37 1422.69C1094.73 1423.66 1095.25 1424.6 1095.59 1424.89L1097.8 1427.28C1098.7 1428.25 1099.63 1429.32 1100.62 1430.82C1101.46 1432.26 1102.75 1434.47 1102.16 1437.49C1101.84 1438.96 1101.22 1440.16 1100.23 1441.21C1099.73 1441.62 1099.3 1442.04 1098.79 1442.4C1097.55 1443.31 1096.06 1444.3 1094.88 1444.66C1092.42 1445.63 1090.21 1445.85 1088.6 1445.8C1087.03 1445.8 1086.02 1445.46 1086.05 1445.5C1086.05 1445.5 1086.41 1444.77 1087.04 1443.5C1087.6 1442.47 1088.4 1440.99 1089.36 1439.21C1089.9 1438.36 1089.99 1437.79 1090.44 1437.06C1090.69 1436.54 1091.02 1436.06 1091.32 1435.53C1091.09 1435.65 1091.04 1435.74 1090.92 1436.03C1090.76 1436.64 1090.93 1436.4 1090.41 1435.68C1090.01 1434.96 1089.21 1433.96 1088.46 1432.8C1088.05 1432.22 1087.69 1431.66 1087.28 1430.92C1086.73 1429.97 1086.78 1430.05 1086.15 1428.68C1085.33 1426.66 1085.28 1425.14 1085.31 1423.74C1085.36 1420.93 1086.09 1418.61 1086.71 1416.62C1087.43 1414.65 1088.22 1413.08 1088.87 1411.99C1089.58 1410.9 1089.99 1410.29 1089.99 1410.29Z" fill="#D27D73"/>
<path d="M1110.99 1416.75C1111.01 1420.95 1114.92 1424.34 1119.75 1424.34C1124.59 1424.33 1128.51 1420.91 1128.51 1416.71C1128.49 1412.5 1124.55 1409.09 1119.72 1409.11C1114.89 1409.11 1110.99 1412.54 1110.99 1416.75Z" fill="#522C31"/>
<path d="M1066.29 1416.85C1066.32 1421.22 1062.4 1424.79 1057.57 1424.79C1052.71 1424.8 1048.79 1421.27 1048.79 1416.87C1048.77 1412.48 1052.69 1408.93 1057.54 1408.93C1062.37 1408.93 1066.29 1412.46 1066.29 1416.85Z" fill="#522C31"/>
<path d="M1073.16 1397.25C1067.17 1393.99 1060.88 1392.61 1053.82 1392.74C1045.05 1392.89 1041.25 1396.94 1036.73 1402.55C1035.94 1403.53 1037.52 1404.92 1038.65 1404.21C1042.81 1401.63 1050.63 1401.17 1055.56 1400.98C1060.4 1400.79 1065.71 1401.85 1070.26 1403.25C1074.43 1404.51 1076.67 1399.16 1073.16 1397.25Z" fill="#272736"/>
<path d="M1107.04 1403.24C1111.72 1401.81 1116.77 1401.02 1121.73 1400.97C1126.47 1400.92 1134.66 1401.74 1138.64 1404.21C1139.77 1404.91 1141.35 1403.52 1140.56 1402.54C1136.43 1397.42 1133.21 1393.4 1125.2 1392.85C1117.58 1392.33 1110.61 1393.71 1104.13 1397.25C1100.63 1399.16 1102.86 1404.52 1107.04 1403.24Z" fill="#272736"/>
<path d="M1119.96 1449.97C1116.77 1444.04 1111.67 1443.58 1106.93 1446.3C1102.2 1449.03 1095.55 1452.16 1089.21 1452.26C1083.58 1452.35 1076.97 1449.3 1072.27 1446.3C1067.92 1443.52 1060.6 1442.17 1057.32 1447.75C1054.04 1453.33 1063.69 1466.87 1083.1 1469.26C1102.51 1471.64 1124.68 1458.72 1119.96 1449.97Z" fill="white"/>
<path d="M1162.87 1349.23C1156.32 1338.53 1141.79 1335.59 1141.79 1335.59C1141.79 1335.59 1131.47 1310.72 1103.8 1309.83C1067.34 1308.65 1032.75 1328.29 1023.88 1335.16C1014.99 1342.03 1010.39 1359.92 1008.42 1370.22C1006.44 1380.52 1007.91 1396.6 1009.96 1404.62C1012 1412.64 1018.38 1416.45 1021.22 1412.64C1026.64 1405.37 1033.25 1379.37 1033.25 1379.37C1033.25 1379.37 1033.75 1389.24 1040.16 1389.67C1046.57 1390.1 1062.36 1378.94 1070.75 1372.08C1079.14 1365.21 1089.5 1354.9 1089.5 1354.9C1089.5 1354.9 1085.55 1366.07 1084.07 1370.79C1082.59 1375.5 1078.64 1380.23 1081.6 1382.37C1084.57 1384.52 1102.33 1376.37 1107.26 1374.22C1112.19 1372.08 1121.61 1363.56 1121.61 1363.56C1121.61 1363.56 1123.05 1372.93 1123.54 1378.08C1124.04 1383.23 1126.5 1384.09 1131.44 1379.37C1134.39 1376.55 1136.98 1370.51 1138.59 1366.11C1140.7 1369.08 1142.63 1372.24 1143.77 1375.2C1147.52 1384.87 1152.07 1408.55 1156.07 1412.63C1160.05 1416.71 1165.29 1412.63 1167.33 1404.62C1169.37 1396.6 1171.07 1362.6 1162.87 1349.23Z" fill="#272736"/>
<path d="M1129.79 1480.15C1117.96 1486.32 1102.52 1490.62 1087.59 1490.62C1072.66 1490.62 1059.32 1486.32 1047.5 1480.15" stroke="#D27D73" stroke-width="0.9666" stroke-miterlimit="10"/>
</g>
<path d="M1537.83 2036.91C1469.83 1977.74 1359.59 1977.74 1291.59 2036.91C1223.6 2096.08 1223.6 2192.01 1291.59 2251.18C1349.8 2301.84 1438.96 2309.08 1506.09 2273.01L1625.95 2377.3C1638.79 2388.48 1659.6 2388.48 1672.45 2377.3L1682.78 2368.31C1695.62 2357.13 1695.62 2339.03 1682.78 2327.85L1562.91 2223.56C1604.38 2165.14 1596.06 2087.56 1537.83 2036.91ZM1501.85 2219.86C1453.72 2261.74 1375.7 2261.74 1327.58 2219.86C1279.46 2177.99 1279.46 2110.1 1327.58 2068.23C1375.7 2026.36 1453.72 2026.36 1501.85 2068.23C1549.97 2110.1 1549.97 2177.99 1501.85 2219.86Z" fill="#DBB800"/>
<path opacity="0.5" d="M1501.85 2219.86C1453.72 2261.74 1375.7 2261.74 1327.58 2219.86C1279.46 2177.99 1279.46 2110.1 1327.58 2068.23C1375.7 2026.36 1453.72 2026.36 1501.85 2068.23C1549.97 2110.1 1549.97 2177.99 1501.85 2219.86Z" fill="white"/>
<g opacity="0.6">
<mask id="mask2_19_28" style="mask-type:luminance" maskUnits="userSpaceOnUse" x="1291" y="2036" width="247" height="216">
<path d="M1501.85 2219.86C1453.72 2261.74 1375.7 2261.74 1327.58 2219.86C1279.46 2177.99 1279.46 2110.1 1327.58 2068.23C1375.7 2026.36 1453.72 2026.36 1501.85 2068.23C1549.97 2110.1 1549.97 2177.99 1501.85 2219.86Z" fill="white"/>
</mask>
<g mask="url(#mask2_19_28)">
<path d="M1561.83 2039.86L1287.89 2278.23L1315.62 2302.36L1589.56 2063.99L1561.83 2039.86Z" fill="white"/>
<path d="M1601.97 2074.64L1328.03 2313L1338.43 2322.05L1612.37 2083.68L1601.97 2074.64Z" fill="white"/>
<path d="M1491.08 1978.15L1217.14 2216.51L1227.54 2225.56L1501.48 1987.19L1491.08 1978.15Z" fill="white"/>
</g>
</g>
<path d="M934.706 1105.77C934.706 1185.83 860.111 1250.74 768.101 1250.74C676.085 1250.74 601.49 1185.83 601.49 1105.77C601.49 1025.7 676.085 960.795 768.101 960.795C860.111 960.795 934.706 1025.7 934.706 1105.77Z" fill="#FFA215"/>
<path d="M693.832 1076.06L770.113 1138.94L950.773 992.225" stroke="white" stroke-width="9" stroke-miterlimit="10"/>
<path d="M613.92 3783V3780.12L629.22 3772.74V3674.46L613.92 3667.08V3664.2H675.3C689.58 3664.2 701.7 3666.54 711.66 3671.22C721.62 3675.9 729.18 3682.32 734.34 3690.48C739.62 3698.64 742.26 3707.88 742.26 3718.2C742.26 3727.56 740.52 3736.2 737.04 3744.12C733.68 3752.04 728.94 3758.88 722.82 3764.64C716.7 3770.4 709.5 3774.9 701.22 3778.14C692.94 3781.38 683.88 3783 674.04 3783H613.92ZM667.92 3674.1H656.4V3773.1H670.44C684.36 3773.1 695.1 3768.66 702.66 3759.78C710.22 3750.78 714 3738.78 714 3723.78C714 3708.66 710.1 3696.6 702.3 3687.6C694.62 3678.6 683.16 3674.1 667.92 3674.1ZM758.236 3783V3780.12L771.556 3774.18V3691.02L758.236 3685.08V3682.2H845.176V3709.2H842.296L830.596 3691.38H797.836V3726.66H821.056L829.336 3713.7H832.036V3747.9H829.336L821.056 3735.12H797.836V3773.82H834.196L846.616 3750.6H849.496V3783H758.236ZM885.953 3783V3780.12L902.513 3774.18V3691.38H880.193L868.133 3716.22H865.253V3682.2H966.053V3716.22H963.173L950.933 3691.38H928.613V3774.18L945.353 3780.12V3783H885.953ZM969.42 3783V3780.12L978.6 3774.9L1018.74 3681.3H1034.04L1073.46 3773.82L1084.62 3780.12V3783H1034.22V3780.12L1047 3774.72L1036.74 3750.06H1000.38L990.12 3774.72L1002.9 3780.12V3783H969.42ZM1004.16 3740.88H1032.78L1018.38 3706.5L1004.16 3740.88ZM1096.27 3783V3780.12L1108.15 3774.18V3691.02L1096.27 3685.08V3682.2H1147.39V3685.08L1134.43 3691.02V3774.18L1147.39 3780.12V3783H1096.27ZM1163.41 3783V3780.12L1176.73 3774.18V3691.02L1163.41 3685.08V3682.2H1217.77V3685.08L1203.01 3691.02V3773.82H1236.13L1249.63 3744.48H1252.51V3783H1163.41ZM1269.06 3783V3780.12L1282.38 3774.18V3691.02L1269.06 3685.08V3682.2H1356V3709.2H1353.12L1341.42 3691.38H1308.66V3726.66H1331.88L1340.16 3713.7H1342.86V3747.9H1340.16L1331.88 3735.12H1308.66V3773.82H1345.02L1357.44 3750.6H1360.32V3783H1269.06ZM1377.51 3783V3780.12L1390.83 3774.18V3691.02L1377.51 3685.08V3682.2H1431.69C1444.05 3682.2 1454.55 3684.18 1463.19 3688.14C1471.83 3692.1 1478.43 3697.5 1482.99 3704.34C1487.55 3711.18 1489.83 3719.04 1489.83 3727.92C1489.83 3738.72 1487.31 3748.26 1482.27 3756.54C1477.35 3764.82 1470.45 3771.3 1461.57 3775.98C1452.69 3780.66 1442.37 3783 1430.61 3783H1377.51ZM1423.23 3691.38H1417.11V3773.82H1425.03C1437.27 3773.82 1446.57 3770.16 1452.93 3762.84C1459.41 3755.4 1462.65 3745.26 1462.65 3732.42C1462.65 3719.34 1459.35 3709.26 1452.75 3702.18C1446.15 3694.98 1436.31 3691.38 1423.23 3691.38ZM1614.91 3784.8C1602.31 3784.8 1591.27 3782.22 1581.79 3777.06C1572.31 3771.9 1564.93 3764.94 1559.65 3756.18C1554.49 3747.3 1551.91 3737.28 1551.91 3726.12C1551.91 3717.12 1553.71 3708.78 1557.31 3701.1C1560.91 3693.42 1565.77 3686.7 1571.89 3680.94C1578.13 3675.06 1585.15 3670.5 1592.95 3667.26C1600.87 3664.02 1609.15 3662.4 1617.79 3662.4C1624.15 3662.4 1629.43 3662.76 1633.63 3663.48C1637.83 3664.2 1641.61 3665.22 1644.97 3666.54C1648.33 3667.86 1651.69 3669.36 1655.05 3671.04L1657.03 3704.7H1653.79L1636.69 3676.8C1633.69 3674.88 1630.87 3673.5 1628.23 3672.66C1625.59 3671.82 1622.41 3671.4 1618.69 3671.4C1611.37 3671.4 1604.77 3673.62 1598.89 3678.06C1593.13 3682.38 1588.57 3688.56 1585.21 3696.6C1581.85 3704.52 1580.17 3713.76 1580.17 3724.32C1580.17 3734.76 1581.79 3743.82 1585.03 3751.5C1588.27 3759.06 1592.65 3764.94 1598.17 3769.14C1603.81 3773.22 1610.11 3775.26 1617.07 3775.26C1621.51 3775.26 1625.47 3774.72 1628.95 3773.64C1632.55 3772.44 1635.97 3770.94 1639.21 3769.14L1655.41 3745.02H1658.47L1655.95 3775.44C1651.03 3778.32 1645.09 3780.6 1638.13 3782.28C1631.29 3783.96 1623.55 3784.8 1614.91 3784.8ZM1673.07 3783V3780.12L1682.25 3774.9L1722.39 3681.3H1737.69L1777.11 3773.82L1788.27 3780.12V3783H1737.87V3780.12L1750.65 3774.72L1740.39 3750.06H1704.03L1693.77 3774.72L1706.55 3780.12V3783H1673.07ZM1707.81 3740.88H1736.43L1722.03 3706.5L1707.81 3740.88ZM1799.2 3783V3779.94L1812.52 3774V3691.02L1799.2 3685.08V3682.2H1831.78L1891.72 3748.8V3691.02L1874.26 3685.08V3682.2H1915.84V3685.08L1902.7 3691.02V3783.72H1889.92L1823.5 3710.46V3773.82L1840.96 3779.94V3783H1799.2ZM1930.52 3783V3780.12L1943.84 3774.18V3691.02L1930.52 3685.08V3682.2H1984.7C1997.06 3682.2 2007.56 3684.18 2016.2 3688.14C2024.84 3692.1 2031.44 3697.5 2036 3704.34C2040.56 3711.18 2042.84 3719.04 2042.84 3727.92C2042.84 3738.72 2040.32 3748.26 2035.28 3756.54C2030.36 3764.82 2023.46 3771.3 2014.58 3775.98C2005.7 3780.66 1995.38 3783 1983.62 3783H1930.52ZM1976.24 3691.38H1970.12V3773.82H1978.04C1990.28 3773.82 1999.58 3770.16 2005.94 3762.84C2012.42 3755.4 2015.66 3745.26 2015.66 3732.42C2015.66 3719.34 2012.36 3709.26 2005.76 3702.18C1999.16 3694.98 1989.32 3691.38 1976.24 3691.38ZM2059.38 3783V3780.12L2071.26 3774.18V3691.02L2059.38 3685.08V3682.2H2110.5V3685.08L2097.54 3691.02V3774.18L2110.5 3780.12V3783H2059.38ZM2126.52 3783V3780.12L2139.84 3774.18V3691.02L2126.52 3685.08V3682.2H2180.7C2193.06 3682.2 2203.56 3684.18 2212.2 3688.14C2220.84 3692.1 2227.44 3697.5 2232 3704.34C2236.56 3711.18 2238.84 3719.04 2238.84 3727.92C2238.84 3738.72 2236.32 3748.26 2231.28 3756.54C2226.36 3764.82 2219.46 3771.3 2210.58 3775.98C2201.7 3780.66 2191.38 3783 2179.62 3783H2126.52ZM2172.24 3691.38H2166.12V3773.82H2174.04C2186.28 3773.82 2195.58 3770.16 2201.94 3762.84C2208.42 3755.4 2211.66 3745.26 2211.66 3732.42C2211.66 3719.34 2208.36 3709.26 2201.76 3702.18C2195.16 3694.98 2185.32 3691.38 2172.24 3691.38ZM2246.12 3783V3780.12L2255.3 3774.9L2295.44 3681.3H2310.74L2350.16 3773.82L2361.32 3780.12V3783H2310.92V3780.12L2323.7 3774.72L2313.44 3750.06H2277.08L2266.82 3774.72L2279.6 3780.12V3783H2246.12ZM2280.86 3740.88H2309.48L2295.08 3706.5L2280.86 3740.88ZM2385.37 3783V3780.12L2401.93 3774.18V3691.38H2379.61L2367.55 3716.22H2364.67V3682.2H2465.47V3716.22H2462.59L2450.35 3691.38H2428.03V3774.18L2444.77 3780.12V3783H2385.37ZM2479.84 3783V3780.12L2493.16 3774.18V3691.02L2479.84 3685.08V3682.2H2566.78V3709.2H2563.9L2552.2 3691.38H2519.44V3726.66H2542.66L2550.94 3713.7H2553.64V3747.9H2550.94L2542.66 3735.12H2519.44V3773.82H2555.8L2568.22 3750.6H2571.1V3783H2479.84ZM2628.8 3783V3780.12L2639.78 3774L2686.76 3663.3H2702.6L2749.04 3773.64L2761.28 3780.12V3783H2704.4V3780.12L2720.06 3773.64L2707.82 3743.76H2665.16L2652.92 3773.64L2667.86 3780.12V3783H2628.8ZM2669.3 3733.86H2703.68L2686.58 3691.92L2669.3 3733.86ZM2770.92 3783V3779.94L2784.24 3774V3691.02L2770.92 3685.08V3682.2H2803.5L2863.44 3748.8V3691.02L2845.98 3685.08V3682.2H2887.56V3685.08L2874.42 3691.02V3783.72H2861.64L2795.22 3710.46V3773.82L2812.68 3779.94V3783H2770.92ZM2894.05 3783V3780.12L2903.23 3774.9L2943.37 3681.3H2958.67L2998.09 3773.82L3009.25 3780.12V3783H2958.85V3780.12L2971.63 3774.72L2961.37 3750.06H2925.01L2914.75 3774.72L2927.53 3780.12V3783H2894.05ZM2928.79 3740.88H2957.41L2943.01 3706.5L2928.79 3740.88ZM3020.54 3783V3780.12L3033.86 3774.18V3691.02L3020.54 3685.08V3682.2H3074.9V3685.08L3060.14 3691.02V3773.82H3093.26L3106.76 3744.48H3109.64V3783H3020.54ZM3142.62 3783V3780.12L3156.48 3774.18V3735.48L3124.08 3691.56L3112.2 3685.08V3682.2H3163.5V3685.08L3152.16 3690.66V3691.2L3178.26 3726.12L3201.84 3691.56V3690.84L3189.96 3685.08V3682.2H3225.78V3685.08L3214.62 3690.3L3182.76 3735.66V3774.18L3196.44 3780.12V3783H3142.62ZM3271.86 3784.8C3265.02 3784.8 3258.96 3784.08 3253.68 3782.64C3248.52 3781.2 3243.54 3779.28 3238.74 3776.88L3237.12 3751.32H3240L3252.42 3770.58C3257.82 3774.06 3264.06 3775.8 3271.14 3775.8C3277.02 3775.8 3281.64 3774.66 3285 3772.38C3288.36 3770.1 3290.04 3766.68 3290.04 3762.12C3290.04 3758.76 3289.14 3756.12 3287.34 3754.2C3285.54 3752.16 3282.6 3750.18 3278.52 3748.26C3274.56 3746.22 3269.28 3743.64 3262.68 3740.52C3255.24 3737.16 3249.66 3733.2 3245.94 3728.64C3242.34 3724.08 3240.54 3718.44 3240.54 3711.72C3240.54 3705.96 3242.22 3700.74 3245.58 3696.06C3249.06 3691.26 3253.62 3687.42 3259.26 3684.54C3265.02 3681.66 3271.26 3680.22 3277.98 3680.22C3283.5 3680.22 3288.66 3680.88 3293.46 3682.2C3298.26 3683.4 3302.64 3685.08 3306.6 3687.24L3308.22 3711.72H3305.34L3292.2 3692.46C3290.16 3691.26 3288.06 3690.42 3285.9 3689.94C3283.86 3689.46 3281.52 3689.22 3278.88 3689.22C3274.08 3689.22 3270.18 3690.48 3267.18 3693C3264.3 3695.4 3262.86 3698.7 3262.86 3702.9C3262.86 3705.66 3263.52 3708 3264.84 3709.92C3266.28 3711.72 3268.56 3713.52 3271.68 3715.32C3274.92 3717.12 3279.12 3719.28 3284.28 3721.8C3290.64 3724.92 3295.86 3727.98 3299.94 3730.98C3304.02 3733.98 3307.02 3737.28 3308.94 3740.88C3310.86 3744.48 3311.82 3748.8 3311.82 3753.84C3311.82 3760.08 3310.02 3765.54 3306.42 3770.22C3302.94 3774.9 3298.14 3778.5 3292.02 3781.02C3286.02 3783.54 3279.3 3784.8 3271.86 3784.8ZM3328.69 3783V3780.12L3340.57 3774.18V3691.02L3328.69 3685.08V3682.2H3379.81V3685.08L3366.85 3691.02V3774.18L3379.81 3780.12V3783H3328.69ZM3431.11 3784.8C3424.27 3784.8 3418.21 3784.08 3412.93 3782.64C3407.77 3781.2 3402.79 3779.28 3397.99 3776.88L3396.37 3751.32H3399.25L3411.67 3770.58C3417.07 3774.06 3423.31 3775.8 3430.39 3775.8C3436.27 3775.8 3440.89 3774.66 3444.25 3772.38C3447.61 3770.1 3449.29 3766.68 3449.29 3762.12C3449.29 3758.76 3448.39 3756.12 3446.59 3754.2C3444.79 3752.16 3441.85 3750.18 3437.77 3748.26C3433.81 3746.22 3428.53 3743.64 3421.93 3740.52C3414.49 3737.16 3408.91 3733.2 3405.19 3728.64C3401.59 3724.08 3399.79 3718.44 3399.79 3711.72C3399.79 3705.96 3401.47 3700.74 3404.83 3696.06C3408.31 3691.26 3412.87 3687.42 3418.51 3684.54C3424.27 3681.66 3430.51 3680.22 3437.23 3680.22C3442.75 3680.22 3447.91 3680.88 3452.71 3682.2C3457.51 3683.4 3461.89 3685.08 3465.85 3687.24L3467.47 3711.72H3464.59L3451.45 3692.46C3449.41 3691.26 3447.31 3690.42 3445.15 3689.94C3443.11 3689.46 3440.77 3689.22 3438.13 3689.22C3433.33 3689.22 3429.43 3690.48 3426.43 3693C3423.55 3695.4 3422.11 3698.7 3422.11 3702.9C3422.11 3705.66 3422.77 3708 3424.09 3709.92C3425.53 3711.72 3427.81 3713.52 3430.93 3715.32C3434.17 3717.12 3438.37 3719.28 3443.53 3721.8C3449.89 3724.92 3455.11 3727.98 3459.19 3730.98C3463.27 3733.98 3466.27 3737.28 3468.19 3740.88C3470.11 3744.48 3471.07 3748.8 3471.07 3753.84C3471.07 3760.08 3469.27 3765.54 3465.67 3770.22C3462.19 3774.9 3457.39 3778.5 3451.27 3781.02C3445.27 3783.54 3438.55 3784.8 3431.11 3784.8Z" fill="black"/>
</svg>
