<svg width="3509" height="3217" viewBox="0 0 3509 3217" fill="none" xmlns="http://www.w3.org/2000/svg">
<path d="M3464 1608.5C3464 2468.4 2702.39 3172 1754.5 3172C806.609 3172 45 2468.4 45 1608.5C45 748.603 806.609 45 1754.5 45C2702.39 45 3464 748.603 3464 1608.5Z" fill="white" stroke="#FF9F0F" stroke-width="90"/>
<path d="M719.977 1337.2L561.577 1355.2L556.777 1304.2L700.177 1289.2L603.577 1052.8L650.377 1034.8L835.177 1467.4L781.177 1487.8L719.977 1337.2ZM562.777 1105L612.577 1120L462.577 1490.2L411.577 1476.4L562.777 1105ZM1062.7 1224.4L973.304 1241.2L962.504 1189.6L1105.9 1162.6L1153.9 1480L1100.5 1488.4L1062.7 1224.4ZM889.304 1165L941.504 1163.2L952.904 1486.6L900.704 1488.4L889.304 1165ZM1390.29 1228L1272.69 1217.8L1251.69 1424.2L1370.49 1435.6L1364.49 1483.6L1194.69 1467.4L1227.09 1164.4L1389.09 1179.4L1384.89 1015.6H1437.69L1449.09 1486.6H1396.89L1390.29 1228ZM2036.34 1221.4L1923.54 1238.2L1919.34 1219L1801.74 1235.8V1488.4H1750.14V1191.4L1940.34 1165.6L1943.34 1184.2L2079.54 1162.6L2121.54 1480L2067.54 1488.4L2036.34 1221.4ZM1903.74 1261H1955.94V1488.4H1903.14L1903.74 1261ZM2373.87 1432.6L2205.27 1488.4L2156.07 1322.2L2300.67 1263.4L2318.07 1307.2L2216.07 1348L2240.07 1424.8L2363.07 1385.8L2325.27 1217.2L2173.47 1246.6L2162.07 1199.2L2366.07 1161.4L2436.87 1474L2385.87 1488.4L2373.87 1432.6ZM2664.07 1224.4L2574.67 1241.2L2563.87 1189.6L2707.27 1162.6L2755.27 1480L2701.87 1488.4L2664.07 1224.4ZM2490.67 1165L2542.87 1163.2L2554.27 1486.6L2502.07 1488.4L2490.67 1165ZM3048.05 1163.2L3097.25 1183.6L2892.05 1638.4L2842.85 1619.2L3048.05 1163.2ZM2782.25 1185.4L2831.45 1163.8L2933.45 1401.4L2884.85 1424.2L2782.25 1185.4ZM1430.19 2090.4L1317.39 2107.2L1313.19 2088L1195.59 2104.8V2357.4H1143.99V2060.4L1334.19 2034.6L1337.19 2053.2L1473.39 2031.6L1515.39 2349L1461.39 2357.4L1430.19 2090.4ZM1297.59 2130H1349.79V2357.4H1296.99L1297.59 2130ZM1566.12 2127.6L1617.12 2119.8L1644.72 2308.8L1752.72 2305.8L1763.52 2086.8L1560.12 2090.4L1560.72 2043L1817.52 2038.8L1801.32 2351.4L1600.92 2358L1566.12 2127.6ZM1958.58 2097L2059.38 2031L2087.58 2074.2L1987.98 2140.2L1958.58 2097ZM1899.18 2034L1951.38 2032.2L1962.78 2355.6L1910.58 2357.4L1899.18 2034ZM2131.64 2051.4L2372.24 2028L2357.24 2216.4H2228.84V2169H2306.84L2314.64 2079.6L2186.84 2092.8L2203.04 2304.6L2395.04 2274.6L2398.64 2323.8L2155.04 2359.2L2131.64 2051.4Z" fill="black"/>
</svg>
