<svg width="2427" height="2161" viewBox="0 0 2427 2161" fill="none" xmlns="http://www.w3.org/2000/svg">
<rect x="104.5" y="71.5" width="2237" height="1733" fill="white" stroke="#FFA800" stroke-width="47"/>
<path d="M2183.82 1674.47H2023.04V1675.52H2183.82V1674.47Z" fill="#F4E69B"/>
<path d="M1607.74 1685.87H1565.55V1686.92H1607.74V1685.87Z" fill="#F4E69B"/>
<path d="M2018.19 1635.45H1925.03V1636.5H2018.19V1635.45Z" fill="#F4E69B"/>
<path d="M464.295 1642.51H254.636V1643.56H464.295V1642.51Z" fill="#F4E69B"/>
<path d="M538.255 1642.51H507.515V1643.56H538.255V1642.51Z" fill="#F4E69B"/>
<path d="M1092.86 1660.25H638.16V1661.3H1092.86V1660.25Z" fill="#F4E69B"/>
<path d="M1150.47 1419.43H213.163C197.888 1419.43 185.457 1408.67 185.457 1395.45V254.89C185.457 241.666 197.888 230.905 213.163 230.905H1150.47C1165.74 230.905 1178.17 241.666 1178.17 254.89V1395.45C1178.17 1408.67 1165.74 1419.43 1150.47 1419.43ZM213.163 231.959C198.553 231.959 186.67 242.246 186.67 254.894V1395.45C186.67 1408.1 198.553 1418.39 213.163 1418.39H1150.47C1165.07 1418.39 1176.95 1408.1 1176.95 1395.45V254.89C1176.95 242.246 1165.07 231.955 1150.47 231.955L213.163 231.959Z" fill="#F4E69B"/>
<path d="M2200.37 1419.43H1263.07C1247.79 1419.43 1235.37 1408.67 1235.37 1395.45V254.89C1235.37 241.666 1247.8 230.905 1263.07 230.905H2200.37C2215.65 230.905 2228.07 241.666 2228.07 254.89V1395.45C2228.08 1408.67 2215.65 1419.43 2200.37 1419.43ZM1263.07 231.959C1248.46 231.959 1236.58 242.246 1236.58 254.894V1395.45C1236.58 1408.1 1248.46 1418.39 1263.07 1418.39H2200.37C2214.98 1418.39 2226.86 1408.1 2226.86 1395.45V254.89C2226.86 242.246 2214.98 231.955 2200.37 231.955L1263.07 231.959Z" fill="#F4E69B"/>
<path d="M2427 1606.83H0V1607.88H2427V1606.83Z" fill="#F4E69B"/>
<path d="M556.472 435.189C496.875 435.189 448.563 477.011 448.563 528.599C448.563 580.192 496.875 622.01 556.472 622.01C616.07 622.01 664.377 580.187 664.377 528.599C664.382 477.011 616.07 435.189 556.472 435.189ZM619.128 594.873V575.948C619.128 545.991 591.076 542.718 556.472 542.718C521.868 542.718 493.817 545.991 493.817 575.948V594.873C471.673 579.166 457.533 555.32 457.533 528.604C457.533 481.302 501.831 442.954 556.472 442.954C611.114 442.954 655.411 481.302 655.411 528.604C655.411 555.316 641.272 579.166 619.128 594.873Z" fill="#D2C081"/>
<path d="M556.472 536.062C571.756 536.062 584.145 523.456 584.145 507.905C584.145 492.354 571.756 479.747 556.472 479.747C541.189 479.747 528.8 492.354 528.8 507.905C528.8 523.456 541.189 536.062 556.472 536.062Z" fill="#D2C081"/>
<path d="M468.343 720.715C421.245 720.715 383.063 753.768 383.063 794.54C383.063 835.312 421.245 868.365 468.343 868.365C515.441 868.365 553.623 835.312 553.623 794.54C553.623 753.768 515.441 720.715 468.343 720.715ZM517.863 846.913V831.959C517.863 808.285 495.69 805.696 468.343 805.696C440.995 805.696 418.822 808.285 418.822 831.959V846.913C401.324 834.501 390.145 815.651 390.145 794.536C390.145 757.15 425.152 726.846 468.338 726.846C511.524 726.846 546.531 757.15 546.531 794.536C546.536 815.655 535.362 834.501 517.863 846.913Z" fill="#D2C081"/>
<path d="M468.343 755.928C454.145 755.928 446.471 765.891 446.471 778.182C446.471 790.472 454.145 800.435 468.343 800.435C482.541 800.435 490.215 790.472 490.215 778.182C490.215 765.891 482.541 755.928 468.343 755.928Z" fill="#D2C081"/>
<path d="M824.694 293.691C787.469 293.691 757.296 319.815 757.296 352.04C757.296 384.265 787.474 410.385 824.694 410.385C861.919 410.385 892.097 384.261 892.097 352.04C892.097 319.815 861.919 293.691 824.694 293.691ZM863.832 393.434V381.614C863.832 362.902 846.309 360.856 824.694 360.856C803.079 360.856 785.556 362.902 785.556 381.614V393.434C771.727 383.622 762.893 368.726 762.893 352.04C762.893 322.496 790.561 298.54 824.694 298.54C858.823 298.54 886.495 322.491 886.495 352.04C886.495 368.726 877.661 383.622 863.832 393.434Z" fill="#D2C081"/>
<path d="M824.694 321.525C813.472 321.525 807.409 329.399 807.409 339.114C807.409 348.83 813.472 356.704 824.694 356.704C835.917 356.704 841.979 348.83 841.979 339.114C841.979 329.395 835.917 321.525 824.694 321.525Z" fill="#D2C081"/>
<path d="M1957.64 745.481C1920.42 745.481 1890.24 771.605 1890.24 803.826C1890.24 836.051 1920.42 862.171 1957.64 862.171C1994.87 862.171 2025.04 836.047 2025.04 803.826C2025.04 771.605 1994.87 745.481 1957.64 745.481ZM1996.77 845.22V833.4C1996.77 814.688 1979.25 812.646 1957.64 812.646C1936.02 812.646 1918.5 814.693 1918.5 833.4V845.22C1904.67 835.408 1895.84 820.512 1895.84 803.826C1895.84 774.278 1923.5 750.326 1957.64 750.326C1991.77 750.326 2019.44 774.278 2019.44 803.826C2019.44 820.517 2010.61 835.413 1996.77 845.22Z" fill="#D2C081"/>
<path d="M1957.64 773.312C1946.42 773.312 1940.36 781.186 1940.36 790.901C1940.36 800.616 1946.42 808.491 1957.64 808.491C1968.86 808.491 1974.93 800.616 1974.93 790.901C1974.93 781.186 1968.86 773.312 1957.64 773.312Z" fill="#D2C081"/>
<path d="M1682.73 303.939C1634.71 303.939 1595.77 337.64 1595.77 379.214C1595.77 420.789 1634.7 454.489 1682.73 454.489C1730.75 454.489 1769.68 420.789 1769.68 379.214C1769.68 337.64 1730.75 303.939 1682.73 303.939ZM1733.22 432.617V417.368C1733.22 393.228 1710.61 390.589 1682.73 390.589C1654.84 390.589 1632.23 393.228 1632.23 417.368V432.617C1614.39 419.961 1603 400.741 1603 379.214C1603 341.098 1638.7 310.196 1682.73 310.196C1726.76 310.196 1762.45 341.098 1762.45 379.214C1762.45 400.741 1751.06 419.961 1733.22 432.617Z" fill="#D2C081"/>
<path d="M1682.73 339.846C1668.25 339.846 1660.43 350.006 1660.43 362.537C1660.43 375.067 1668.25 385.227 1682.73 385.227C1697.2 385.227 1705.03 375.067 1705.03 362.537C1705.03 350.006 1697.2 339.846 1682.73 339.846Z" fill="#D2C081"/>
<path d="M1864.9 468.469C1800.54 468.469 1748.36 513.636 1748.36 569.355C1748.36 625.073 1800.54 670.24 1864.9 670.24C1929.27 670.24 1981.44 625.073 1981.44 569.355C1981.44 513.64 1929.27 468.469 1864.9 468.469ZM1932.57 640.931V620.493C1932.57 588.142 1902.27 584.604 1864.9 584.604C1827.53 584.604 1797.23 588.142 1797.23 620.493V640.931C1773.32 623.968 1758.05 598.21 1758.05 569.359C1758.05 518.271 1805.89 476.856 1864.9 476.856C1923.92 476.856 1971.76 518.271 1971.76 569.359C1971.76 598.21 1956.49 623.964 1932.57 640.931Z" fill="#D2C081"/>
<path d="M1864.9 516.594C1845.5 516.594 1835.02 530.209 1835.02 547.004C1835.02 563.799 1845.5 577.414 1864.9 577.414C1884.3 577.414 1894.79 563.799 1894.79 547.004C1894.79 530.209 1884.3 516.594 1864.9 516.594Z" fill="#D2C081"/>
<path d="M463.62 997.837H457.795V1104.58H463.62V997.837Z" fill="#BAAE97"/>
<path d="M460.708 1008.97C456.708 1008.97 453.47 1006.17 453.47 1002.71V981.197C453.47 977.734 456.713 974.932 460.708 974.932C464.702 974.932 467.945 977.739 467.945 981.197V1002.71C467.945 1006.17 464.702 1008.97 460.708 1008.97Z" fill="#BAAE97"/>
<path d="M389.664 1017.01C386.839 1019.46 382.257 1019.46 379.427 1017.01L361.856 1001.8C359.031 999.358 359.031 995.391 361.856 992.942C364.681 990.496 369.263 990.496 372.093 992.942L389.664 1008.15C392.489 1010.6 392.489 1014.57 389.664 1017.01Z" fill="#BAAE97"/>
<path d="M438.632 1104.58H432.807V1077C432.807 1064.7 427.273 1053.14 417.226 1044.44L373.705 1006.76L377.826 1003.19L421.347 1040.87C432.496 1050.52 438.637 1063.35 438.637 1077L438.632 1104.58Z" fill="#BAAE97"/>
<path d="M529.95 1017.01C532.775 1019.46 537.357 1019.46 540.187 1017.01L557.758 1001.8C560.583 999.358 560.583 995.391 557.758 992.942C554.933 990.496 550.351 990.496 547.521 992.942L529.95 1008.15C527.125 1010.6 527.125 1014.57 529.95 1017.01Z" fill="#BAAE97"/>
<path d="M486.812 1104.58H480.987V1077C480.987 1063.35 487.128 1050.52 498.277 1040.87L541.798 1003.19L545.919 1006.76L502.398 1044.44C492.35 1053.14 486.817 1064.7 486.817 1077L486.812 1104.58Z" fill="#BAAE97"/>
<path d="M585.96 1191.85H335.455L317.976 1096.77H603.434L585.96 1191.85Z" fill="#BAAE97"/>
<path d="M603.434 1080.2H317.976V1096.76H603.434V1080.2Z" fill="#D2C081"/>
<path d="M516.188 1117.82H405.221V1595.84H516.188V1117.82Z" fill="#D2C081"/>
<path d="M569.942 1582.57H351.478V1609.47H569.942V1582.57Z" fill="#F4E69B"/>
<path d="M1960.55 997.837H1954.73V1104.58H1960.55V997.837Z" fill="#BAAE97"/>
<path d="M1957.64 1008.97C1953.64 1008.97 1950.41 1006.17 1950.41 1002.71V981.197C1950.41 977.734 1953.64 974.932 1957.64 974.932C1961.64 974.932 1964.88 977.739 1964.88 981.197V1002.71C1964.88 1006.17 1961.64 1008.97 1957.64 1008.97Z" fill="#BAAE97"/>
<path d="M1886.6 1017.01C1883.77 1019.46 1879.19 1019.46 1876.36 1017.01L1858.79 1001.8C1855.97 999.358 1855.97 995.391 1858.79 992.942C1861.62 990.496 1866.2 990.496 1869.03 992.942L1886.6 1008.15C1889.42 1010.6 1889.42 1014.57 1886.6 1017.01Z" fill="#BAAE97"/>
<path d="M1935.57 1104.58H1929.74V1077C1929.74 1064.7 1924.21 1053.14 1914.16 1044.44L1870.64 1006.76L1874.76 1003.19L1918.28 1040.87C1929.43 1050.52 1935.57 1063.35 1935.57 1077V1104.58Z" fill="#BAAE97"/>
<path d="M2026.88 1017.01C2029.71 1019.46 2034.29 1019.46 2037.12 1017.01L2054.69 1001.8C2057.52 999.358 2057.52 995.391 2054.69 992.942C2051.87 990.496 2047.29 990.496 2044.46 992.942L2026.88 1008.15C2024.06 1010.6 2024.06 1014.57 2026.88 1017.01Z" fill="#BAAE97"/>
<path d="M1983.75 1104.58H1977.92V1077C1977.92 1063.35 1984.06 1050.52 1995.21 1040.87L2038.73 1003.19L2042.85 1006.76L1999.33 1044.44C1989.29 1053.14 1983.75 1064.7 1983.75 1077L1983.75 1104.58Z" fill="#BAAE97"/>
<path d="M2082.89 1191.85H1832.39L1814.91 1096.77H2100.37L2082.89 1191.85Z" fill="#BAAE97"/>
<path d="M2100.37 1080.2H1814.91V1096.76H2100.37V1080.2Z" fill="#D2C081"/>
<path d="M2013.12 1117.82H1902.16V1595.84H2013.12V1117.82Z" fill="#D2C081"/>
<path d="M2066.87 1582.57H1848.41V1609.47H2066.87V1582.57Z" fill="#D2C081"/>
<path d="M653.853 1309.53C653.853 1309.53 589.702 1396.87 591.988 1504.65C591.988 1504.65 626.588 1374.54 653.853 1309.53Z" fill="#D2C081"/>
<path d="M535.43 1263.88C535.43 1263.88 615.856 1366.01 598.483 1494.34C598.483 1494.34 570.01 1332.22 535.43 1263.88Z" fill="#D2C081"/>
<path d="M597.275 1525.43C597.275 1525.43 618.181 1392.76 524.023 1352.73C524.023 1352.73 573.956 1386.04 597.275 1525.43Z" fill="#F5F5F5"/>
<path d="M606.934 1563.76C606.686 1562.22 582.577 1407.54 618.831 1274.4L623.957 1275.45C587.926 1407.74 611.9 1561.6 612.147 1563.14L606.934 1563.76Z" fill="#BAAE97"/>
<path d="M605.924 1276.8L604.206 1277.12C601.556 1277.61 599.973 1279.98 600.789 1282.22L603.182 1288.77C604.23 1291.65 608.448 1292.52 610.875 1290.35L613.623 1287.91C615.948 1285.83 619.962 1286.52 621.2 1289.2L625.374 1298.23C626.447 1300.55 629.699 1301.46 632.136 1300.1L640.771 1295.32C643.266 1293.93 643.625 1290.9 641.509 1289.11L640.063 1287.88C637.204 1285.46 639.029 1281.25 643.023 1281.06L650.659 1280.68C653.392 1280.55 655.387 1278.39 654.94 1276.05L653.872 1270.46C653.358 1267.78 649.969 1266.32 647.193 1267.58L646.664 1267.82C642.873 1269.54 638.66 1266.24 640.252 1262.81L642.591 1257.76C643.732 1255.3 641.829 1252.58 638.776 1252.31L630.578 1251.6C627.864 1251.36 625.51 1253.21 625.51 1255.57C625.51 1259.6 619.389 1261.08 616.967 1257.64L615.826 1256.01C614.278 1253.81 610.749 1253.44 608.638 1255.26L602.764 1260.33C600.871 1261.97 600.978 1264.64 602.992 1266.16L607.963 1269.91C610.832 1272.05 609.628 1276.1 605.924 1276.8Z" fill="#BAAE97"/>
<path d="M616.215 1489.87L622.836 1445.46H564.714L571.335 1489.87C544.444 1497.93 525.101 1519.99 525.101 1546.01C525.101 1564.48 534.833 1588.19 550.094 1605.4H637.456C652.722 1588.19 662.449 1564.48 662.449 1546.01C662.449 1519.99 643.111 1497.93 616.215 1489.87Z" fill="#D2C081"/>
<path d="M1190.09 1780.45C1709.87 1780.45 2131.23 1759.15 2131.23 1732.87C2131.23 1706.59 1709.87 1685.29 1190.09 1685.29C670.318 1685.29 248.957 1706.59 248.957 1732.87C248.957 1759.15 670.318 1780.45 1190.09 1780.45Z" fill="#F5F5F5"/>
<path d="M1308.61 1641.4L1313.67 1700.24H1283.47L1268.63 1643.48L1308.61 1641.4Z" fill="#B55B52"/>
<path d="M1314.99 1697.02L1277.92 1696.98C1276.31 1697 1275.14 1697.99 1275.09 1699.35L1268.63 1730.2C1268.52 1732.87 1271.03 1735.5 1274.23 1736.07C1274.64 1736.14 1275.05 1736.18 1275.46 1736.18C1290.75 1735.72 1304.22 1734.79 1323.33 1734.53C1345.86 1734.2 1340.67 1736.62 1367.24 1736.55C1383.24 1736.5 1382.65 1720.7 1375.71 1720.02C1343.97 1717.1 1338.94 1709.02 1324.83 1699.57C1321.82 1697.76 1318.32 1696.85 1314.99 1697.02Z" fill="#263238"/>
<path d="M1266.78 1098.79L1319.12 1687.88L1274.44 1689.79C1274.44 1689.79 1229.35 1551.01 1221.03 1466.66C1220.46 1460.84 1220.05 1455.27 1219.86 1450C1218.94 1425.38 1215.94 1400.85 1209.98 1376.76L1207.91 1368.36L1178.67 1250.04C1178.67 1250.04 1134.35 1185.79 1159.48 1096.1L1266.78 1098.79Z" fill="#263238"/>
<path opacity="0.4" d="M1194.12 1312.56C1208.95 1248.03 1201.53 1171.47 1201.53 1171.47L1179.58 1179.08L1164.77 1214.7C1164.77 1214.7 1164.81 1217.56 1164.93 1222.31C1171.75 1239.97 1178.67 1250.03 1178.67 1250.03L1194.12 1312.56Z" fill="black"/>
<path d="M1104.02 1641.4L1094.11 1700.24H1063.91L1064.04 1643.48L1104.02 1641.4Z" fill="#B55B52"/>
<path d="M1096.64 1697.02L1059.57 1696.98C1057.97 1697 1056.79 1697.99 1056.74 1699.35L1050.28 1730.2C1050.17 1732.87 1052.68 1735.5 1055.88 1736.07C1056.29 1736.14 1056.71 1736.18 1057.11 1736.18C1072.4 1735.72 1085.87 1734.79 1104.98 1734.53C1127.52 1734.2 1122.32 1736.62 1148.89 1736.55C1164.89 1736.5 1164.29 1720.7 1157.35 1720.02C1125.61 1717.1 1120.58 1709.02 1106.48 1699.57C1103.47 1697.76 1099.97 1696.85 1096.64 1697.02Z" fill="#263238"/>
<path d="M1224.84 1098.79L1177.88 1291.4L1103.64 1688.84L1059.12 1687.16C1059.12 1687.16 1049.31 1559.05 1062.7 1473.74C1063.75 1467.01 1064.95 1460.54 1066.32 1454.42C1072.66 1425.94 1076.23 1397.04 1075.88 1368.04L1075.78 1359.69L1074.44 1250.04C1074.44 1250.04 1065.19 1166.81 1090.8 1096.1L1224.84 1098.79Z" fill="#263238"/>
<path opacity="0.4" d="M1266.78 1098.78L1159.47 1096.09C1159.34 1096.55 1159.24 1097 1159.11 1097.46L1090.8 1096.09C1082.49 1119.04 1077.86 1143.3 1075.38 1165.61L1173.7 1177.69C1184.86 1179.07 1195.47 1173.05 1198.48 1163.64L1208.33 1132.87L1217.93 1163.52C1220.85 1172.84 1231.63 1178.59 1242.56 1176.66L1273.22 1171.23L1266.78 1098.78Z" fill="black"/>
<path d="M1401.56 965.866L1429.31 967.085C1429.31 967.085 1442.31 961.774 1446.96 960.879C1451.81 959.95 1462.61 957.693 1466.79 960.013C1471.3 962.517 1475.79 972.707 1474.73 977.254C1473.34 983.208 1461.92 993.339 1455.05 994.57C1447.75 995.877 1427.41 984.851 1427.41 984.851L1399.03 984.611L1401.56 965.866Z" fill="#B55B52"/>
<path d="M1396.12 962.345L1419.79 964.824L1413.31 987.196L1389.61 986.935L1396.12 962.345Z" fill="#FFD540"/>
<path opacity="0.8" d="M1396.12 962.345L1419.79 964.824L1413.31 987.196L1389.61 986.935L1396.12 962.345Z" fill="white"/>
<path d="M1242.22 798C1242.22 798 1262.98 806.308 1294.31 882.961C1321.84 950.302 1406.92 961.202 1406.92 961.202L1399.66 989.494C1399.66 989.494 1283.07 991.196 1261.77 914.623C1240.47 838.058 1242.22 798 1242.22 798Z" fill="#263238"/>
<path opacity="0.4" d="M1261.77 914.627C1265.74 928.884 1273.01 940.423 1282.22 949.768C1281.29 900.832 1266.1 849.672 1266.1 849.672L1250.6 853.215L1249.57 863.245C1252.42 877.969 1256.35 895.104 1261.77 914.627Z" fill="black"/>
<path d="M1074.59 1008.56L1064.3 1152.16L1173.7 1165.6C1184.87 1166.98 1195.47 1160.96 1198.49 1151.55L1208.33 1120.78L1217.93 1151.43C1220.85 1160.75 1231.63 1166.5 1242.56 1164.57L1284.13 1157.21L1276.58 1008.56C1276.58 1008.56 1282.57 873.418 1259.2 816.225C1254.56 804.867 1243.57 796.366 1230.04 793.572C1199.24 787.205 1133.06 779.209 1057.92 804.867C1050.93 807.253 1046.65 813.418 1047.58 819.868L1074.59 1008.56Z" fill="#263238"/>
<path opacity="0.4" d="M1070.01 976.556C1070.01 976.531 1070.01 976.51 1070.02 976.485C1083.68 894.285 1068.57 831.755 1068.57 831.755L1058.26 833.516L1053.05 858.148L1070.01 976.556Z" fill="black"/>
<path d="M1055.86 1095.48L1062.65 1123.38C1062.65 1123.38 1074.87 1134.86 1077.69 1139.24C1080.64 1143.8 1087.47 1153.93 1085.21 1158.7C1082.77 1163.86 1068.51 1171.06 1061.2 1171.23C1051.62 1171.46 1032.48 1162.84 1028.45 1156.35C1024.16 1149.45 1034.75 1126.28 1034.75 1126.28L1026.26 1098.01L1055.86 1095.48Z" fill="#B55B52"/>
<path d="M1058.84 1081.01L1064.69 1112.78L1026.49 1118.25L1017.33 1086.04L1058.84 1081.01Z" fill="#FFD540"/>
<path opacity="0.8" d="M1058.84 1081.01L1064.69 1112.78L1026.49 1118.25L1017.33 1086.04L1058.84 1081.01Z" fill="white"/>
<path d="M1019.14 1108.65C1019.14 1108.65 997.152 1054.77 1001.83 966.307C1006.5 877.843 1037.83 790.912 1069.61 807.808C1101.38 824.7 1063.22 924.392 1059.69 969.749C1056.17 1015.11 1064.42 1102.49 1064.42 1102.49L1019.14 1108.65Z" fill="#263238"/>
<path d="M1191.32 945.609C1193.84 945.609 1195.89 943.834 1195.89 941.646C1195.89 939.458 1193.84 937.684 1191.32 937.684C1188.79 937.684 1186.74 939.458 1186.74 941.646C1186.74 943.834 1188.79 945.609 1191.32 945.609Z" fill="#FFD540"/>
<path d="M1207.97 1025.95C1207.97 1028.14 1205.92 1029.91 1203.39 1029.91C1200.86 1029.91 1198.81 1028.14 1198.81 1025.95C1198.81 1023.76 1200.86 1021.99 1203.39 1021.99C1205.92 1021.99 1207.97 1023.76 1207.97 1025.95Z" fill="#FFD540"/>
<path d="M1207.97 1107.2C1210.5 1107.2 1212.55 1105.43 1212.55 1103.24C1212.55 1101.05 1210.5 1099.28 1207.97 1099.28C1205.44 1099.28 1203.39 1101.05 1203.39 1103.24C1203.39 1105.43 1205.44 1107.2 1207.97 1107.2Z" fill="#FFD540"/>
<path d="M1254.69 881.418H1219.01V900.084H1254.69V881.418Z" fill="#FFD540"/>
<path opacity="0.4" d="M1254.69 887.499H1219.01V900.084H1254.69V887.499Z" fill="white"/>
<path opacity="0.4" d="M1254.69 893.268H1219.01V900.084H1254.69V893.268Z" fill="white"/>
<path d="M1122.26 785.521C1122.26 785.521 1146.59 776.386 1177.05 782.226L1188.3 787.773L1192.24 798.614L1178 808.279L1144.37 811.241L1116.58 801.291L1118.12 790.597L1122.26 785.521Z" fill="#263238"/>
<path d="M1182.64 791.118C1175.19 782.571 1171.78 773.944 1174.38 763.565L1124.04 728.256C1129.8 766.234 1130.3 777.07 1120.16 794.009C1120.16 794.009 1138.34 810.939 1163.84 806.93C1189.33 802.921 1182.64 791.118 1182.64 791.118Z" fill="#B55B52"/>
<path opacity="0.2" d="M1174.38 763.565L1124.04 728.256C1125.34 736.803 1126.35 743.921 1127.05 750.098C1132.39 759.481 1146.09 776.579 1174.56 777.293C1173.3 772.986 1173.15 768.477 1174.38 763.565Z" fill="black"/>
<path d="M1156.07 653.544C1156.07 653.544 1174 638.988 1185.63 643.443C1197.25 647.897 1174.45 650.868 1174.45 650.868C1174.45 650.868 1215.11 647.598 1200.69 679.386L1156.07 653.544Z" fill="#263238"/>
<path d="M1115.58 700.396C1122.69 728.55 1125.22 745.316 1144.43 757.64C1173.28 776.23 1211.47 757.67 1214.16 728.335C1216.61 701.728 1204.52 660.297 1170.37 653.334C1146.02 648.254 1121.53 661.221 1115.66 682.298C1114.01 688.244 1113.98 694.442 1115.58 700.396Z" fill="#B55B52"/>
<path d="M1168.41 701.682C1168.83 704.01 1170.57 705.699 1172.32 705.456C1174.07 705.208 1175.14 703.157 1174.72 700.833C1174.29 698.505 1172.55 696.85 1170.8 697.094C1169.05 697.337 1167.98 699.388 1168.41 701.682Z" fill="#263238"/>
<path d="M1198.59 697.619C1199.01 699.913 1200.75 701.603 1202.51 701.359C1204.26 701.111 1205.32 699.06 1204.9 696.766C1204.47 694.472 1202.74 692.749 1200.98 692.993C1199.23 693.241 1198.17 695.291 1198.59 697.619Z" fill="#263238"/>
<path d="M1187.54 700.006C1192.01 706.637 1197.51 712.704 1203.89 718.032C1199.73 722.499 1191.48 721.852 1191.48 721.852L1187.54 700.006Z" fill="#A02724"/>
<path d="M1156.07 692.24C1155.8 692.274 1155.53 692.261 1155.27 692.198C1154.52 691.816 1154.24 691.001 1154.62 690.328C1156.96 686.395 1161.33 683.672 1166.38 683C1167.26 682.933 1168.03 683.496 1168.11 684.256C1168.19 685.017 1167.54 685.685 1166.66 685.752C1162.67 686.32 1159.23 688.509 1157.43 691.635C1157.12 692.026 1156.61 692.253 1156.07 692.24Z" fill="#263238"/>
<path d="M1208.44 685.484C1207.9 685.501 1207.38 685.274 1207.09 684.883C1204.89 681.975 1201.23 680.143 1197.23 679.946C1196.36 679.967 1195.63 679.37 1195.6 678.609C1195.58 677.853 1196.27 677.223 1197.15 677.202C1202.27 677.353 1207 679.647 1209.82 683.349C1210.32 683.95 1210.15 684.782 1209.46 685.211C1209.45 685.219 1209.44 685.227 1209.42 685.236C1209.14 685.412 1208.79 685.505 1208.44 685.484Z" fill="#263238"/>
<path d="M1222.09 728.256C1219.24 727.39 1217.71 733.865 1210.1 727.083C1202.5 720.301 1192.26 724.693 1192.26 724.693C1185.43 720.747 1175.94 725.26 1168.11 727.033C1159.72 728.932 1156.63 728.319 1153.21 727.033C1139.89 722.033 1139.39 721.596 1137.54 717.822C1132.72 707.977 1123.98 685.803 1130.86 675.441C1130.86 675.441 1184 659.381 1155.09 639.947C1147.81 635.055 1100.44 617.865 1126.24 646.582C1126.24 646.582 1083.91 648.632 1107.48 658.818C1107.48 658.818 1075.77 669.293 1096.31 679.034C1096.31 679.034 1079.85 692.694 1114.4 717.717L1127.64 719.314L1130.59 719.957L1125.78 735.677C1127.84 748.644 1145.33 759.998 1145.33 759.998C1150.13 768.175 1155.52 765.112 1155.52 765.112C1162.66 773.016 1170.26 767.171 1170.26 767.171C1176.25 777.331 1185.92 765.112 1185.92 765.112C1188.22 772.814 1201.75 756.409 1201.75 756.409C1205.6 762.59 1214.47 736.87 1214.47 736.87C1221.37 735.656 1225.04 729.155 1222.09 728.256Z" fill="#263238"/>
<path d="M1104.32 729.063C1109.83 734.504 1117.59 737.845 1125.92 738.366C1137 738.925 1140.23 729.899 1135.21 721.894C1130.71 714.717 1119.51 705.737 1109.34 708.901C1099.17 712.065 1097.63 722.28 1104.32 729.063Z" fill="#B55B52"/>
<path d="M1201.8 731.172C1201.8 731.172 1193.2 729.848 1169.45 730.411C1172.59 735.937 1178.1 740.353 1190.29 739.996C1202.47 739.639 1201.8 731.172 1201.8 731.172Z" fill="#263238"/>
<path d="M1184.34 735.739C1188.99 735.399 1193.66 736.223 1197.79 738.118C1195.55 739.357 1192.94 740 1190.29 739.967C1185.64 740.311 1180.98 739.488 1176.87 737.588C1179.09 736.353 1181.69 735.71 1184.34 735.739Z" fill="#FF5652"/>
<path d="M1200.68 731.038C1200.25 732.5 1198.88 733.618 1197.17 733.899C1190.11 734.063 1183.05 733.76 1176.05 732.996C1173.83 732.945 1171.76 731.975 1170.51 730.386C1180.57 730.004 1190.66 730.222 1200.68 731.038Z" fill="white"/>
<path d="M1119.41 822.229L1132.79 859.954L1163.89 898.869L1189.41 921.842L1198.97 888.154L1195.89 817.859L1195.41 802.715L1188.26 794.008L1176.91 802.622L1167.25 805.85L1153.1 805.955L1115.92 796.168L1119.41 822.229Z" fill="#FFD540"/>
<path opacity="0.8" d="M1119.41 822.229L1132.79 859.954L1163.89 898.869L1189.41 921.842L1198.97 888.154L1195.89 817.859L1195.41 802.715L1188.26 794.008L1176.91 802.622L1167.25 805.85L1153.1 805.955L1115.92 796.168L1119.41 822.229Z" fill="white"/>
<path d="M1149.42 817.859C1149.42 817.859 1153.93 826.507 1163.89 833.873C1163.89 833.873 1157.66 872.334 1167.24 899.264L1189.4 921.842L1195.89 893.92C1195.89 893.92 1185.97 849.235 1172.65 832.331C1172.65 832.331 1178.19 823.25 1180.02 813.926L1172.07 808.274C1172.07 808.274 1161.04 815.098 1154.4 810.346L1149.42 817.859Z" fill="#FFD540"/>
<path d="M1118.54 789.004C1118.54 789.004 1139.05 804.135 1159.65 804.135C1180.26 804.135 1182.54 785.521 1182.54 785.521L1191.23 793.651C1191.23 793.651 1192.61 806.871 1184.15 820.788L1162.64 808.228L1148.07 826.385C1148.07 826.385 1125.28 816.88 1114.11 799.849L1118.54 789.004Z" fill="#FFD540"/>
<path opacity="0.5" d="M1118.54 789.004C1118.54 789.004 1139.05 804.135 1159.65 804.135C1180.26 804.135 1182.54 785.521 1182.54 785.521L1191.23 793.651C1191.23 793.651 1192.61 806.871 1184.15 820.788L1162.64 808.228L1148.07 826.385C1148.07 826.385 1125.28 816.88 1114.11 799.849L1118.54 789.004Z" fill="white"/>
<path d="M1122.26 785.52C1122.26 785.52 1105.44 830.41 1188.26 916.03C1188.26 916.03 1203.13 811.14 1177.05 782.226L1195.17 788.428L1214.03 813.102L1200.21 820.788L1217.3 827.385C1217.3 827.385 1214.87 861.379 1190.82 926.762C1190.82 926.762 1136.37 890.318 1100.78 841.126L1117.35 829.692L1095.2 826.666L1105.05 792.605L1122.26 785.52Z" fill="#263238"/>
<path opacity="0.3" d="M1122.26 785.52C1122.26 785.52 1105.44 830.41 1188.26 916.03C1188.26 916.03 1203.13 811.14 1177.05 782.226L1195.17 788.428L1214.03 813.102L1200.21 820.788L1217.3 827.385C1217.3 827.385 1214.87 861.379 1190.82 926.762C1190.82 926.762 1136.37 890.318 1100.78 841.126L1117.35 829.692L1095.2 826.666L1105.05 792.605L1122.26 785.52Z" fill="black"/>
<path d="M1590.02 659.602C1590.02 659.602 1559.88 631.847 1578.12 626.124C1596.36 620.397 1605.49 602.778 1611.61 614.67C1617.73 626.565 1612.39 646.386 1617.1 647.269C1621.8 648.151 1614.03 608.358 1626.57 610.631C1639.1 612.905 1640.41 616.871 1659.1 620.393C1677.78 623.918 1636.56 650.954 1641.14 654.614C1645.72 658.278 1675.24 628.322 1677.27 641.537C1679.3 654.752 1695.59 661.362 1688.46 667.09C1681.34 672.817 1644.21 674.405 1644.21 674.405L1601.83 658.37L1590.02 659.602Z" fill="#FFD540"/>
<path opacity="0.1" d="M1590.06 649.593C1583.99 651.265 1576.61 642.554 1573.63 638.592C1577.75 648.269 1590.02 659.602 1590.02 659.602L1601.83 658.375L1644.22 674.41C1644.22 674.41 1660.16 673.716 1673.15 671.632C1659.81 672.762 1648.15 666.909 1660.67 665.564C1673.2 664.22 1672.38 660.035 1668.74 653.765C1665.1 647.496 1653.93 661.266 1651.03 657.887C1648.15 654.538 1662.1 643.302 1662.33 643.117C1653.52 648.66 1643.64 656.618 1641.14 654.622C1638.39 652.416 1652.23 641.735 1659.6 632.814C1659.54 632.881 1659.5 632.919 1659.44 632.991C1652.89 640.957 1639.38 648.059 1635.48 645.294C1631.58 642.529 1640.09 637.31 1643.31 631.73C1646.52 626.154 1639.73 624.099 1631.61 621.334C1623.49 618.569 1631.93 641.605 1624.84 640.684C1617.76 639.764 1619.77 618.359 1619.78 618.258C1617.67 629.209 1620.34 647.874 1617.1 647.269C1613.02 646.504 1616.47 631.553 1613.5 619.834C1613.53 620.212 1615.05 643.474 1606.86 645.294C1598.6 647.126 1597.52 626.25 1587.81 633.314C1578.08 640.378 1597.87 647.441 1590.06 649.593Z" fill="black"/>
<path d="M1647.93 792.75C1647.93 792.75 1643.31 794.259 1641.95 789.96C1635.81 770.45 1643.4 741.02 1648.4 724.043L1592.89 757.68C1595.83 768.967 1596.83 782.787 1589.28 792.36C1586.94 795.318 1583.39 796.7 1579.27 797.036L1573.74 797.482C1573.74 797.482 1572.29 818.983 1604.94 818.983C1637.57 818.983 1647.93 792.75 1647.93 792.75Z" fill="#71403E"/>
<path opacity="0.2" d="M1594.69 778.586C1632.79 784.683 1644.07 740.23 1644.07 740.23L1643.3 735.801L1636.66 739.28L1593.64 760.925C1594.86 766.631 1595.45 772.762 1594.69 778.586Z" fill="black"/>
<path d="M1655.82 704.034C1648.35 731.057 1645.55 747.214 1626.77 758.672C1598.53 775.947 1562.11 757.218 1560.1 728.742C1558.29 703.101 1570.81 663.237 1603.9 657.253C1627.82 652.95 1651.24 666.249 1656.21 686.953C1657.57 692.6 1657.43 698.437 1655.82 704.034Z" fill="#71403E"/>
<path d="M1587.8 696.739C1587.8 696.739 1579.35 708.656 1571.67 713.799C1575.47 718.207 1583.53 717.753 1583.53 717.753L1587.8 696.739Z" fill="#561616"/>
<path d="M1617.66 693.222C1617.89 693.272 1618.12 693.272 1618.35 693.222C1619.05 692.924 1619.33 692.192 1618.98 691.587C1618.97 691.571 1618.96 691.554 1618.95 691.541C1616.92 687.957 1612.95 685.486 1608.38 684.952C1607.6 684.898 1606.93 685.394 1606.86 686.066C1606.86 686.078 1606.86 686.091 1606.85 686.104C1606.79 686.776 1607.36 687.364 1608.14 687.419C1608.15 687.419 1608.17 687.423 1608.18 687.423C1611.73 687.864 1614.81 689.768 1616.44 692.529C1616.66 692.949 1617.13 693.222 1617.66 693.222Z" fill="#2E353A"/>
<path d="M1570.33 687.23C1570.8 687.242 1571.25 687.041 1571.51 686.704C1573.56 684.019 1576.94 682.317 1580.64 682.095C1581.43 681.981 1581.96 681.338 1581.84 680.658C1581.73 680.128 1581.25 679.712 1580.64 679.624C1576.02 679.847 1571.79 681.948 1569.23 685.288C1568.78 685.835 1568.92 686.595 1569.56 686.99L1569.57 687.003C1569.79 687.146 1570.06 687.225 1570.33 687.23Z" fill="#2E353A"/>
<path d="M1665.34 733.175C1660.34 738.641 1653.03 742.159 1645.03 742.944C1634.4 743.919 1630.76 735.297 1635.11 727.409C1639.05 720.262 1649.32 711.228 1659.34 713.921C1669.36 716.615 1671.37 726.43 1665.34 733.175Z" fill="#71403E"/>
<path d="M1599.32 655.429C1599.32 655.429 1605.89 650.555 1612.99 653.765C1612.99 653.765 1615.84 650.206 1626.9 655.429C1637.96 660.652 1660.67 672.485 1661.02 679.62C1661.02 679.62 1667.64 686.894 1660.79 691.739C1660.79 691.739 1636.06 683.99 1626.9 677.233C1617.74 670.476 1603.9 657.253 1603.9 657.253L1599.32 655.429Z" fill="#FFD540"/>
<path opacity="0.2" d="M1599.32 655.429C1599.32 655.429 1605.89 650.555 1612.99 653.765C1612.99 653.765 1615.84 650.206 1626.9 655.429C1637.96 660.652 1660.67 672.485 1661.02 679.62C1661.02 679.62 1667.64 686.894 1660.79 691.739C1660.79 691.739 1636.06 683.99 1626.9 677.233C1617.74 670.476 1603.9 657.253 1603.9 657.253L1599.32 655.429Z" fill="black"/>
<path d="M1652.07 717.77C1652.07 717.77 1614.21 690.339 1604.15 662.9C1604.15 662.9 1592.31 657.576 1570.87 682.032C1570.87 682.032 1568.23 668.636 1577.61 664.951C1577.61 664.951 1580.88 654.715 1592.93 653.891C1604.97 653.072 1610.37 656.446 1610.37 656.446L1660.79 691.738C1660.79 691.738 1666.94 698.121 1660.79 705.492C1660.79 705.492 1667.01 714.488 1652.07 717.77Z" fill="#FFD540"/>
<path opacity="0.1" d="M1609.91 664.745C1609.91 664.745 1635.23 696.222 1655.82 704.034C1655.82 704.034 1626.92 672.733 1609.91 664.745Z" fill="black"/>
<path d="M1583.41 723.203C1583.41 723.203 1594.3 716.871 1607.83 722.8C1621.37 728.729 1630.32 721.732 1630.32 721.732C1630.32 721.732 1627.22 731.599 1617.02 730.779C1617.02 730.779 1617.02 759.807 1608.54 751.411C1608.54 751.411 1604.15 769.429 1597.46 759C1597.46 759 1595.08 773.144 1587.8 756.222C1587.8 756.222 1583.27 765.904 1579.73 747.776C1579.73 747.776 1574.66 761.559 1572.26 733.002C1572.26 733.002 1566.74 734.939 1564.61 728.229C1564.61 728.229 1571.47 729.645 1573.63 724.043C1575.78 718.442 1583.41 723.203 1583.41 723.203Z" fill="#263238"/>
<path opacity="0.4" d="M1583.41 723.203C1583.41 723.203 1594.3 716.871 1607.83 722.8C1621.37 728.729 1630.32 721.732 1630.32 721.732C1630.32 721.732 1627.22 731.599 1617.02 730.779C1617.02 730.779 1617.02 759.807 1608.54 751.411C1608.54 751.411 1604.15 769.429 1597.46 759C1597.46 759 1595.08 773.144 1587.8 756.222C1587.8 756.222 1583.27 765.904 1579.73 747.776C1579.73 747.776 1574.66 761.559 1572.26 733.002C1572.26 733.002 1566.74 734.939 1564.61 728.229C1564.61 728.229 1571.47 729.645 1573.63 724.043C1575.78 718.442 1583.41 723.203 1583.41 723.203Z" fill="white"/>
<path d="M1576.92 731.712C1576.92 731.712 1585.81 730.346 1610.37 730.922C1607.12 736.637 1601.42 741.2 1588.83 740.834C1576.22 740.465 1576.92 731.712 1576.92 731.712Z" fill="#263238"/>
<path d="M1594.97 736.435C1590.16 736.082 1585.33 736.935 1581.06 738.893C1583.37 740.175 1586.07 740.839 1588.82 740.805C1593.63 741.163 1598.45 740.309 1602.7 738.347C1600.4 737.07 1597.71 736.406 1594.97 736.435Z" fill="#FF5652"/>
<path d="M1578.06 731.573C1578.51 733.086 1579.93 734.242 1581.7 734.532C1589 734.7 1596.3 734.389 1603.54 733.595C1605.84 733.544 1607.97 732.54 1609.27 730.897C1598.86 730.506 1588.44 730.729 1578.06 731.573Z" fill="white"/>
<path d="M1607.73 699.844C1607.35 701.92 1605.72 703.433 1604.15 703.138C1602.6 702.84 1601.64 701.13 1602.02 699.054C1602.4 696.978 1604.04 695.432 1605.64 695.76C1607.24 696.088 1608.15 697.768 1607.73 699.844Z" fill="#2E353A"/>
<path d="M1580.45 696.68C1580.07 698.756 1578.47 700.269 1576.87 699.974C1575.28 699.68 1574.37 697.966 1574.74 695.857C1575.12 693.747 1576.76 692.268 1578.36 692.562C1579.96 692.861 1580.87 694.575 1580.45 696.68Z" fill="#2E353A"/>
<path d="M1592.8 691.646C1591.98 690.965 1591 690.415 1589.8 690.23C1588.6 690.045 1587.46 690.272 1586.42 690.667L1561.47 686.843L1559.88 694.651C1558.65 700.626 1563.27 706.341 1570.17 707.4C1577.07 708.458 1583.68 704.458 1584.9 698.487L1585.64 694.857H1585.65C1585.95 693.377 1587.59 692.386 1589.31 692.646C1591.01 692.907 1592.16 694.327 1591.86 695.806H1591.87L1591.13 699.437C1589.9 705.408 1594.52 711.127 1601.42 712.186C1608.32 713.244 1614.93 709.244 1616.15 703.273L1617.75 695.466L1592.8 691.646ZM1582.1 698.058C1581.16 702.697 1576.03 705.803 1570.67 704.979C1565.31 704.16 1561.72 699.718 1562.67 695.079L1563.77 689.692L1583.21 692.671L1582.1 698.058ZM1613.35 702.849C1612.4 707.488 1607.27 710.593 1601.92 709.769C1596.56 708.95 1592.97 704.508 1593.92 699.869L1595.02 694.483L1614.46 697.462L1613.35 702.849Z" fill="#FFD540"/>
<path opacity="0.6" d="M1592.8 691.646C1591.98 690.965 1591 690.415 1589.8 690.23C1588.6 690.045 1587.46 690.272 1586.42 690.667L1561.47 686.843L1559.88 694.651C1558.65 700.626 1563.27 706.341 1570.17 707.4C1577.07 708.458 1583.68 704.458 1584.9 698.487L1585.64 694.857H1585.65C1585.95 693.377 1587.59 692.386 1589.31 692.646C1591.01 692.907 1592.16 694.327 1591.86 695.806H1591.87L1591.13 699.437C1589.9 705.408 1594.52 711.127 1601.42 712.186C1608.32 713.244 1614.93 709.244 1616.15 703.273L1617.75 695.466L1592.8 691.646ZM1582.1 698.058C1581.16 702.697 1576.03 705.803 1570.67 704.979C1565.31 704.16 1561.72 699.718 1562.67 695.079L1563.77 689.692L1583.21 692.671L1582.1 698.058ZM1613.35 702.849C1612.4 707.488 1607.27 710.593 1601.92 709.769C1596.56 708.95 1592.97 704.508 1593.92 699.869L1595.02 694.483L1614.46 697.462L1613.35 702.849Z" fill="white"/>
<path d="M1637.46 705.769L1617.11 695.73L1615.7 697.865L1645.26 712.45C1643.02 710.618 1640.36 708.362 1637.46 705.769Z" fill="#FFD540"/>
<path opacity="0.6" d="M1637.46 705.769L1617.11 695.73L1615.7 697.865L1645.26 712.45C1643.02 710.618 1640.36 708.362 1637.46 705.769Z" fill="white"/>
<path d="M1449.88 1057.5L1437.62 1080.23C1437.62 1080.23 1425.62 1088 1422.41 1091.26C1419.05 1094.68 1411.37 1102.19 1411.8 1106.66C1412.26 1111.48 1420.91 1120.03 1426.27 1121.41C1433.28 1123.21 1449.64 1119.05 1454.31 1114.18C1459.26 1108.99 1457.47 1087.39 1457.47 1087.39L1471.07 1064.64L1449.88 1057.5Z" fill="#71403E"/>
<path d="M1451.3 1044.67L1438.73 1070.87L1465.49 1081.96L1480.62 1055.95L1451.3 1044.67Z" fill="#FFD540"/>
<path opacity="0.8" d="M1451.3 1044.67L1438.73 1070.87L1465.49 1081.96L1480.62 1055.95L1451.3 1044.67Z" fill="white"/>
<path d="M1472.72 1073.48C1472.72 1073.48 1510.19 1020.7 1529.72 944.236C1549.26 867.773 1572.4 790.082 1543.24 795.204C1489.92 804.57 1489.06 917.159 1479.88 956.552C1470.7 995.946 1440.91 1060.6 1440.91 1060.6L1472.72 1073.48Z" fill="#263238"/>
<path opacity="0.2" d="M1472.72 1073.48C1472.72 1073.48 1510.19 1020.7 1529.72 944.236C1549.26 867.773 1577.23 791.414 1547.62 794.011C1489.92 799.07 1489.06 917.163 1479.88 956.552C1470.7 995.946 1440.91 1060.6 1440.91 1060.6L1472.72 1073.48Z" fill="black"/>
<path d="M1471.05 1641.39L1468.37 1700.24H1498.57L1511.12 1643.48L1471.05 1641.39Z" fill="#71403E"/>
<path d="M1466.92 1697.02L1503.99 1696.98C1505.6 1697 1506.81 1697.99 1506.91 1699.35L1514.62 1730.2C1514.84 1732.87 1512.43 1735.5 1509.25 1736.07C1508.85 1736.14 1508.43 1736.17 1508.03 1736.17C1492.73 1735.72 1479.21 1734.78 1460.1 1734.52C1437.55 1734.2 1442.84 1736.62 1416.27 1736.55C1400.26 1736.5 1400.22 1720.7 1407.13 1720.02C1438.75 1717.09 1443.46 1709.02 1457.18 1699.57C1460.12 1697.76 1463.58 1696.85 1466.92 1697.02Z" fill="#263238"/>
<path d="M1491 1098.79L1463.54 1682.48L1508.3 1684.39C1508.3 1684.39 1546.67 1551.01 1551.59 1466.66C1551.93 1460.84 1552.1 1455.27 1552.09 1450C1552.02 1425.38 1554.03 1400.85 1559.01 1376.76C1559.01 1376.76 1560.31 1370.45 1560.75 1368.36C1566.86 1338.78 1585.21 1250.04 1585.21 1250.04C1585.21 1250.04 1626.94 1185.79 1598.19 1096.1L1491 1098.79Z" fill="#FFD540"/>
<path opacity="0.2" d="M1572.28 1312.55C1554.84 1248.02 1559.18 1171.46 1559.18 1171.46L1581.44 1179.08L1597.68 1214.7C1597.68 1214.7 1597.75 1217.56 1597.83 1222.31C1591.72 1239.97 1585.21 1250.03 1585.21 1250.03L1572.28 1312.55Z" fill="black"/>
<path d="M1461.74 1673.74L1461.29 1687.41L1508.75 1689.86L1513.03 1676.4L1461.74 1673.74Z" fill="#FFD540"/>
<path opacity="0.4" d="M1461.74 1673.74L1461.29 1687.41L1508.75 1689.86L1513.03 1676.4L1461.74 1673.74Z" fill="white"/>
<path d="M1660.88 1641.39L1670.8 1700.24H1701L1700.87 1643.48L1660.88 1641.39Z" fill="#71403E"/>
<path d="M1668.27 1697.02L1705.34 1696.98C1706.94 1697 1708.12 1697.99 1708.17 1699.35L1714.63 1730.2C1714.74 1732.87 1712.23 1735.5 1709.03 1736.07C1708.61 1736.14 1708.2 1736.18 1707.8 1736.18C1692.51 1735.72 1679.03 1734.78 1659.93 1734.52C1637.39 1734.2 1642.58 1736.62 1616.01 1736.55C1600.01 1736.5 1600.61 1720.7 1607.55 1720.02C1639.29 1717.09 1644.32 1709.02 1658.42 1699.57C1661.44 1697.76 1664.94 1696.85 1668.27 1697.02Z" fill="#263238"/>
<path d="M1540.07 1098.79C1540.07 1098.79 1576.57 1243.03 1587.03 1291.4C1608.09 1388.8 1660.88 1682.58 1660.88 1682.58L1705.4 1680.9C1705.4 1680.9 1715.6 1559.04 1702.22 1473.73C1701.16 1467 1699.96 1460.53 1698.59 1454.41C1692.25 1425.93 1688.68 1397.04 1689.03 1368.03C1689.03 1368.03 1689.12 1361.77 1689.13 1359.68C1689.25 1332.27 1688.79 1277.41 1690.47 1250.03C1692.85 1211.44 1699.72 1166.81 1674.11 1096.09L1540.07 1098.79Z" fill="#FFD540"/>
<path d="M1657.19 1676.43L1659.68 1690.02L1706.96 1687.56L1707.84 1673.81L1657.19 1676.43Z" fill="#FFD540"/>
<path opacity="0.4" d="M1657.19 1676.43L1659.68 1690.02L1706.96 1687.56L1707.84 1673.81L1657.19 1676.43Z" fill="white"/>
<path d="M1496.18 1093.23C1496.18 1093.23 1521.04 1116.38 1558.7 1099.27C1558.7 1099.27 1579.04 1112.5 1639.12 1099.4L1670.67 799.911V794.679H1647.13L1605.22 802.163L1583.42 793.448L1569.8 791.099L1523.11 848.704L1497.94 1051.55L1496.18 1093.23Z" fill="#FFD540"/>
<path opacity="0.8" d="M1496.18 1093.23C1496.18 1093.23 1521.04 1116.38 1558.7 1099.27C1558.7 1099.27 1579.04 1112.5 1639.12 1099.4L1670.67 799.911V794.679H1647.13L1605.22 802.163L1583.42 793.448L1569.8 791.099L1523.11 848.704L1497.94 1051.55L1496.18 1093.23Z" fill="white"/>
<path d="M1588.19 809.311L1591.31 820.917L1594.9 830.594C1594.9 830.594 1552.18 903.801 1549.44 1044.89L1562.09 1056.07L1585.13 1043.69C1585.13 1043.69 1583.42 962.995 1604.87 832.149L1610.68 826.383L1620.01 814.748L1617.34 807.983C1617.34 807.983 1606.96 815.765 1596.57 805.937L1588.19 809.311Z" fill="#FFD540"/>
<path opacity="0.8" d="M1567.16 906.415C1566.94 907.284 1566.73 908.192 1566.5 909.079L1593.69 912.007C1593.8 911.108 1593.9 910.213 1594 909.305L1567.16 906.415Z" fill="white"/>
<path d="M1473.4 1164.94C1473.4 1164.94 1531.16 1213.63 1525.55 1054.09C1518.14 843.179 1579.78 788.943 1579.78 788.943C1579.78 788.943 1472.15 773.366 1483.08 993.627C1485.27 1037.82 1491 1098.79 1473.4 1164.94Z" fill="#263238"/>
<path d="M1653.82 787.653C1653.82 787.653 1620.44 870.668 1624.86 1005.91C1628.52 1118.11 1619.64 1172.8 1712.61 1165.8C1712.61 1165.8 1693.53 1103.26 1698.31 1017.4C1703.09 931.534 1778.72 777.48 1653.82 787.653Z" fill="#263238"/>
<path opacity="0.2" d="M1708.79 814.609C1703.37 808.277 1691.63 809.525 1686.28 816.551C1675.03 831.333 1656.72 850.461 1644.18 936.131L1625.82 937.018C1625.46 949.527 1624.83 990.639 1624.97 996.489C1636.29 995.375 1659.9 991.896 1667.64 989.967C1702.15 981.37 1735.34 845.666 1708.79 814.609Z" fill="black"/>
<path d="M1482.39 1067.05H1507.67C1507.67 1067.05 1511.11 1081.55 1477.51 1079.88L1482.39 1067.05Z" fill="#263238"/>
<path d="M1639.12 1067.05L1681.74 1062.64C1681.74 1062.64 1688.6 1075.24 1663.77 1077.17C1638.93 1079.1 1639.12 1067.05 1639.12 1067.05Z" fill="#263238"/>
<g opacity="0.1">
<path d="M1482.39 1067.05H1507.67C1507.67 1067.05 1511.11 1081.55 1477.51 1079.88L1482.39 1067.05Z" fill="white"/>
<path d="M1639.12 1067.05L1681.74 1062.64C1681.74 1062.64 1688.6 1075.24 1663.77 1077.17C1638.93 1079.1 1639.12 1067.05 1639.12 1067.05Z" fill="white"/>
</g>
<path d="M1579.78 788.948L1586.61 787.309L1605 797.999L1648.13 787.111L1653.82 787.653L1657.43 797.999L1617.34 822.03L1605 806.499L1586.61 816.387L1572.9 791.7L1579.78 788.948Z" fill="#FFD540"/>
<path opacity="0.5" d="M1579.78 788.948L1586.61 787.309L1605 797.999L1648.13 787.111L1653.82 787.653L1657.43 797.999L1617.34 822.03L1605 806.499L1586.61 816.387L1572.9 791.7L1579.78 788.948Z" fill="white"/>
<path d="M1653.82 787.653C1653.82 787.653 1628.81 849.927 1624.96 954.418C1643.59 880.518 1670.67 847.507 1670.67 847.507L1651.52 837.271L1670.67 825.396C1664.35 813.42 1664.84 794.583 1665.32 787.191C1661.69 787.183 1657.87 787.326 1653.82 787.653Z" fill="#263238"/>
<path opacity="0.1" d="M1653.82 787.653C1653.82 787.653 1628.81 849.927 1624.96 954.418C1643.59 880.518 1670.67 847.507 1670.67 847.507L1651.52 837.271L1670.67 825.396C1664.35 813.42 1664.84 794.583 1665.32 787.191C1661.69 787.183 1657.87 787.326 1653.82 787.653Z" fill="white"/>
<path d="M1521.57 964.919L1493.92 966.129C1493.92 966.129 1480.97 960.835 1476.33 959.948C1471.5 959.02 1460.73 956.772 1456.57 959.087C1452.07 961.583 1447.6 971.735 1448.66 976.269C1450.04 982.202 1461.42 992.299 1468.27 993.526C1475.55 994.829 1495.81 983.841 1495.81 983.841L1524.09 983.601L1521.57 964.919Z" fill="#71403E"/>
<path d="M1544.8 957.902L1510.04 961.411L1515 986.177H1547.62L1544.8 957.902Z" fill="#FFD540"/>
<path opacity="0.8" d="M1544.8 957.902L1510.04 961.411L1515 986.177H1547.62L1544.8 957.902Z" fill="white"/>
<path d="M1689.55 804.869C1678.77 819.043 1661.2 861.016 1649.18 943.157L1527.31 956.04L1529.51 989.295C1529.51 989.295 1627.62 991.375 1665.44 981.946C1698.53 973.697 1736.59 832.779 1711.13 802.999C1705.94 796.936 1694.68 798.133 1689.55 804.869Z" fill="#263238"/>
<path d="M1525.61 866.433H1489.92V885.098H1525.61V866.433Z" fill="#FFD540"/>
<path opacity="0.4" d="M1525.61 872.517H1489.92V885.102H1525.61V872.517Z" fill="white"/>
<path opacity="0.4" d="M1525.61 878.282H1489.92V885.098H1525.61V878.282Z" fill="#263238"/>
<path opacity="0.4" d="M1510.67 875.765C1510.67 877.156 1509.37 878.282 1507.76 878.282C1506.16 878.282 1504.86 877.156 1504.86 875.765C1504.86 874.374 1506.16 873.248 1507.76 873.248C1509.37 873.252 1510.67 874.378 1510.67 875.765Z" fill="white"/>
<path d="M1567.24 789.166C1557.42 793.767 1546.33 803.18 1535.81 817.735L1541.96 831.131L1520.08 837.682C1520.08 837.682 1515.77 892.88 1527.73 952.355C1538.89 824.975 1579.79 788.952 1579.79 788.952C1579.79 788.952 1574.88 788.275 1567.24 789.166Z" fill="#263238"/>
<path opacity="0.1" d="M1567.24 789.166C1557.42 793.767 1546.33 803.18 1535.81 817.735L1541.96 831.131L1520.08 837.682C1520.08 837.682 1515.77 892.88 1527.73 952.355C1538.89 824.975 1579.79 788.952 1579.79 788.952C1579.79 788.952 1574.88 788.275 1567.24 789.166Z" fill="white"/>
<path d="M781.314 843.346C781.314 843.346 799.264 838.678 825.359 845.657C825.359 845.657 833.796 863.364 815.574 864.146C797.347 864.928 781.096 848.952 781.096 848.952L781.314 843.346Z" fill="#FFD540"/>
<path d="M757.685 737.073C757.685 737.073 807.919 687.057 846.678 719.862C846.678 719.862 876.826 743.885 870.72 768.727C864.618 793.569 835.912 783.862 855.469 828.231C855.469 828.231 842.518 850.531 781.896 833.488L766.121 811.591L774.436 833.488C774.436 833.488 737.817 829.769 738.108 798.179C738.39 766.592 722.425 736.724 757.685 737.073Z" fill="#263238"/>
<path d="M776.975 853.586C776.975 853.586 788.615 853.204 788.527 840.736C788.44 828.273 786.042 813.117 786.042 813.117L820.631 815.768C820.631 815.768 816.006 852.561 831.83 854.439C831.83 854.439 818.005 872.781 776.975 853.586Z" fill="#FFB573"/>
<path opacity="0.1" d="M820.631 815.772L786.042 813.121C786.042 813.121 786.915 818.667 787.629 825.798C793.046 831.996 803.176 839.446 821.51 842.03C818.772 830.702 820.631 815.772 820.631 815.772Z" fill="black"/>
<path d="M763.878 772.933C768.485 799.763 769.752 811.205 786.857 823.87C812.593 842.934 849.639 832.19 854.415 804.709C858.706 779.976 850.478 740.284 818.937 731.816C796.434 725.665 772.431 736.472 765.33 755.953C763.325 761.436 762.83 767.252 763.878 772.933Z" fill="#FFB573"/>
<path d="M758.631 794.808C760.859 799.687 765.233 803.599 770.796 805.683C778.188 808.393 782.906 802.889 781.712 796.38C780.644 790.543 775.499 782.072 767.655 782.11C761.947 782.291 757.486 786.446 757.695 791.388C757.743 792.577 758.063 793.737 758.631 794.808Z" fill="#FFB573"/>
<path d="M833.276 779.144C836.028 783.988 839.538 788.485 843.702 792.498C841.261 794.321 838.009 795.115 834.824 794.666L833.276 779.144Z" fill="#ED893E"/>
<path d="M799.186 766.92C798.973 766.89 798.769 766.823 798.589 766.714C798.041 766.357 797.934 765.68 798.351 765.205L798.366 765.189C801.138 761.869 805.598 759.924 810.331 759.978C811.006 760.041 811.506 760.55 811.467 761.138C811.414 761.718 810.836 762.159 810.161 762.125C806.254 762.134 802.594 763.768 800.312 766.512C800.045 766.811 799.618 766.966 799.186 766.92Z" fill="#263238"/>
<path d="M852.998 763.281C852.784 763.251 852.575 763.184 852.401 763.075C849.294 761.049 845.26 760.436 841.542 761.419C840.906 761.642 840.183 761.377 839.926 760.827L839.921 760.814C839.688 760.251 840.008 759.633 840.654 759.411C845.159 758.163 850.08 758.873 853.871 761.318C854.444 761.646 854.604 762.31 854.226 762.806C853.959 763.163 853.478 763.344 852.998 763.281Z" fill="#263238"/>
<path d="M815.005 776.849C815.219 779.03 816.738 780.707 818.418 780.593C820.097 780.48 821.233 778.606 820.995 776.391C820.753 774.177 819.262 772.534 817.617 772.651C815.971 772.765 814.797 774.639 815.005 776.849Z" fill="#263238"/>
<path d="M843.688 774.719C843.901 776.9 845.421 778.576 847.066 778.463C848.712 778.349 849.882 776.475 849.678 774.265C849.469 772.055 847.945 770.408 846.299 770.521C844.649 770.635 843.445 772.505 843.688 774.719Z" fill="#263238"/>
<path d="M845.581 770.693L851.517 768.731C851.517 768.731 848.784 773.067 845.581 770.693Z" fill="#263238"/>
<path d="M816.898 772.824L822.835 770.861C822.835 770.861 820.107 775.198 816.898 772.824Z" fill="#263238"/>
<path d="M828.81 807.465C830.276 807.469 831.737 807.36 833.184 807.133C833.601 807.074 833.883 806.734 833.815 806.372C833.815 806.364 833.81 806.36 833.81 806.352C833.742 805.999 833.354 805.755 832.941 805.809C826.481 806.906 819.801 805.288 814.933 801.456C814.647 801.183 814.156 801.162 813.841 801.41C813.525 801.658 813.501 802.082 813.787 802.355C817.84 805.679 823.228 807.511 828.81 807.465Z" fill="#263238"/>
<path d="M774.431 734.405C774.431 734.405 796.949 742.792 793.342 762.377C793.342 762.377 815.666 750.2 839.839 756.982C839.839 756.982 836.494 745.095 825.374 737.943C825.374 737.943 852.581 755.52 856.605 766.932C860.628 778.345 855.677 727.438 818.001 726.018C818.001 726.018 793.556 716.66 774.431 734.405Z" fill="#263238"/>
<path d="M788.338 738.817C788.338 738.817 792.342 747.818 786.935 765.147C781.527 782.476 775.12 786.291 786.935 803.448C798.745 820.605 785.017 823.55 785.017 823.55C785.017 823.55 791.138 817.483 775.926 802.755C760.709 788.023 763.878 772.929 763.878 772.929C763.878 772.929 756.33 759.663 771.523 740.523C786.716 721.387 788.338 738.817 788.338 738.817Z" fill="#263238"/>
<path d="M770.795 805.688C770.795 805.688 788.925 812.696 788.008 830.021L776.868 820.176L766.116 811.596L770.795 805.688Z" fill="#263238"/>
<path d="M924.924 1290.35C924.483 1394.78 900.848 1708.89 900.848 1708.89H866.468C866.468 1708.89 838.63 1438.96 864.079 1351.01L821.354 1181.24L920.08 1192.23C920.08 1192.23 925.031 1265.72 924.924 1290.35Z" fill="#FFB573"/>
<path d="M898.654 1701.01L865.336 1700.97C863.89 1701 862.579 1701.88 862.191 1703.11L848.493 1730.84C847.712 1733.25 849.294 1735.61 852.027 1736.12C852.376 1736.18 852.74 1736.21 853.104 1736.21C866.967 1735.8 879.321 1734.96 896.562 1734.73C916.91 1734.43 911.619 1736.62 935.52 1736.56C949.922 1736.51 953.427 1722.3 947.359 1721.7C919.575 1719.07 917.114 1711.81 906.853 1703.31C904.605 1701.68 901.688 1700.86 898.654 1701.01Z" fill="#263238"/>
<path opacity="0.1" d="M921.58 1387.93H857.303C854.202 1414.84 853.178 1447.87 853.396 1482.42C865.031 1481.76 894.354 1479.43 916.891 1472.39C918.639 1443.36 920.255 1414.57 921.58 1387.93Z" fill="black"/>
<path d="M798.759 1297.82L738.778 1710.1H705.145C705.145 1710.1 698.752 1435.71 729.424 1350.38L732.269 1179.59L816.884 1192.23L798.759 1297.82Z" fill="#FFB573"/>
<path d="M737.633 1701.01L704.315 1700.97C702.868 1700.99 701.631 1701.88 701.339 1703.11L689.884 1730.84C689.297 1733.25 691.068 1735.61 693.845 1736.11C694.199 1736.18 694.563 1736.21 694.927 1736.21C708.756 1735.8 721.042 1734.96 738.264 1734.73C758.587 1734.43 753.471 1736.62 777.372 1736.56C791.769 1736.51 794.128 1722.3 788.012 1721.7C760.015 1719.07 756.966 1711.81 746.02 1703.31C743.642 1701.68 740.657 1700.86 737.633 1701.01Z" fill="#263238"/>
<path opacity="0.1" d="M724.755 1365.9C717.93 1392.53 713.358 1429.79 710.319 1470.04C725.114 1473.73 750.02 1478.81 772.504 1478.26L787.168 1377.48L724.755 1365.9Z" fill="black"/>
<path d="M952.32 1095.87C954.767 1103.78 957.669 1110.71 961.159 1116.3L977.42 1129.51L979.871 1147.63L951.99 1152.78L940.413 1135.81L939.268 1121.84C939.268 1121.84 935.084 1115.18 929.589 1102.65L952.32 1095.87Z" fill="#FFB573"/>
<path d="M927.725 1107.33C917.522 1088.44 902.926 1037.06 894.985 992.395C881.942 919.028 866.909 864.86 884.952 870.28C884.952 870.28 910.333 899.963 920.347 946.757C928.609 985.386 939.977 1061 954.738 1097.54L927.725 1107.33Z" fill="#FFD540"/>
<path opacity="0.1" d="M927.725 1107.33C917.522 1088.44 902.926 1037.06 894.985 992.395C881.942 919.028 866.909 864.86 884.952 870.28C884.952 870.28 910.333 899.963 920.347 946.757C928.609 985.386 939.977 1061 954.738 1097.54L927.725 1107.33Z" fill="black"/>
<path opacity="0.1" d="M880.078 912.973C883.656 934.042 889.49 961.502 894.985 992.395C897.203 1004.87 899.95 1017.86 902.97 1030.53C904.076 1018.72 906.469 1000.71 911.726 977.759C921.512 935.008 890.417 884.677 890.417 884.677H885.927L880.588 893.799L880.078 912.973Z" fill="black"/>
<path d="M771.421 851.628L781.091 848.947L806.322 864.142H815.569L823.354 861.158L832.373 853.359L841.372 856.544L847.823 878.008V884.555L850.561 892.451L858.502 919.024L864.507 953.304V979.108L862.283 1006.84L853.833 992.395L830.029 953.88L810.229 905.355L804.448 888.408L789.323 874.651L777.533 857.213L771.421 851.628Z" fill="#FFD540"/>
<path opacity="0.8" d="M771.421 851.628L781.091 848.947L806.322 864.142H815.569L823.354 861.158L832.373 853.359L841.372 856.544L847.823 878.008V884.555L850.561 892.451L858.502 919.024L864.507 953.304V979.108L862.283 1006.84L853.833 992.395L830.029 953.88L810.229 905.355L804.448 888.408L789.323 874.651L777.533 857.213L771.421 851.628Z" fill="white"/>
<path d="M733.104 1126.51C733.104 1126.51 718.673 1164.08 713.275 1269.67C707.878 1375.27 696.16 1458.02 696.16 1458.02C696.16 1458.02 840.436 1490.37 927.439 1458.02C927.439 1458.02 944.865 1271.03 913.406 1126.51L850.561 1107.33L733.104 1126.51Z" fill="#263238"/>
<path d="M728.012 873L758.18 1056.52C758.18 1056.52 739.497 1084.25 723.479 1141.44C723.479 1141.44 816.447 1168.18 843.6 1156.46C852.289 1152.71 862.288 1127 862.288 1127C862.288 1127 877.923 1154.22 888.316 1156.46C896.863 1158.31 920.347 1143.75 920.347 1143.75C920.347 1143.75 910.688 1095.47 897.169 1053.47L903.698 972.763C903.698 972.763 917.032 949.93 891.995 888.837L884.957 870.281C884.02 867.814 882.044 865.743 879.394 864.532C872.268 861.28 856.347 854.834 834.596 850.855C834.596 850.855 868.633 933.151 860.623 1001.93C860.623 1001.93 827.257 887.828 773.946 848.947C773.946 848.947 754.161 850.128 735.871 859.196C730.24 861.986 727.1 867.444 728.012 873Z" fill="#FFD540"/>
<path d="M807.462 868.188C807.462 868.188 814.904 859.137 830.698 863.566C830.698 863.566 833.164 872.617 832.378 882.437C832.378 882.437 847.158 900.317 864.511 967.923V981.033L862.288 1006.84L853.838 992.395L845.387 967.923C845.387 967.923 833.596 905.162 822.917 885.135L807.462 868.188Z" fill="#263238"/>
<path d="M773.936 848.947L781.309 843.346C781.309 843.346 801.327 862.322 814.675 861.692C828.024 861.061 825.354 845.657 825.354 845.657L834.581 850.855L838.698 854.128L837.707 874.646C837.707 874.646 826.019 862.793 819.121 864.524C812.224 866.259 806.317 878.966 806.317 878.966C806.317 878.966 790.813 871.495 773.936 848.947Z" fill="#FFD540"/>
<path opacity="0.5" d="M773.936 848.947L781.309 843.346C781.309 843.346 801.327 862.322 814.675 861.692C828.024 861.061 825.354 845.657 825.354 845.657L834.581 850.855L838.698 854.128L837.707 874.646C837.707 874.646 826.019 862.793 819.121 864.524C812.224 866.259 806.317 878.966 806.317 878.966C806.317 878.966 790.813 871.495 773.936 848.947Z" fill="white"/>
<path d="M862.948 1010.5C862.948 1010.5 869.846 974.679 868.511 895.728L850.561 887.257L861.837 884.559C861.837 884.559 851.469 864.251 842.343 852.447C839.839 851.893 837.276 851.355 834.587 850.859C834.587 850.859 868.623 933.155 860.614 1001.93C860.614 1001.93 827.247 887.832 773.936 848.951C773.936 848.951 771.421 849.107 767.393 849.703C774.154 855.859 787.26 870.554 787.566 892.261H801.895L790.206 901.506L862.948 1010.5Z" fill="#FFD540"/>
<path opacity="0.2" d="M862.948 1010.5C862.948 1010.5 869.846 974.679 868.511 895.728L850.561 887.257L861.837 884.559C861.837 884.559 851.469 864.251 842.343 852.447C839.839 851.893 837.276 851.355 834.587 850.859C834.587 850.859 868.623 933.155 860.614 1001.93C860.614 1001.93 827.247 887.832 773.936 848.951C773.936 848.951 771.421 849.107 767.393 849.703C774.154 855.859 787.26 870.554 787.566 892.261H801.895L790.206 901.506L862.948 1010.5Z" fill="black"/>
<path opacity="0.2" d="M738.137 934.592C747.404 910.296 752.947 873.012 752.947 873.012L734.652 866.07L728.138 868.625C727.832 870.045 727.769 871.52 728.012 873.004L738.137 934.592Z" fill="black"/>
<path d="M796.896 915.081L763.775 919.773L767.05 937.095L800.171 932.403L796.896 915.081Z" fill="#FFD540"/>
<path opacity="0.7" d="M796.896 915.081L763.775 919.773L767.05 937.095L800.171 932.403L796.896 915.081Z" fill="white"/>
<path d="M786.639 925.407C787.061 927.65 785.304 929.764 782.717 930.13C780.125 930.495 777.683 928.974 777.261 926.734C776.839 924.491 778.591 922.377 781.183 922.011C783.77 921.646 786.217 923.163 786.639 925.407Z" fill="#FFD540"/>
<path opacity="0.2" d="M854.328 1041.55C857.837 1038.05 854.328 1019.09 854.328 1019.09L752.7 1023.21L756.248 1044.81C768.97 1045.6 793.459 1046.25 814.2 1041.55C814.2 1041.55 850.828 1045.05 854.328 1041.55Z" fill="black"/>
<path d="M796.949 1037.68C812.991 1036.79 824.248 1034.7 824.248 1034.7L841.533 1036.32H867.225V1009.63L840.596 1004.73L821.093 1013.67C821.093 1013.67 810.986 1015.26 797.269 1015.38L796.949 1037.68Z" fill="#FFB573"/>
<path d="M799.754 1039.6C759.947 1041.8 690.666 1036.64 690.758 973.956C690.802 941.677 704.194 854.51 743.433 858.015C782.673 861.519 726.148 896.686 726.148 969.494C726.148 1011.19 771.14 1012.68 800.075 1012.44L799.754 1039.6Z" fill="#FFD540"/>
<path opacity="0.1" d="M799.754 1039.6C759.947 1041.8 690.666 1036.64 690.758 973.956C690.802 941.677 704.194 854.51 743.433 858.015C782.673 861.519 726.148 896.686 726.148 969.494C726.148 1011.19 771.14 1012.68 800.075 1012.44L799.754 1039.6Z" fill="black"/>
<path d="M503.637 1866.73H560.033C567.357 1866.73 574.047 1868.34 580.102 1871.56C586.156 1874.79 591.381 1880.3 595.775 1888.12C600.17 1895.83 603.539 1906.13 605.883 1919.03C608.324 1931.92 609.545 1947.98 609.545 1967.22C609.545 1986.55 608.324 2002.72 605.883 2015.71C603.539 2028.6 600.17 2038.95 595.775 2046.76C591.479 2054.47 586.303 2059.94 580.248 2063.17C574.193 2066.39 567.455 2068 560.033 2068H503.637V2051.45H521.508V1883.14H503.637V1866.73ZM590.502 1967.22C590.502 1950.81 589.818 1937.19 588.451 1926.35C587.182 1915.51 585.229 1906.92 582.592 1900.57C580.053 1894.12 576.928 1889.63 573.217 1887.09C569.506 1884.46 565.307 1883.14 560.619 1883.14H539.818V2051.45H560.619C565.307 2051.45 569.506 2050.13 573.217 2047.49C576.928 2044.86 580.053 2040.36 582.592 2034.02C585.229 2027.57 587.182 2018.93 588.451 2008.09C589.818 1997.25 590.502 1983.62 590.502 1967.22ZM622.289 1928.55H652.611V2051.45H667.26V2068H622.289V2051.45H634.301V1944.95H622.289V1928.55ZM627.416 1889.14C627.416 1885.24 628.686 1881.92 631.225 1879.18C633.861 1876.45 637.182 1875.08 641.186 1875.08C645.092 1875.08 648.412 1876.45 651.146 1879.18C653.881 1881.92 655.248 1885.24 655.248 1889.14C655.248 1893.15 653.881 1896.47 651.146 1899.1C648.412 1901.74 645.092 1903.06 641.186 1903.06C637.182 1903.06 633.861 1901.74 631.225 1899.1C628.686 1896.47 627.416 1893.15 627.416 1889.14ZM676.195 2068V2016.73H691.869V2029.04C691.869 2034.11 692.26 2038.31 693.041 2041.63C693.92 2044.95 694.994 2047.59 696.264 2049.54C697.533 2051.5 698.949 2052.86 700.512 2053.64C702.172 2054.43 703.783 2054.82 705.346 2054.82C706.811 2054.82 708.275 2054.52 709.74 2053.94C711.205 2053.35 712.523 2052.28 713.695 2050.71C714.867 2049.15 715.795 2047.05 716.479 2044.42C717.26 2041.68 717.65 2038.17 717.65 2033.87C717.65 2028.11 716.625 2023.22 714.574 2019.22C712.621 2015.22 710.131 2011.6 707.104 2008.38C704.076 2005.16 700.805 2002.08 697.289 1999.15C693.871 1996.22 690.648 1992.9 687.621 1989.19C684.594 1985.48 682.055 1981.13 680.004 1976.15C678.051 1971.17 677.074 1965.07 677.074 1957.84C677.074 1952.67 677.709 1948.08 678.979 1944.07C680.346 1939.97 682.104 1936.55 684.252 1933.82C686.498 1930.99 689.037 1928.84 691.869 1927.38C694.701 1925.91 697.582 1925.18 700.512 1925.18C703.832 1925.18 706.859 1926.15 709.594 1928.11C712.328 1930.06 714.525 1932.89 716.186 1936.6V1928.55H730.834V1975.57H715.16V1963.85C715.16 1959.55 714.867 1955.94 714.281 1953.01C713.793 1950.08 713.109 1947.74 712.23 1945.98C711.352 1944.12 710.277 1942.8 709.008 1942.02C707.836 1941.24 706.518 1940.85 705.053 1940.85C703.783 1940.85 702.514 1941.14 701.244 1941.73C700.072 1942.22 698.998 1943.1 698.021 1944.37C697.045 1945.64 696.264 1947.35 695.678 1949.49C695.092 1951.54 694.799 1954.13 694.799 1957.26C694.799 1963.21 695.775 1968.15 697.729 1972.05C699.779 1975.96 702.318 1979.47 705.346 1982.6C708.373 1985.72 711.596 1988.75 715.014 1991.68C718.529 1994.51 721.801 1997.83 724.828 2001.64C727.855 2005.35 730.346 2009.85 732.299 2015.12C734.35 2020.39 735.375 2026.94 735.375 2034.75C735.375 2041.39 734.545 2047 732.885 2051.59C731.225 2056.09 729.125 2059.75 726.586 2062.58C724.145 2065.31 721.459 2067.27 718.529 2068.44C715.6 2069.71 712.914 2070.34 710.473 2070.34C705.785 2070.34 701.928 2069.32 698.9 2067.27C695.873 2065.12 693.236 2062.14 690.99 2058.33V2068H676.195ZM799.242 1979.52V1968.98C799.242 1963.02 798.754 1958.19 797.777 1954.47C796.898 1950.67 795.775 1947.74 794.408 1945.69C793.041 1943.54 791.527 1942.12 789.867 1941.44C788.305 1940.66 786.84 1940.27 785.473 1940.27C782.445 1940.27 779.809 1941.63 777.562 1944.37C775.414 1947 773.607 1950.86 772.143 1955.94C770.775 1960.92 769.75 1966.97 769.066 1974.1C768.383 1981.23 768.041 1989.24 768.041 1998.13C768.041 2007.11 768.334 2015.17 768.92 2022.3C769.506 2029.43 770.482 2035.48 771.85 2040.46C773.314 2045.44 775.121 2049.3 777.27 2052.03C779.516 2054.67 782.25 2055.99 785.473 2055.99C788.305 2055.99 790.697 2055.11 792.65 2053.35C794.604 2051.5 796.215 2049.25 797.484 2046.61C798.754 2043.88 799.779 2041 800.561 2037.97C801.342 2034.85 802.025 2031.96 802.611 2029.33H816.967C816.186 2035.38 814.916 2041.05 813.158 2046.32C811.498 2051.5 809.35 2055.99 806.713 2059.8C804.076 2063.61 800.951 2066.58 797.338 2068.73C793.822 2070.88 789.77 2071.96 785.18 2071.96C773.852 2071.96 764.965 2065.71 758.52 2053.21C752.074 2040.71 748.852 2022.44 748.852 1998.42C748.852 1986.51 749.779 1975.96 751.635 1966.78C753.49 1957.6 755.98 1949.93 759.105 1943.78C762.328 1937.53 765.99 1932.84 770.092 1929.72C774.291 1926.5 778.734 1924.88 783.422 1924.88C785.473 1924.88 787.328 1925.23 788.988 1925.91C790.648 1926.59 792.113 1927.47 793.383 1928.55C794.75 1929.62 795.922 1930.84 796.898 1932.21C797.875 1933.58 798.656 1934.94 799.242 1936.31V1928.55H814.623V1979.52H799.242ZM900.17 1998.42C900.17 2011.21 899.242 2022.25 897.387 2031.53C895.629 2040.71 893.139 2048.32 889.916 2054.38C886.693 2060.33 882.885 2064.78 878.49 2067.71C874.193 2070.54 869.555 2071.96 864.574 2071.96C859.496 2071.96 854.76 2070.54 850.365 2067.71C845.971 2064.78 842.162 2060.33 838.939 2054.38C835.717 2048.32 833.178 2040.71 831.322 2031.53C829.467 2022.25 828.539 2011.21 828.539 1998.42C828.539 1985.72 829.467 1974.74 831.322 1965.46C833.178 1956.09 835.717 1948.42 838.939 1942.46C842.26 1936.41 846.117 1931.92 850.512 1928.99C854.906 1926.06 859.594 1924.59 864.574 1924.59C869.555 1924.59 874.193 1926.06 878.49 1928.99C882.885 1931.82 886.693 1936.26 889.916 1942.32C893.139 1948.27 895.629 1955.94 897.387 1965.31C899.242 1974.59 900.17 1985.63 900.17 1998.42ZM882.299 1998.42C882.299 1979.38 880.785 1964.92 877.758 1955.06C874.828 1945.2 870.434 1940.27 864.574 1940.27C858.52 1940.27 853.979 1945.25 850.951 1955.21C848.021 1965.17 846.557 1979.57 846.557 1998.42C846.557 2017.27 848.021 2031.62 850.951 2041.49C853.979 2051.35 858.52 2056.28 864.574 2056.28C870.434 2056.28 874.828 2051.35 877.758 2041.49C880.785 2031.62 882.299 2017.27 882.299 1998.42ZM906.615 1928.55H944.408V1944.95H934.887L949.535 2041.34L964.184 1944.95H954.662V1928.55H992.455V1944.95H982.787L959.057 2068H939.574L916.283 1944.95H906.615V1928.55ZM1045.48 1991.83C1045.38 1985.29 1045.04 1978.99 1044.46 1972.93C1043.97 1966.88 1043.19 1961.55 1042.11 1956.96C1041.04 1952.28 1039.62 1948.57 1037.87 1945.83C1036.21 1943.1 1034.15 1941.73 1031.71 1941.73C1029.47 1941.73 1027.51 1943.1 1025.85 1945.83C1024.19 1948.57 1022.78 1952.28 1021.61 1956.96C1020.43 1961.55 1019.51 1966.88 1018.82 1972.93C1018.14 1978.99 1017.75 1985.29 1017.65 1991.83H1045.48ZM1034.2 2055.99C1037.04 2055.99 1039.38 2055.11 1041.23 2053.35C1043.09 2051.5 1044.6 2049.25 1045.78 2046.61C1046.95 2043.88 1047.88 2041 1048.56 2037.97C1049.24 2034.85 1049.83 2031.96 1050.32 2029.33H1064.82C1064.04 2035.38 1062.82 2041.05 1061.16 2046.32C1059.5 2051.5 1057.35 2055.99 1054.71 2059.8C1052.07 2063.61 1048.95 2066.58 1045.34 2068.73C1041.82 2070.88 1037.82 2071.96 1033.32 2071.96C1028.05 2071.96 1023.27 2070.39 1018.97 2067.27C1014.77 2064.14 1011.16 2059.5 1008.13 2053.35C1005.1 2047.2 1002.76 2039.58 1001.1 2030.5C999.535 2021.42 998.754 2010.92 998.754 1999.01C998.754 1987.78 999.535 1977.62 1001.1 1968.54C1002.76 1959.46 1005.05 1951.74 1007.98 1945.39C1010.91 1939.04 1014.38 1934.16 1018.38 1930.74C1022.48 1927.23 1027.03 1925.47 1032.01 1925.47C1042.36 1925.47 1050.37 1932.16 1056.03 1945.54C1061.69 1958.92 1064.53 1978.35 1064.53 2003.84V2007.06H1017.65C1017.94 2023.08 1019.31 2035.24 1021.75 2043.54C1024.19 2051.84 1028.34 2055.99 1034.2 2055.99ZM1075.51 1928.55H1105.83V1941.73C1109.54 1935.58 1113.26 1931.18 1116.97 1928.55C1120.78 1925.91 1124.63 1924.59 1128.54 1924.59C1130.49 1924.59 1132.3 1924.88 1133.96 1925.47C1135.72 1925.96 1137.28 1926.54 1138.65 1927.23C1140.01 1927.81 1141.19 1928.45 1142.16 1929.13C1143.14 1929.82 1143.82 1930.3 1144.21 1930.6L1137.62 1947.15C1137.33 1946.86 1136.84 1946.37 1136.16 1945.69C1135.57 1945 1134.84 1944.32 1133.96 1943.63C1133.08 1942.95 1132.05 1942.37 1130.88 1941.88C1129.81 1941.39 1128.54 1941.14 1127.07 1941.14C1124.63 1941.14 1122.29 1941.93 1120.04 1943.49C1117.89 1944.95 1115.89 1947 1114.04 1949.64C1112.18 1952.18 1110.52 1955.16 1109.06 1958.58C1107.69 1961.9 1106.62 1965.36 1105.83 1968.98V2051.45H1120.78V2068H1075.51V2051.45H1087.52V1944.95H1075.51V1928.55ZM1194.75 1928.55H1224.93V1939.53C1227.76 1933.97 1230.74 1930.11 1233.86 1927.96C1237.08 1925.71 1240.75 1924.59 1244.85 1924.59C1248.17 1924.59 1251.54 1925.86 1254.96 1928.4C1258.47 1930.84 1261.6 1934.94 1264.33 1940.71C1267.16 1946.47 1269.46 1954.08 1271.21 1963.56C1272.97 1972.93 1273.85 1984.55 1273.85 1998.42C1273.85 2011.21 1273.02 2022.25 1271.36 2031.53C1269.8 2040.71 1267.6 2048.32 1264.77 2054.38C1262.04 2060.33 1258.81 2064.78 1255.1 2067.71C1251.49 2070.54 1247.63 2071.96 1243.53 2071.96C1240.21 2071.96 1236.99 2071.12 1233.86 2069.46C1230.74 2067.9 1227.76 2064.92 1224.93 2060.53V2109.16H1240.01V2125.57H1194.75V2109.16H1206.62V1944.95H1194.75V1928.55ZM1224.93 2040.46C1226.59 2044.95 1228.59 2048.71 1230.93 2051.74C1233.28 2054.77 1236.01 2056.28 1239.13 2056.28C1243.82 2056.28 1247.78 2051.35 1251 2041.49C1254.22 2031.62 1255.83 2017.27 1255.83 1998.42C1255.83 1979.38 1254.61 1964.92 1252.17 1955.06C1249.83 1945.2 1246.07 1940.27 1240.89 1940.27C1239.23 1940.27 1237.57 1941.1 1235.91 1942.76C1234.25 1944.32 1232.69 1946.42 1231.22 1949.05C1229.76 1951.59 1228.49 1954.47 1227.42 1957.7C1226.34 1960.92 1225.51 1964.19 1224.93 1967.51V2040.46ZM1333.47 1991.83C1333.37 1985.29 1333.03 1978.99 1332.45 1972.93C1331.96 1966.88 1331.18 1961.55 1330.1 1956.96C1329.03 1952.28 1327.61 1948.57 1325.85 1945.83C1324.19 1943.1 1322.14 1941.73 1319.7 1941.73C1317.46 1941.73 1315.5 1943.1 1313.84 1945.83C1312.18 1948.57 1310.77 1952.28 1309.59 1956.96C1308.42 1961.55 1307.49 1966.88 1306.81 1972.93C1306.13 1978.99 1305.74 1985.29 1305.64 1991.83H1333.47ZM1322.19 2055.99C1325.02 2055.99 1327.37 2055.11 1329.22 2053.35C1331.08 2051.5 1332.59 2049.25 1333.76 2046.61C1334.94 2043.88 1335.86 2041 1336.55 2037.97C1337.23 2034.85 1337.82 2031.96 1338.3 2029.33H1352.81C1352.03 2035.38 1350.8 2041.05 1349.14 2046.32C1347.48 2051.5 1345.34 2055.99 1342.7 2059.8C1340.06 2063.61 1336.94 2066.58 1333.32 2068.73C1329.81 2070.88 1325.8 2071.96 1321.31 2071.96C1316.04 2071.96 1311.25 2070.39 1306.96 2067.27C1302.76 2064.14 1299.14 2059.5 1296.12 2053.35C1293.09 2047.2 1290.75 2039.58 1289.09 2030.5C1287.52 2021.42 1286.74 2010.92 1286.74 1999.01C1286.74 1987.78 1287.52 1977.62 1289.09 1968.54C1290.75 1959.46 1293.04 1951.74 1295.97 1945.39C1298.9 1939.04 1302.37 1934.16 1306.37 1930.74C1310.47 1927.23 1315.01 1925.47 1319.99 1925.47C1330.35 1925.47 1338.35 1932.16 1344.02 1945.54C1349.68 1958.92 1352.51 1978.35 1352.51 2003.84V2007.06H1305.64C1305.93 2023.08 1307.3 2035.24 1309.74 2043.54C1312.18 2051.84 1316.33 2055.99 1322.19 2055.99ZM1363.5 1928.55H1393.82V1941.73C1397.53 1935.58 1401.24 1931.18 1404.96 1928.55C1408.76 1925.91 1412.62 1924.59 1416.53 1924.59C1418.48 1924.59 1420.29 1924.88 1421.95 1925.47C1423.71 1925.96 1425.27 1926.54 1426.63 1927.23C1428 1927.81 1429.17 1928.45 1430.15 1929.13C1431.13 1929.82 1431.81 1930.3 1432.2 1930.6L1425.61 1947.15C1425.32 1946.86 1424.83 1946.37 1424.14 1945.69C1423.56 1945 1422.83 1944.32 1421.95 1943.63C1421.07 1942.95 1420.04 1942.37 1418.87 1941.88C1417.8 1941.39 1416.53 1941.14 1415.06 1941.14C1412.62 1941.14 1410.28 1941.93 1408.03 1943.49C1405.88 1944.95 1403.88 1947 1402.03 1949.64C1400.17 1952.18 1398.51 1955.16 1397.04 1958.58C1395.68 1961.9 1394.6 1965.36 1393.82 1968.98V2051.45H1408.76V2068H1363.5V2051.45H1375.51V1944.95H1363.5V1928.55ZM1433.81 1928.55H1445.82V1912.58C1445.82 1896.76 1449 1884.65 1455.35 1876.25C1461.79 1867.85 1470.48 1863.65 1481.42 1863.65C1486.6 1863.65 1491.14 1864.53 1495.04 1866.29C1499.05 1868.05 1502.42 1869.9 1505.15 1871.86L1498.56 1886.21C1497.39 1885.24 1496.31 1884.36 1495.34 1883.58C1494.36 1882.7 1493.38 1881.96 1492.41 1881.38C1491.43 1880.79 1490.31 1880.35 1489.04 1880.06C1487.77 1879.77 1486.25 1879.62 1484.5 1879.62C1477.86 1879.62 1472.78 1882.36 1469.26 1887.82C1465.84 1893.29 1464.13 1901.35 1464.13 1911.99V1928.55H1489.04V1944.95H1464.13V2051.45H1482.01V2068H1433.81V2051.45H1445.82V1944.95H1433.81V1928.55ZM1544.41 1991.83C1544.31 1985.29 1543.97 1978.99 1543.38 1972.93C1542.89 1966.88 1542.11 1961.55 1541.04 1956.96C1539.96 1952.28 1538.55 1948.57 1536.79 1945.83C1535.13 1943.1 1533.08 1941.73 1530.64 1941.73C1528.39 1941.73 1526.44 1943.1 1524.78 1945.83C1523.12 1948.57 1521.7 1952.28 1520.53 1956.96C1519.36 1961.55 1518.43 1966.88 1517.75 1972.93C1517.06 1978.99 1516.67 1985.29 1516.58 1991.83H1544.41ZM1533.13 2055.99C1535.96 2055.99 1538.3 2055.11 1540.16 2053.35C1542.02 2051.5 1543.53 2049.25 1544.7 2046.61C1545.87 2043.88 1546.8 2041 1547.48 2037.97C1548.17 2034.85 1548.75 2031.96 1549.24 2029.33H1563.74C1562.96 2035.38 1561.74 2041.05 1560.08 2046.32C1558.42 2051.5 1556.27 2055.99 1553.64 2059.8C1551 2063.61 1547.88 2066.58 1544.26 2068.73C1540.75 2070.88 1536.74 2071.96 1532.25 2071.96C1526.98 2071.96 1522.19 2070.39 1517.89 2067.27C1513.7 2064.14 1510.08 2059.5 1507.05 2053.35C1504.03 2047.2 1501.68 2039.58 1500.02 2030.5C1498.46 2021.42 1497.68 2010.92 1497.68 1999.01C1497.68 1987.78 1498.46 1977.62 1500.02 1968.54C1501.68 1959.46 1503.98 1951.74 1506.91 1945.39C1509.84 1939.04 1513.3 1934.16 1517.31 1930.74C1521.41 1927.23 1525.95 1925.47 1530.93 1925.47C1541.28 1925.47 1549.29 1932.16 1554.96 1945.54C1560.62 1958.92 1563.45 1978.35 1563.45 2003.84V2007.06H1516.58C1516.87 2023.08 1518.24 2035.24 1520.68 2043.54C1523.12 2051.84 1527.27 2055.99 1533.13 2055.99ZM1626.59 1979.52V1968.98C1626.59 1963.02 1626.1 1958.19 1625.12 1954.47C1624.24 1950.67 1623.12 1947.74 1621.75 1945.69C1620.38 1943.54 1618.87 1942.12 1617.21 1941.44C1615.65 1940.66 1614.18 1940.27 1612.82 1940.27C1609.79 1940.27 1607.15 1941.63 1604.91 1944.37C1602.76 1947 1600.95 1950.86 1599.49 1955.94C1598.12 1960.92 1597.09 1966.97 1596.41 1974.1C1595.73 1981.23 1595.38 1989.24 1595.38 1998.13C1595.38 2007.11 1595.68 2015.17 1596.26 2022.3C1596.85 2029.43 1597.83 2035.48 1599.19 2040.46C1600.66 2045.44 1602.46 2049.3 1604.61 2052.03C1606.86 2054.67 1609.59 2055.99 1612.82 2055.99C1615.65 2055.99 1618.04 2055.11 1619.99 2053.35C1621.95 2051.5 1623.56 2049.25 1624.83 2046.61C1626.1 2043.88 1627.12 2041 1627.9 2037.97C1628.69 2034.85 1629.37 2031.96 1629.96 2029.33H1644.31C1643.53 2035.38 1642.26 2041.05 1640.5 2046.32C1638.84 2051.5 1636.69 2055.99 1634.06 2059.8C1631.42 2063.61 1628.29 2066.58 1624.68 2068.73C1621.17 2070.88 1617.11 2071.96 1612.52 2071.96C1601.2 2071.96 1592.31 2065.71 1585.86 2053.21C1579.42 2040.71 1576.2 2022.44 1576.2 1998.42C1576.2 1986.51 1577.12 1975.96 1578.98 1966.78C1580.83 1957.6 1583.32 1949.93 1586.45 1943.78C1589.67 1937.53 1593.33 1932.84 1597.44 1929.72C1601.63 1926.5 1606.08 1924.88 1610.77 1924.88C1612.82 1924.88 1614.67 1925.23 1616.33 1925.91C1617.99 1926.59 1619.46 1927.47 1620.73 1928.55C1622.09 1929.62 1623.27 1930.84 1624.24 1932.21C1625.22 1933.58 1626 1934.94 1626.59 1936.31V1928.55H1641.97V1979.52H1626.59ZM1692.8 2054.23C1695.63 2054.23 1698.07 2053.55 1700.12 2052.18C1702.17 2050.81 1704.12 2049.3 1705.98 2047.64L1714.04 2061.7C1712.96 2062.68 1711.64 2063.75 1710.08 2064.92C1708.62 2066.1 1706.86 2067.17 1704.81 2068.15C1702.86 2069.12 1700.66 2069.95 1698.22 2070.64C1695.78 2071.32 1693.19 2071.66 1690.45 2071.66C1682.45 2071.66 1676.1 2068.98 1671.41 2063.61C1666.82 2058.14 1664.53 2049.88 1664.53 2038.85V1944.95H1647.83V1928.55H1664.53V1886.21H1682.84V1928.55H1707.15V1944.95H1682.84V2038.85C1682.84 2044.12 1683.67 2048.03 1685.33 2050.57C1686.99 2053.01 1689.48 2054.23 1692.8 2054.23ZM1795.78 2051.45H1811.89V2068H1765.45V2051.45H1777.46V1944.95H1765.45V1928.55H1777.46V1912.58C1777.46 1904.67 1778.49 1897.69 1780.54 1891.63C1782.59 1885.58 1785.38 1880.5 1788.89 1876.4C1792.41 1872.2 1796.56 1869.03 1801.34 1866.88C1806.13 1864.73 1811.25 1863.65 1816.72 1863.65C1820.04 1863.65 1823.02 1864.04 1825.66 1864.83C1828.39 1865.61 1830.83 1866.58 1832.98 1867.76C1835.13 1868.83 1836.99 1870 1838.55 1871.27C1840.21 1872.54 1841.62 1873.71 1842.8 1874.79L1836.21 1889.14C1834.25 1886.9 1831.81 1884.75 1828.88 1882.7C1825.95 1880.65 1822.68 1879.62 1819.07 1879.62C1815.75 1879.62 1812.67 1880.3 1809.84 1881.67C1807.01 1883.04 1804.52 1885.09 1802.37 1887.82C1800.32 1890.56 1798.71 1893.98 1797.53 1898.08C1796.36 1902.08 1795.78 1906.72 1795.78 1911.99V1928.55H1848.8V2051.45H1863.45V2068H1818.48V2051.45H1830.49V1944.95H1795.78V2051.45ZM1908.71 2054.23C1911.55 2054.23 1913.99 2053.55 1916.04 2052.18C1918.09 2050.81 1920.04 2049.3 1921.9 2047.64L1929.96 2061.7C1928.88 2062.68 1927.56 2063.75 1926 2064.92C1924.54 2066.1 1922.78 2067.17 1920.73 2068.15C1918.77 2069.12 1916.58 2069.95 1914.13 2070.64C1911.69 2071.32 1909.11 2071.66 1906.37 2071.66C1898.36 2071.66 1892.02 2068.98 1887.33 2063.61C1882.74 2058.14 1880.44 2049.88 1880.44 2038.85V1944.95H1863.74V1928.55H1880.44V1886.21H1898.75V1928.55H1923.07V1944.95H1898.75V2038.85C1898.75 2044.12 1899.58 2048.03 1901.24 2050.57C1902.9 2053.01 1905.39 2054.23 1908.71 2054.23Z" fill="black"/>
</svg>
